<?xml version="1.0" encoding="UTF-8"?>
<svg id="Layer_1" data-name="Layer 1" xmlns="http://www.w3.org/2000/svg" viewBox="0 0 24 24">
  <defs>
    <style>
      .cls-1 {
        stroke-width: 0px;
      }
    </style>
  </defs>
  <path class="cls-1" d="M4.92,14.49l11.13.08c.29,0,.5-.29.38-.55-2.14-4.24-9.83-1.85-9.83-1.85.13-.97.17-1.93.13-2.86h6.18c.34,0,.63-.29.63-.63s-.29-.63-.63-.63h-.92v-.29c0-.34-.29-.63-.63-.63s-.63.29-.63.63v.29h-4.12c-.38-3.19-1.85-5.63-4.03-5.97-.38-.04-.71.08-.63.42l2.98,11.97Z"/>
  <path class="cls-1" d="M5.13,15.41c-1.22,0-2.23,1.01-2.23,2.23v.13c.5-.38,1.09-.59,1.76-.59,1.6,0,2.9,1.3,2.9,2.9h5.42c0-1.6,1.3-2.9,2.9-2.9.8,0,1.51.29,2.02.84.21-1.13-.71-2.56-2.18-2.56H5.13v-.04Z"/>
  <path class="cls-1" d="M22.02,17.13c-.17-.34-.55-.46-.88-.29l-2.94,1.55c.21.25.46.71.55,1.26l3.02-1.6c.29-.21.42-.59.25-.92h0Z"/>
  <path class="cls-1" d="M4.67,22.09c1.13,0,2.02-.92,2.02-2.02s-.92-2.02-2.02-2.02-2.02.92-2.02,2.02.92,2.02,2.02,2.02h0ZM4.67,18.94c.63,0,1.13.5,1.13,1.13s-.5,1.13-1.13,1.13-1.13-.5-1.13-1.13.5-1.13,1.13-1.13Z"/>
  <path class="cls-1" d="M15.88,18.06c-1.13,0-2.02.92-2.02,2.02s.92,2.02,2.02,2.02,2.02-.92,2.02-2.02v-.04c0-1.01-.84-1.97-2.02-1.97h0ZM15.88,21.21c-.63,0-1.13-.5-1.13-1.13s.5-1.13,1.13-1.13c.67,0,1.13.55,1.13,1.13.04.63-.5,1.13-1.13,1.13Z"/>
</svg>