<svg enable-background="new 0 0 24 24" height="24" viewBox="0 0 24 24" width="24" xmlns="http://www.w3.org/2000/svg"><path d="m0 0h24v24h-24z" fill="none"/><path d="m7.82 16h7.18v-1c0-2.21 1.79-4 4-4h.74l-1.9-8.44c-.21-.91-1.02-1.56-1.95-1.56h-3.89v2h3.89l1.4 6.25h-.01c-2.16.65-3.81 2.48-4.19 4.75h-5.27c-.48-1.34-1.86-2.24-3.42-1.94-1.18.23-2.13 1.2-2.35 2.38-.35 1.9 1.11 3.56 2.95 3.56 1.3 0 2.4-.84 2.82-2zm-2.82 0c-.55 0-1-.45-1-1s.45-1 1-1 1 .45 1 1-.45 1-1 1z"/><path d="m19 12c-1.66 0-3 1.34-3 3s1.34 3 3 3 3-1.34 3-3-1.34-3-3-3zm0 4c-.55 0-1-.45-1-1s.45-1 1-1 1 .45 1 1-.45 1-1 1z"/><path d="m11 20h-4l6 3v-2h4l-6-3z"/></svg>