<?xml version="1.0" encoding="UTF-8"?>
<svg id="Layer_1" data-name="Layer 1" xmlns="http://www.w3.org/2000/svg" viewBox="0 0 24 24">
  <defs>
    <style>
      .cls-1 {
        stroke-width: 0px;
      }
    </style>
  </defs>
  <path class="cls-1" d="M9.36,5.71c1.04,0,1.89-.84,1.89-1.89s-.84-1.89-1.89-1.89-1.89.84-1.89,1.89.84,1.89,1.89,1.89ZM6.55,11.65c.49-.18.73-.73.55-1.21s-.73-.73-1.21-.55c-2.38.9-4.07,3.19-4.07,5.88,0,3.47,2.81,6.29,6.29,6.29,2.41,0,4.49-1.35,5.55-3.33.24-.46.07-1.03-.39-1.28s-1.03-.07-1.28.39c-.74,1.39-2.2,2.33-3.88,2.33-2.43,0-4.4-1.97-4.4-4.4,0-1.88,1.18-3.49,2.85-4.12ZM12.02,8.86l-.07-.38c-.18-.88-.94-1.51-1.84-1.51-1.18,0-2.07,1.08-1.84,2.24l.91,4.54c.24,1.18,1.27,2.02,2.47,2.02h3.95c.26,0,.5.16.59.41l1.43,3.81c.24.63.94.97,1.58.75l1.89-.63c.66-.22,1.01-.93.79-1.59s-.93-1.01-1.59-.79l-.73.24-1-2.67c-.46-1.23-1.63-2.04-2.94-2.04h-2.69l-.38-1.89h2.49c.7,0,1.26-.56,1.26-1.26s-.56-1.26-1.26-1.26h-2.99Z"/>
</svg>