<?xml version="1.0" encoding="utf-8"?>
<!-- Generator: Adobe Illustrator 22.0.1, SVG Export Plug-In . SVG Version: 6.00 Build 0)  -->
<svg version="1.1" id="Layer_1" xmlns="http://www.w3.org/2000/svg" xmlns:xlink="http://www.w3.org/1999/xlink" x="0px" y="0px"
	 viewBox="0 0 81.8 156" style="enable-background:new 0 0 81.8 156;" xml:space="preserve">
<style type="text/css">
	.st0{opacity:0.15;}
	.st1{opacity:0.15;fill-rule:evenodd;clip-rule:evenodd;}
</style>
<path class="st0" d="M42.1,69.1c-0.5-1.7-2.5-2.9-2.7-4.6c-0.1-0.9,0.2-1.8,0.6-2.6l1.2-6c0.2-18.9,0.5-37.9,0.9-56.8L43,56
	c0,2.2,0.2,4,1.2,6c0.4,0.8,0.7,1.7,0.6,2.6C44.6,66.3,42.6,67.4,42.1,69.1L42.1,69.1z"/>
<path class="st0" d="M42.1,84.9c-0.5,1.7-2.5,2.9-2.7,4.6c-0.1,0.9,0.2,1.8,0.6,2.6l1.2,6c0.2,18.9,0.5,37.9,0.9,56.8L43,98.1
	c0-2.2,0.2-4,1.2-6c0.4-0.8,0.7-1.7,0.6-2.6C44.6,87.7,42.6,86.6,42.1,84.9L42.1,84.9z"/>
<path class="st1" d="M38.5,77c0-2.2,1.6-4,3.5-4c1.9,0,3.5,1.8,3.5,4c0,2.2-1.6,4-3.5,4C40.1,81,38.5,79.2,38.5,77z"/>
</svg>
