<svg id="dropSomeone" xmlns="http://www.w3.org/2000/svg" viewBox="0 0 62.4 62.4"><defs><style>.cls-1{fill:#fff;}.cls-2{fill:#dce8e2;isolation:isolate;}.cls-3,.cls-5{fill:#20a565;}.cls-4,.cls-5{opacity:0.75;}</style></defs><title>dropSomeone</title><path class="cls-1" d="M30.9,3.4a23,23,0,0,0-23,23c0,17.4,23,32.57,23,32.57s23-15.17,23-32.68A23.05,23.05,0,0,0,30.9,3.4Zm0,40.85A17.93,17.93,0,1,1,48.83,26.32,17.91,17.91,0,0,1,30.9,44.25Z"/><circle class="cls-2" cx="30.9" cy="26.6" r="16.9"/><path class="cls-3" d="M30.9,5A21.68,21.68,0,0,0,9.2,26.7c0,16.4,21.7,30.7,21.7,30.7S52.6,43.1,52.6,26.6A21.72,21.72,0,0,0,30.9,5Zm0,38.5A16.9,16.9,0,1,1,47.8,26.6,16.88,16.88,0,0,1,30.9,43.5Z"/><g class="cls-4"><circle class="cls-3" cx="25.21" cy="17.15" r="2.29"/><path class="cls-3" d="M29.89,20.17A7.8,7.8,0,0,0,31,16.45a.87.87,0,0,0-.83-.93.87.87,0,0,0-.92.83,6.43,6.43,0,0,1-.73,2.74,3.14,3.14,0,0,1-1.81,1h-2.9a1.88,1.88,0,0,0-1.68,1.05c-.29.48-1.81,3.69-2.1,4.33a.89.89,0,0,0,.41,1.17.8.8,0,0,0,.38.1.91.91,0,0,0,.8-.51c.48-1,1-2.13,1.4-2.93l-.16,3.06-2.45,8.33A1.09,1.09,0,0,0,21.14,36a.73.73,0,0,0,.29,0,1.06,1.06,0,0,0,1-.77l2.1-7.15-.16,6.8a1.07,1.07,0,0,0,2.13,0l.19-8.37.44-4.86A4.65,4.65,0,0,0,29.89,20.17Z"/></g><path class="cls-5" d="M32.14,35.26v-9h-2.7a.54.54,0,0,1-.42-.83l6.35-9.59a.55.55,0,0,1,.94.1l6.36,9.49c.21.31-.11.83-.52.83H39.54v9a.58.58,0,0,1-.52.62H32.67A.58.58,0,0,1,32.14,35.26Z"/></svg>