<svg id="dropSomeone" xmlns="http://www.w3.org/2000/svg" viewBox="0 0 55.67 55.67"><defs><style>.cls-1{fill:#dce8e2;isolation:isolate;}.cls-2{fill:none;stroke:#20a565;stroke-miterlimit:10;stroke-width:5px;}.cls-3,.cls-5{opacity:0.75;}.cls-4,.cls-5{fill:#20a565;}</style></defs><title>dropSomeone</title><circle class="cls-1" cx="27.83" cy="27.83" r="21.2"/><circle class="cls-2" cx="27.83" cy="27.83" r="23.8"/><g class="cls-3"><circle class="cls-4" cx="20.33" cy="15.5" r="3.09"/><path class="cls-4" d="M26.64,19.58c1.25-1.55,1.51-4.68,1.51-5a1.18,1.18,0,0,0-2.36-.13,8.73,8.73,0,0,1-1,3.7,4.28,4.28,0,0,1-2.45,1.33H18.44a2.55,2.55,0,0,0-2.28,1.42c-.39.64-2.45,5-2.84,5.84a1.22,1.22,0,0,0,.56,1.59,1.11,1.11,0,0,0,.52.13,1.21,1.21,0,0,0,1.07-.69c.65-1.37,1.33-2.88,1.89-3.95l-.21,4.13L13.84,39.17a1.48,1.48,0,0,0,1,1.81,1.26,1.26,0,0,0,.38,0,1.43,1.43,0,0,0,1.38-1l2.84-9.67-.22,9.2a1.44,1.44,0,1,0,2.88,0l.26-11.3.6-6.57A6.34,6.34,0,0,0,26.64,19.58Z"/></g><path class="cls-5" d="M29.69,40V27.86H26a.73.73,0,0,1-.56-1.12l8.59-12.95a.73.73,0,0,1,1.26.14l8.59,12.81a.8.8,0,0,1-.7,1.12H39.69V40a.79.79,0,0,1-.71.85H30.4A.79.79,0,0,1,29.69,40Z"/></svg>