<svg id="dropSomeone" xmlns="http://www.w3.org/2000/svg" viewBox="0 0 53 53"><defs><style>.cls-1{fill:#20a565;}</style></defs><title>dropSomeone</title><circle class="cls-1" cx="15.23" cy="10.5" r="4.5"/><path class="cls-1" d="M24.42,16.44c1.81-2.25,2.19-6.81,2.19-7.31a1.72,1.72,0,1,0-3.44-.19c-.13,1.62-.63,4.37-1.44,5.37a6.14,6.14,0,0,1-3.56,1.94H12.48a3.73,3.73,0,0,0-3.31,2.06C8.6,19.25,5.6,25.57,5,26.82a1.76,1.76,0,0,0,.81,2.31,1.74,1.74,0,0,0,.75.19,1.8,1.8,0,0,0,1.57-1c.93-2,1.93-4.19,2.75-5.75l-.32,6L5.79,45a2.14,2.14,0,0,0,1.44,2.62,1.78,1.78,0,0,0,.56.06,2.07,2.07,0,0,0,2-1.5l4.13-14.06L13.6,45.45a2.1,2.1,0,0,0,4.19.06l.38-16.44L19,19.5A9.14,9.14,0,0,0,24.42,16.44Z"/><path class="cls-1" d="M28.85,46.1V28.49H23.53a1.07,1.07,0,0,1-.82-1.64L35.2,8A1.07,1.07,0,0,1,37,8.22l12.5,18.63a1.17,1.17,0,0,1-1,1.64H43.39V46.1a1.14,1.14,0,0,1-1,1.23H29.88A1.15,1.15,0,0,1,28.85,46.1Z"/></svg>