<svg id="fetchSomeone" xmlns="http://www.w3.org/2000/svg" viewBox="0 0 55.67 55.67"><defs><style>.cls-1{fill:#efe2f0;isolation:isolate;}.cls-2{fill:none;stroke:#a04aa5;stroke-miterlimit:10;stroke-width:5px;}.cls-3,.cls-5{opacity:0.75;}.cls-4,.cls-5{fill:#a04aa5;}</style></defs><title>fetchSomeone</title><circle class="cls-1" cx="27.67" cy="27.67" r="21.2"/><circle class="cls-2" cx="27.67" cy="27.67" r="23.8"/><g class="cls-3"><circle class="cls-4" cx="20.16" cy="15.33" r="3.09"/><path class="cls-4" d="M26.48,19.41c1.24-1.54,1.5-4.68,1.5-5a1.18,1.18,0,1,0-2.36-.13,8.72,8.72,0,0,1-1,3.69,4.2,4.2,0,0,1-2.45,1.33H18.27A2.57,2.57,0,0,0,16,20.7c-.38.65-2.45,5-2.83,5.85a1.2,1.2,0,0,0,.56,1.59,1.19,1.19,0,0,0,.51.12,1.23,1.23,0,0,0,1.08-.68c.64-1.38,1.33-2.88,1.89-4L17,27.75,13.67,39a1.48,1.48,0,0,0,1,1.8,1.29,1.29,0,0,0,.39,0,1.42,1.42,0,0,0,1.37-1l2.84-9.66L19,39.35a1.44,1.44,0,1,0,2.88,0l.26-11.3.6-6.57A6.23,6.23,0,0,0,26.48,19.41Z"/></g><path class="cls-5" d="M39.5,14.17v12.1h3.66a.74.74,0,0,1,.56,1.13l-8.58,13a.74.74,0,0,1-1.27-.14L25.28,27.4A.8.8,0,0,1,26,26.27h3.52V14.17a.79.79,0,0,1,.7-.85H38.8A.79.79,0,0,1,39.5,14.17Z"/></svg>