<svg id="fetchSomeone" xmlns="http://www.w3.org/2000/svg" viewBox="0 0 62.4 62.4"><defs><style>.cls-1{fill:#fff;}.cls-2{fill:#efe2f0;isolation:isolate;}.cls-3,.cls-5{fill:#a04aa5;}.cls-4,.cls-5{opacity:0.75;}</style></defs><title>fetchSomeone</title><path class="cls-1" d="M30.73,1.87a24.48,24.48,0,0,0-24.5,24.5C6.23,44.89,30.73,61,30.73,61s24.5-16.14,24.5-34.77A24.52,24.52,0,0,0,30.73,1.87Zm0,43.47A19.08,19.08,0,1,1,49.81,26.26,19.06,19.06,0,0,1,30.73,45.34Z"/><path class="cls-1" d="M30.73,3.23a23,23,0,0,0-23,23c0,17.4,23,32.57,23,32.57s23-15.17,23-32.68A23.06,23.06,0,0,0,30.73,3.23Zm0,40.85A17.93,17.93,0,1,1,48.67,26.15,17.91,17.91,0,0,1,30.73,44.08Z"/><circle class="cls-2" cx="30.73" cy="26.43" r="16.9"/><path class="cls-3" d="M30.73,4.83A21.68,21.68,0,0,0,9,26.53c0,16.4,21.7,30.7,21.7,30.7s21.7-14.3,21.7-30.8A21.72,21.72,0,0,0,30.73,4.83Zm0,38.5a16.9,16.9,0,1,1,16.9-16.9A16.88,16.88,0,0,1,30.73,43.33Z"/><g class="cls-4"><circle class="cls-3" cx="25.05" cy="16.98" r="2.29"/><path class="cls-3" d="M29.72,20a7.81,7.81,0,0,0,1.12-3.72.88.88,0,0,0-1.75-.1,6.43,6.43,0,0,1-.74,2.74,3.09,3.09,0,0,1-1.81,1H23.65A1.92,1.92,0,0,0,22,21c-.28.48-1.81,3.69-2.1,4.33a.9.9,0,0,0,.42,1.18.85.85,0,0,0,.38.09.89.89,0,0,0,.79-.51c.48-1,1-2.13,1.4-2.92l-.16,3.05L20.24,34.5A1.1,1.1,0,0,0,21,35.84a.89.89,0,0,0,.28,0,1.07,1.07,0,0,0,1-.76L24.38,28l-.16,6.81a1.07,1.07,0,0,0,2.13,0l.19-8.37L27,21.56A4.66,4.66,0,0,0,29.72,20Z"/></g><path class="cls-5" d="M39.36,16.12v9h2.71a.54.54,0,0,1,.41.83l-6.35,9.58a.54.54,0,0,1-.94-.1l-6.35-9.48a.59.59,0,0,1,.52-.83H32v-9a.58.58,0,0,1,.52-.63h6.36A.58.58,0,0,1,39.36,16.12Z"/></svg>