<svg id="fetchSomeone" xmlns="http://www.w3.org/2000/svg" viewBox="0 0 53 53"><defs><style>.cls-1{fill:#a04aa5;}</style></defs><title>fetchSomeone</title><circle class="cls-1" cx="15.06" cy="10.33" r="4.5"/><path class="cls-1" d="M24.25,16.27C26.06,14,26.44,9.46,26.44,9A1.72,1.72,0,0,0,23,8.77c-.12,1.63-.62,4.38-1.44,5.38A6.14,6.14,0,0,1,18,16.09H12.31A3.71,3.71,0,0,0,9,18.15c-.56.94-3.56,7.25-4.13,8.5A1.76,1.76,0,0,0,5.69,29a1.61,1.61,0,0,0,.75.19,1.77,1.77,0,0,0,1.56-1c.94-2,1.94-4.19,2.75-5.75l-.31,6L5.62,44.78A2.15,2.15,0,0,0,7.06,47.4a1.57,1.57,0,0,0,.56.07,2.08,2.08,0,0,0,2-1.5L13.75,31.9l-.31,13.38a2.1,2.1,0,0,0,4.19.06L18,28.9l.88-9.56A9.07,9.07,0,0,0,24.25,16.27Z"/><path class="cls-1" d="M43.2,8.64V26.25h5.32a1.07,1.07,0,0,1,.82,1.64L36.85,46.73A1.08,1.08,0,0,1,35,46.52L22.51,27.89a1.17,1.17,0,0,1,1-1.64h5.12V8.64a1.14,1.14,0,0,1,1-1.23H42.17A1.15,1.15,0,0,1,43.2,8.64Z"/></svg>