<svg xmlns="http://www.w3.org/2000/svg" viewBox="0 0 62.4 62.4"><defs><style>.cls-1{fill:#fff;}.cls-2{fill:#d3dee3;}.cls-2,.cls-4{isolation:isolate;}.cls-3,.cls-4{fill:#00374f;}.cls-4{opacity:0.7;}</style></defs><title>home</title><g id="glow"><path class="cls-1" d="M30.9,2A24.48,24.48,0,0,0,6.4,26.54C6.4,45.05,30.9,61.2,30.9,61.2S55.4,45.05,55.4,26.42A24.52,24.52,0,0,0,30.9,2Zm0,43.46A19.08,19.08,0,1,1,50,26.42,19.05,19.05,0,0,1,30.9,45.5Z"/></g><g id="home"><path class="cls-1" d="M30.9,3.4a23,23,0,0,0-23,23c0,17.4,23,32.57,23,32.57s23-15.17,23-32.68A23.05,23.05,0,0,0,30.9,3.4Zm0,40.85A17.93,17.93,0,1,1,48.83,26.32,17.91,17.91,0,0,1,30.9,44.25Z"/><circle class="cls-2" cx="30.9" cy="26.6" r="16.9"/><path class="cls-3" d="M30.9,5A21.68,21.68,0,0,0,9.2,26.7c0,16.4,21.7,30.7,21.7,30.7S52.6,43.1,52.6,26.6A21.72,21.72,0,0,0,30.9,5Zm0,38.5A16.9,16.9,0,1,1,47.8,26.6,16.88,16.88,0,0,1,30.9,43.5Z"/><polygon class="cls-4" points="31.2 19.7 22.7 28.2 22.7 35.5 30 35.5 30 29.4 32.4 29.4 32.4 35.5 39.7 35.5 39.7 28.2 31.2 19.7"/><polygon class="cls-3" points="39.7 22.6 39.7 18.7 37.2 18.7 37.2 20.2 31.2 14.2 31.2 14.2 31.2 14.2 18.9 26.4 21.1 28.6 31.2 18.5 31.2 18.6 41.3 28.6 43.5 26.4 39.7 22.6"/></g></svg>