<svg xmlns="http://www.w3.org/2000/svg" viewBox="0 0 62.4 62.4"><defs><style>.cls-1{fill:#fff;}.cls-2{fill:#dfeddf;isolation:isolate;}.cls-3{fill:#21a017;}.cls-4{fill:#4ebc1b;}</style></defs><title>leisure</title><g id="glow"><path class="cls-1" d="M30.9,2A24.48,24.48,0,0,0,6.4,26.54C6.4,45.05,30.9,61.2,30.9,61.2S55.4,45.05,55.4,26.42A24.52,24.52,0,0,0,30.9,2Zm0,43.46A19.08,19.08,0,1,1,50,26.42,19.05,19.05,0,0,1,30.9,45.5Z"/></g><g id="leisure"><path class="cls-1" d="M30.9,3.4a23,23,0,0,0-23,23c0,17.4,23,32.57,23,32.57s23-15.17,23-32.68A23.05,23.05,0,0,0,30.9,3.4Zm0,40.85A17.93,17.93,0,1,1,48.83,26.32,17.91,17.91,0,0,1,30.9,44.25Z"/><circle class="cls-2" cx="30.9" cy="26.6" r="16.9"/><path class="cls-3" d="M30.9,5A21.68,21.68,0,0,0,9.2,26.7c0,16.4,21.7,30.7,21.7,30.7S52.6,43.1,52.6,26.6A21.72,21.72,0,0,0,30.9,5Zm0,38.5A16.9,16.9,0,1,1,47.8,26.6,16.88,16.88,0,0,1,30.9,43.5Z"/><path class="cls-4" d="M29.65,14.11l-1.75.37,3.31,15.65a6.07,6.07,0,0,0-4.3.45c-2.61,1.24-4,3.82-3.06,5.76s3.79,2.5,6.4,1.25c2.39-1.13,3.74-3.39,3.26-5.25h0L30.8,19.55c3.31,1.5,5.76.69,7.29,5.61C41.86,15.55,30.75,18.13,29.65,14.11Z"/></g></svg>