<svg xmlns="http://www.w3.org/2000/svg" viewBox="0 0 62.4 62.4"><defs><style>.cls-1{fill:#fff;}.cls-2{fill:#e3d3d3;isolation:isolate;}.cls-3{fill:#992626;}.cls-4{fill:#d33939;}</style></defs><title>medical</title><g id="glow"><path class="cls-1" d="M30.9,2A24.48,24.48,0,0,0,6.4,26.54C6.4,45.05,30.9,61.2,30.9,61.2S55.4,45.05,55.4,26.42A24.52,24.52,0,0,0,30.9,2Zm0,43.46A19.08,19.08,0,1,1,50,26.42,19.05,19.05,0,0,1,30.9,45.5Z"/></g><g id="medical"><path class="cls-1" d="M30.9,3.4a23,23,0,0,0-23,23c0,17.4,23,32.57,23,32.57s23-15.17,23-32.68A23.05,23.05,0,0,0,30.9,3.4Zm0,40.85A17.93,17.93,0,1,1,48.83,26.32,17.91,17.91,0,0,1,30.9,44.25Z"/><circle class="cls-2" cx="30.9" cy="26.6" r="16.9"/><path class="cls-3" d="M30.9,5A21.68,21.68,0,0,0,9.2,26.7c0,16.4,21.7,30.7,21.7,30.7S52.6,43.1,52.6,26.6A21.72,21.72,0,0,0,30.9,5Zm0,38.5A16.9,16.9,0,1,1,47.8,26.6,16.88,16.88,0,0,1,30.9,43.5Z"/><polygon class="cls-4" points="34.45 15.77 27.95 15.77 27.95 23.35 20.37 23.35 20.37 29.85 27.95 29.85 27.95 37.43 34.45 37.43 34.45 29.85 42.03 29.85 42.03 23.35 34.45 23.35 34.45 15.77"/></g></svg>