<svg id="other" xmlns="http://www.w3.org/2000/svg" viewBox="0 0 62.4 62.4"><defs><style>.cls-1{fill:#fff;}.cls-2{fill:#e8e8e8;isolation:isolate;}.cls-3{fill:#757575;}</style></defs><title>other</title><path class="cls-1" d="M30.73,1.87a24.48,24.48,0,0,0-24.5,24.5C6.23,44.89,30.73,61,30.73,61s24.5-16.14,24.5-34.77A24.52,24.52,0,0,0,30.73,1.87Zm0,43.47A19.08,19.08,0,1,1,49.81,26.26,19.06,19.06,0,0,1,30.73,45.34Z"/><path class="cls-1" d="M30.73,3.23a23,23,0,0,0-23,23c0,17.4,23,32.57,23,32.57s23-15.17,23-32.68A23.06,23.06,0,0,0,30.73,3.23Zm0,40.85A17.93,17.93,0,1,1,48.67,26.15,17.91,17.91,0,0,1,30.73,44.08Z"/><circle class="cls-2" cx="30.73" cy="26.43" r="16.9"/><path class="cls-3" d="M30.73,4.83A21.68,21.68,0,0,0,9,26.53c0,16.4,21.7,30.7,21.7,30.7s21.7-14.3,21.7-30.8A21.72,21.72,0,0,0,30.73,4.83Zm0,38.5a16.9,16.9,0,1,1,16.9-16.9A16.88,16.88,0,0,1,30.73,43.33Z"/><path class="cls-3" d="M29.07,32.14l-.08-1A9,9,0,0,1,31.4,24.4c1.75-2.06,2.72-3.58,2.72-5.33,0-2-1.24-3.31-3.69-3.35a6.91,6.91,0,0,0-3.93,1.21l-.93-2.45a10.22,10.22,0,0,1,5.56-1.56c4.47,0,6.49,2.77,6.49,5.72,0,2.65-1.47,4.55-3.34,6.77a7.67,7.67,0,0,0-2.22,5.72l0,1Zm-.86,5.45a2.3,2.3,0,0,1,2.33-2.45,2.43,2.43,0,1,1-2.33,2.45Z"/></svg>