<svg id="other" xmlns="http://www.w3.org/2000/svg" viewBox="0 0 55.67 55.67"><defs><style>.cls-1{fill:#e8e8e8;isolation:isolate;}.cls-2{fill:none;stroke:#757575;stroke-miterlimit:10;stroke-width:5px;}.cls-3{fill:#757575;}</style></defs><title>other</title><circle class="cls-1" cx="27.67" cy="27.67" r="21.2"/><circle class="cls-2" cx="27.67" cy="27.67" r="23.8"/><path class="cls-3" d="M25.25,35.08l-.1-1.31c-.3-2.72.61-5.69,3.13-8.71,2.26-2.67,3.52-4.63,3.52-6.9,0-2.57-1.61-4.28-4.78-4.33a8.92,8.92,0,0,0-5.09,1.56l-1.21-3.17a13.18,13.18,0,0,1,7.2-2c5.8,0,8.41,3.58,8.41,7.4,0,3.43-1.91,5.9-4.33,8.77-2.21,2.62-3,4.83-2.87,7.4l.05,1.31Zm-1.1,7.05a3,3,0,0,1,3-3.17,3.15,3.15,0,1,1-3,3.17Z"/></svg>