<svg id="other" xmlns="http://www.w3.org/2000/svg" viewBox="0 0 53 53"><defs><style>.cls-1{fill:#757575;}</style></defs><title>other</title><path class="cls-1" d="M22.72,35.21l-.12-1.56c-.36-3.23.72-6.77,3.72-10.36,2.69-3.18,4.19-5.51,4.19-8.21,0-3.05-1.92-5.09-5.69-5.15a10.61,10.61,0,0,0-6.05,1.86L17.33,8A15.69,15.69,0,0,1,25.9,5.62c6.89,0,10,4.25,10,8.8,0,4.08-2.28,7-5.15,10.43-2.64,3.11-3.6,5.75-3.42,8.8l.06,1.56ZM21.4,43.6A3.55,3.55,0,0,1,25,39.82a3.5,3.5,0,0,1,3.53,3.78,3.57,3.57,0,1,1-7.13,0Z"/></svg>