<svg xmlns="http://www.w3.org/2000/svg" viewBox="0 0 62.4 62.4"><defs><style>.cls-1{fill:#fff;}.cls-2{fill:#eae6df;isolation:isolate;}.cls-3{fill:#6d533b;}.cls-4{fill:#916f4f;}</style></defs><title>restaurant</title><g id="glow"><path class="cls-1" d="M30.9,2A24.48,24.48,0,0,0,6.4,26.54C6.4,45.05,30.9,61.2,30.9,61.2S55.4,45.05,55.4,26.42A24.52,24.52,0,0,0,30.9,2Zm0,43.46A19.08,19.08,0,1,1,50,26.42,19.05,19.05,0,0,1,30.9,45.5Z"/></g><g id="restaurant"><path class="cls-1" d="M30.9,3.4a23,23,0,0,0-23,23c0,17.4,23,32.57,23,32.57s23-15.17,23-32.68A23.05,23.05,0,0,0,30.9,3.4Zm0,40.85A17.93,17.93,0,1,1,48.83,26.32,17.91,17.91,0,0,1,30.9,44.25Z"/><circle class="cls-2" cx="30.9" cy="26.6" r="16.9"/><path class="cls-3" d="M30.9,5A21.68,21.68,0,0,0,9.2,26.7c0,16.4,21.7,30.7,21.7,30.7S52.6,43.1,52.6,26.6A21.72,21.72,0,0,0,30.9,5Zm0,38.5A16.9,16.9,0,1,1,47.8,26.6,16.88,16.88,0,0,1,30.9,43.5Z"/><path class="cls-4" d="M39.41,14.31a.55.55,0,0,0-.56.55v4.71a.53.53,0,0,1-1.05,0V14.86a.56.56,0,0,0-.56-.55h-.17a.57.57,0,0,0-.57.55v4.71a.52.52,0,1,1-1,0h0V14.86a.56.56,0,0,0-.56-.55h-.17a.56.56,0,0,0-.56.55v4.71a.52.52,0,0,1-.52.52.52.52,0,0,1-.53-.52h0V14.86a.56.56,0,0,0-.56-.56.57.57,0,0,0-.57.56v7a4,4,0,0,0,2.95,3.86l-.53,11.78a1.61,1.61,0,1,0,3.22,0h0L37.1,25.68A3.92,3.92,0,0,0,40,22V14.86A.57.57,0,0,0,39.41,14.31Z"/><path class="cls-4" d="M25.53,14.31c-2.18,0-4,2.63-4,5.89,0,2.69,1.22,4.95,2.86,5.65l-.52,11.6a1.61,1.61,0,0,0,3.22,0l-.57-11.6c1.66-.7,2.86-3,2.86-5.65C29.42,16.94,27.62,14.31,25.53,14.31Z"/></g></svg>