<svg xmlns="http://www.w3.org/2000/svg" viewBox="0 0 53 53"><defs><style>.cls-1{fill:#6d533b;}</style></defs><title>restaurant</title><g id="restaurant"><path class="cls-1" d="M39.91,8.52a.89.89,0,0,0-.89.87v7.43a.83.83,0,1,1-1.65,0V9.39a.89.89,0,0,0-.89-.87h-.27a.89.89,0,0,0-.89.87v7.43a.83.83,0,1,1-1.65,0h0V9.39a.87.87,0,0,0-.88-.87h-.28a.87.87,0,0,0-.87.87v7.43a.83.83,0,1,1-1.65,0h0V9.39a.9.9,0,0,0-1.79,0v11a6.37,6.37,0,0,0,4.66,6.09L32,45.05a2.54,2.54,0,0,0,5.08,0h0l-.84-18.58a6.18,6.18,0,0,0,4.51-5.9V9.39A.89.89,0,0,0,39.91,8.52Z"/><path class="cls-1" d="M18,8.52c-3.44,0-6.23,4.16-6.23,9.29,0,4.25,1.92,7.82,4.51,8.92l-.83,18.32a2.55,2.55,0,0,0,5.09,0l-.89-18.32c2.61-1.1,4.51-4.67,4.51-8.92C24.14,12.68,21.3,8.52,18,8.52Z"/></g></svg>