<svg id="schoolNotUsual" xmlns="http://www.w3.org/2000/svg" viewBox="0 0 53 53"><defs><style>.cls-1{fill:#0e4372;}</style></defs><title>schoolNotUsual</title><path class="cls-1" d="M49,23.22,28.51,29.54a7.23,7.23,0,0,1-4,0L9.61,25a4.82,4.82,0,0,0-.89,2.84,2.38,2.38,0,0,1-.05,4.11L9.87,41a.59.59,0,0,1-.59.67H5.72A.59.59,0,0,1,5.13,41l1.2-9.13a2.37,2.37,0,0,1,0-4.15,7.64,7.64,0,0,1,.9-3.53L4,23.22a1.78,1.78,0,0,1,0-3.41l20.47-6.32a7.23,7.23,0,0,1,4,0L49,19.81a1.78,1.78,0,0,1,0,3.41Z"/><path class="cls-1" d="M29.21,31.81h0a9.58,9.58,0,0,1-5.36,0h0l-11.2-3.46-.93,6.23c0,2.62,6.64,4.75,14.84,4.75s14.84-2.13,14.84-4.75l-.93-6.23Z"/></svg>