<svg xmlns="http://www.w3.org/2000/svg" viewBox="0 0 55.67 55.67"><defs><style>.cls-1{fill:#d3d9e3;isolation:isolate;}.cls-2{fill:none;stroke:#1363ba;stroke-miterlimit:10;stroke-width:5px;}.cls-3{fill:#3d89db;}</style></defs><title>school</title><g id="medical_copy" data-name="medical copy"><circle class="cls-1" cx="27.83" cy="27.83" r="21.2"/><circle class="cls-2" cx="27.83" cy="27.83" r="23.8"/><path class="cls-3" d="M45.38,25,30,29.77a5.35,5.35,0,0,1-3,0L15.81,26.32a3.62,3.62,0,0,0-.66,2.14,1.79,1.79,0,0,1,0,3.08L16,38.4a.45.45,0,0,1-.44.51H12.89a.44.44,0,0,1-.44-.51l.9-6.86a1.79,1.79,0,0,1,0-3.11A5.83,5.83,0,0,1,14,25.77L11.62,25a1.34,1.34,0,0,1,0-2.57L27,17.72a5.35,5.35,0,0,1,3,0l15.37,4.74a1.34,1.34,0,0,1,0,2.57Z"/><path class="cls-3" d="M30.53,31.47h0a7.05,7.05,0,0,1-4,0h0l-8.41-2.59-.7,4.67c0,2,5,3.57,11.15,3.57s11.15-1.6,11.15-3.57L39,28.88Z"/></g></svg>