<svg id="schoolNotUsual" xmlns="http://www.w3.org/2000/svg" viewBox="0 0 62.4 62.4"><defs><style>.cls-1{fill:#fff;}.cls-2{fill:#d3d9e3;isolation:isolate;}.cls-3{fill:#0e4372;}.cls-4{opacity:0.75;}</style></defs><title>schoolNotUsual</title><path class="cls-1" d="M30.9,3.4a23,23,0,0,0-23,23c0,17.4,23,32.57,23,32.57s23-15.17,23-32.68A23.05,23.05,0,0,0,30.9,3.4Zm0,40.85A17.93,17.93,0,1,1,48.83,26.32,17.91,17.91,0,0,1,30.9,44.25Z"/><circle class="cls-2" cx="30.9" cy="26.6" r="16.9"/><path class="cls-3" d="M30.9,5A21.68,21.68,0,0,0,9.2,26.7c0,16.4,21.7,30.7,21.7,30.7S52.6,43.1,52.6,26.6A21.72,21.72,0,0,0,30.9,5Zm0,38.5A16.9,16.9,0,1,1,47.8,26.6,16.88,16.88,0,0,1,30.9,43.5Z"/><g class="cls-4"><path class="cls-3" d="M43.94,24.24,32.52,27.77a4.06,4.06,0,0,1-2.24,0L22,25.2a2.77,2.77,0,0,0-.49,1.59,1.33,1.33,0,0,1,0,2.29l.67,5.1a.33.33,0,0,1-.33.37h-2a.33.33,0,0,1-.33-.37l.67-5.1a1.32,1.32,0,0,1,0-2.31,4.14,4.14,0,0,1,.5-2l-1.8-.56a1,1,0,0,1,0-1.9l11.42-3.53a4.06,4.06,0,0,1,2.24,0l11.42,3.53a1,1,0,0,1,0,1.9Z"/><path class="cls-3" d="M32.91,29h0a5.39,5.39,0,0,1-3,0h0L23.64,27.1l-.52,3.48c0,1.46,3.71,2.65,8.28,2.65s8.28-1.19,8.28-2.65l-.52-3.48Z"/></g></svg>