<svg id="secondaryHome" xmlns="http://www.w3.org/2000/svg" viewBox="0 0 53 53"><defs><style>.cls-1,.cls-2,.cls-3,.cls-4{fill:#00374f;}.cls-1,.cls-3{isolation:isolate;}.cls-3,.cls-4{opacity:0.75;}</style></defs><title>secondaryHome</title><polygon class="cls-1" points="17.84 20.88 8.14 30.52 8.14 38.85 16.41 38.85 16.41 31.95 19.21 31.95 19.21 38.85 27.48 38.85 27.48 30.52 17.84 20.88"/><polygon class="cls-2" points="27.48 24.17 27.48 19.7 24.68 19.7 24.68 21.38 17.84 14.53 17.84 14.53 17.78 14.53 3.78 28.53 6.33 31.02 17.84 19.51 17.84 19.57 29.28 31.02 31.83 28.53 27.48 24.17"/><polygon class="cls-3" points="38.03 19.64 31.49 26.14 33.79 28.5 30.8 31.5 30.8 33.04 36.96 33.04 36.96 27.89 39.05 27.89 39.05 33.04 45.21 33.04 45.21 26.83 38.03 19.64"/><polygon class="cls-4" points="45.21 22.1 45.21 18.77 43.13 18.77 43.13 20.02 38.03 14.92 38.03 14.92 37.98 14.92 29.19 23.71 31.09 25.57 38.03 18.63 38.03 18.67 46.56 27.2 48.46 25.34 45.21 22.1"/></svg>