<svg id="secondaryHome" xmlns="http://www.w3.org/2000/svg" viewBox="0 0 62.4 62.4"><defs><style>.cls-1{fill:#fff;}.cls-2{fill:#d3dee3;}.cls-2,.cls-4,.cls-5{isolation:isolate;}.cls-3,.cls-4,.cls-5,.cls-6{fill:#00374f;}.cls-5,.cls-6{opacity:0.75;}</style></defs><title>secondaryHome</title><path class="cls-1" d="M30.73,1.87a24.48,24.48,0,0,0-24.5,24.5C6.23,44.89,30.73,61,30.73,61s24.5-16.14,24.5-34.77A24.52,24.52,0,0,0,30.73,1.87Zm0,43.47A19.08,19.08,0,1,1,49.81,26.26,19.06,19.06,0,0,1,30.73,45.34Z"/><path class="cls-1" d="M30.73,3.23a23,23,0,0,0-23,23c0,17.4,23,32.57,23,32.57s23-15.17,23-32.68A23.06,23.06,0,0,0,30.73,3.23Zm0,40.85A17.93,17.93,0,1,1,48.67,26.15,17.91,17.91,0,0,1,30.73,44.08Z"/><circle class="cls-2" cx="30.73" cy="26.43" r="16.9"/><path class="cls-3" d="M30.73,4.83A21.68,21.68,0,0,0,9,26.53c0,16.4,21.7,30.7,21.7,30.7s21.7-14.3,21.7-30.8A21.72,21.72,0,0,0,30.73,4.83Zm0,38.5a16.9,16.9,0,1,1,16.9-16.9A16.88,16.88,0,0,1,30.73,43.33Z"/><polygon class="cls-4" points="25.1 21.78 18.77 28.07 18.77 33.5 24.17 33.5 24.17 29 25.99 29 25.99 33.5 31.39 33.5 31.39 28.07 25.1 21.78"/><polygon class="cls-3" points="31.39 23.93 31.39 21.01 29.56 21.01 29.56 22.11 25.1 17.65 25.1 17.65 25.06 17.65 15.94 26.77 17.6 28.39 25.1 20.89 25.1 20.93 32.56 28.39 34.23 26.77 31.39 23.93"/><polygon class="cls-5" points="38.27 20.98 34.01 25.21 35.5 26.75 33.55 28.71 33.55 29.71 37.57 29.71 37.57 26.36 38.93 26.36 38.93 29.71 42.95 29.71 42.95 25.66 38.27 20.98"/><polygon class="cls-6" points="42.95 22.58 42.95 20.41 41.59 20.41 41.59 21.22 38.27 17.9 38.27 17.9 38.24 17.9 32.5 23.63 33.74 24.84 38.27 20.32 38.27 20.35 43.83 25.91 45.07 24.7 42.95 22.58"/></svg>