<svg id="secondaryHome" xmlns="http://www.w3.org/2000/svg" viewBox="0 0 55.67 55.67"><defs><style>.cls-1{fill:#d3dee3;}.cls-1,.cls-3,.cls-5{isolation:isolate;}.cls-2{fill:none;stroke:#00374f;stroke-miterlimit:10;stroke-width:5px;}.cls-3,.cls-4,.cls-5,.cls-6{fill:#00374f;}.cls-5,.cls-6{opacity:0.75;}</style></defs><title>secondaryHome</title><circle class="cls-1" cx="27.67" cy="27.67" r="21.2"/><circle class="cls-2" cx="27.67" cy="27.67" r="23.8"/><polygon class="cls-3" points="20.93 22 12.77 30.11 12.77 37.13 19.73 37.13 19.73 31.32 22.09 31.32 22.09 37.13 29.04 37.13 29.04 30.11 20.93 22"/><polygon class="cls-4" points="29.04 24.78 29.04 21.01 26.69 21.01 26.69 22.42 20.93 16.67 20.93 16.67 20.88 16.67 9.11 28.44 11.25 30.53 20.93 20.85 20.93 20.91 30.56 30.53 32.71 28.44 29.04 24.78"/><polygon class="cls-5" points="37.92 20.97 32.42 26.43 34.35 28.42 31.84 30.94 31.84 32.23 37.02 32.23 37.02 27.91 38.78 27.91 38.78 32.23 43.96 32.23 43.96 27.01 37.92 20.97"/><polygon class="cls-6" points="43.96 23.03 43.96 20.23 42.21 20.23 42.21 21.28 37.92 16.99 37.92 16.99 37.88 16.99 30.48 24.39 32.08 25.95 37.92 20.11 37.92 20.15 45.09 27.32 46.69 25.76 43.96 23.03"/></svg>