<svg id="shopping" xmlns="http://www.w3.org/2000/svg" viewBox="0 0 62.4 62.4"><defs><style>.cls-1{fill:#fff;}.cls-2{fill:#f9f2e8;isolation:isolate;}.cls-3,.cls-4{fill:#f49c00;}.cls-4{stroke:#d69245;stroke-miterlimit:10;stroke-width:0.25px;}</style></defs><title>shopping</title><path class="cls-1" d="M30.73,1.87a24.48,24.48,0,0,0-24.5,24.5C6.23,44.89,30.73,61,30.73,61s24.5-16.14,24.5-34.77A24.52,24.52,0,0,0,30.73,1.87Zm0,43.47A19.08,19.08,0,1,1,49.81,26.26,19.06,19.06,0,0,1,30.73,45.34Z"/><path class="cls-1" d="M30.73,3.23a23,23,0,0,0-23,23c0,17.4,23,32.57,23,32.57s23-15.17,23-32.68A23.06,23.06,0,0,0,30.73,3.23Zm0,40.85A17.93,17.93,0,1,1,48.67,26.15,17.91,17.91,0,0,1,30.73,44.08Z"/><circle class="cls-2" cx="30.73" cy="26.43" r="16.9"/><path class="cls-3" d="M30.73,4.83A21.68,21.68,0,0,0,9,26.53c0,16.4,21.7,30.7,21.7,30.7s21.7-14.3,21.7-30.8A21.72,21.72,0,0,0,30.73,4.83Zm0,38.5a16.9,16.9,0,1,1,16.9-16.9A16.88,16.88,0,0,1,30.73,43.33Z"/><path class="cls-4" d="M19.53,16.47a.81.81,0,0,0,0,1.62h2.68q2,4.95,4,9.92L25,30.94a.82.82,0,0,0,.08.76.83.83,0,0,0,.67.35H39.14a.83.83,0,0,0,.82-.8.84.84,0,0,0-.82-.81H26.92l.7-1.66,12.93-1a.83.83,0,0,0,.72-.62l1.61-7a.84.84,0,0,0-.79-1H24.38L23.5,17a.83.83,0,0,0-.74-.51ZM25,20.77h5v2.42H26Zm6.6,0h3.22v2.42H31.62Zm4.83,0h4.63l-.56,2.42H36.45Zm-9.82,4H30V27l-2.43.2Zm5,0h3.22v1.79l-3.22.26Zm4.83,0h3.7l-.32,1.39-3.38.27ZM28.4,32.59a2.69,2.69,0,1,0,2.68,2.69A2.7,2.7,0,0,0,28.4,32.59Zm8.05,0a2.69,2.69,0,1,0,2.69,2.69A2.7,2.7,0,0,0,36.45,32.59ZM28.4,34.2a1.08,1.08,0,1,1-1.08,1.08A1.06,1.06,0,0,1,28.4,34.2Zm8.05,0a1.08,1.08,0,1,1-1.07,1.08A1.06,1.06,0,0,1,36.45,34.2Z"/></svg>