<svg id="shopping" xmlns="http://www.w3.org/2000/svg" viewBox="0 0 55.67 55.67"><defs><style>.cls-1{fill:#f9f2e8;isolation:isolate;}.cls-2{fill:none;stroke:#f49c00;stroke-miterlimit:10;stroke-width:5px;}.cls-3{fill:#f49c00;}</style></defs><title>shopping</title><circle class="cls-1" cx="27.67" cy="27.67" r="21.2"/><circle class="cls-2" cx="27.67" cy="27.67" r="23.8"/><path class="cls-3" d="M14.54,16a.93.93,0,0,0,0,1.86h3.08c1.54,3.8,3.05,7.61,4.57,11.42l-1.4,3.37a.94.94,0,0,0,.86,1.29H37.11a.93.93,0,1,0,0-1.86H23l.81-1.91L38.74,29a1,1,0,0,0,.83-.72l1.85-8a1,1,0,0,0-.9-1.13H20.12l-1-2.51a1,1,0,0,0-.86-.58ZM20.86,21H26.6v2.78H22Zm7.6,0h3.71v2.78H28.46ZM34,21h5.33l-.64,2.78H34Zm-11.3,4.64H26.6v2.5l-2.79.22Zm5.74,0h3.71v2.05l-3.71.3Zm5.56,0h4.25l-.36,1.6L34,27.5Zm-9.28,9a3.1,3.1,0,1,0,3.1,3.1A3.11,3.11,0,0,0,24.74,34.55Zm9.28,0a3.1,3.1,0,1,0,3.09,3.1A3.11,3.11,0,0,0,34,34.55Zm-9.28,1.86a1.24,1.24,0,1,1-1.23,1.24A1.22,1.22,0,0,1,24.74,36.41Zm9.28,0a1.24,1.24,0,1,1-1.24,1.24A1.22,1.22,0,0,1,34,36.41Z"/></svg>