<svg id="shopping" xmlns="http://www.w3.org/2000/svg" viewBox="0 0 53 53"><defs><style>.cls-1{fill:#f49c00;}</style></defs><title>shopping</title><path class="cls-1" d="M4.44,8a1.45,1.45,0,0,0,0,2.89h4.8c2.4,5.92,4.75,11.85,7.12,17.78l-2.18,5.25a1.45,1.45,0,0,0,1.34,2H39.59a1.45,1.45,0,1,0,0-2.89H17.69l1.24-3,23.19-1.85a1.47,1.47,0,0,0,1.29-1.12L46.3,14.58a1.52,1.52,0,0,0-1.41-1.77H13.13L11.56,8.9A1.48,1.48,0,0,0,10.22,8Zm9.85,7.7h8.93V20H16Zm11.82,0h5.78V20H26.11Zm8.67,0h8.29l-1,4.34h-7.3ZM17.17,22.93h6v3.89l-4.35.35Zm8.94,0h5.78v3.2l-5.78.47Zm8.67,0H41.4l-.57,2.49-6,.49Zm-14.45,14a4.82,4.82,0,1,0,4.82,4.81A4.83,4.83,0,0,0,20.33,36.89Zm14.45,0a4.82,4.82,0,1,0,4.81,4.81A4.84,4.84,0,0,0,34.78,36.89ZM20.33,39.78a1.93,1.93,0,1,1-1.92,1.92A1.9,1.9,0,0,1,20.33,39.78Zm14.45,0a1.93,1.93,0,1,1-1.93,1.92A1.9,1.9,0,0,1,34.78,39.78Z"/></svg>