<svg id="visiting" xmlns="http://www.w3.org/2000/svg" viewBox="0 0 62.4 62.4"><defs><style>.cls-1{fill:#fff;}.cls-2{fill:#f5e9da;isolation:isolate;}.cls-3,.cls-4{fill:#d67000;}.cls-4{opacity:0.8;}</style></defs><title>visiting</title><path class="cls-1" d="M30.73,1.87a24.48,24.48,0,0,0-24.5,24.5C6.23,44.89,30.73,61,30.73,61s24.5-16.14,24.5-34.77A24.52,24.52,0,0,0,30.73,1.87Zm0,43.47A19.08,19.08,0,1,1,49.81,26.26,19.06,19.06,0,0,1,30.73,45.34Z"/><path class="cls-1" d="M30.73,3.23a23,23,0,0,0-23,23c0,17.4,23,32.57,23,32.57s23-15.17,23-32.68A23.06,23.06,0,0,0,30.73,3.23Zm0,40.85A17.93,17.93,0,1,1,48.67,26.15,17.91,17.91,0,0,1,30.73,44.08Z"/><circle class="cls-2" cx="30.73" cy="26.43" r="16.9"/><path class="cls-3" d="M30.73,4.83A21.68,21.68,0,0,0,9,26.53c0,16.4,21.7,30.7,21.7,30.7s21.7-14.3,21.7-30.8A21.72,21.72,0,0,0,30.73,4.83Zm0,38.5a16.9,16.9,0,1,1,16.9-16.9A16.88,16.88,0,0,1,30.73,43.33Z"/><circle class="cls-3" cx="25.68" cy="19.87" r="4.73"/><path class="cls-3" d="M28.92,26h-.35a6.67,6.67,0,0,1-2.89.67,6.75,6.75,0,0,1-2.9-.67h-.35a4.87,4.87,0,0,0-4.86,4.86V32a2,2,0,0,0,2,2H31.76a2,2,0,0,0,2-2V30.82A4.87,4.87,0,0,0,28.92,26Z"/><circle class="cls-4" cx="37.84" cy="20.55" r="4.06"/><path class="cls-4" d="M39.87,26h-.16a5.79,5.79,0,0,1-1.87.33A5.68,5.68,0,0,1,36,26h-.16a4.72,4.72,0,0,0-2.36.65,6.17,6.17,0,0,1,1.68,4.21v1.62a2,2,0,0,1,0,.27h7.46a2,2,0,0,0,2-2A4.72,4.72,0,0,0,39.87,26Z"/></svg>