<svg id="visiting" xmlns="http://www.w3.org/2000/svg" viewBox="0 0 55.67 55.67"><defs><style>.cls-1{fill:#f5e9da;isolation:isolate;}.cls-2{fill:none;stroke:#d67000;stroke-miterlimit:10;stroke-width:5px;}.cls-3,.cls-4{fill:#d67000;}.cls-4{opacity:0.8;}</style></defs><title>visiting</title><circle class="cls-1" cx="27.67" cy="27.67" r="21.2"/><circle class="cls-2" cx="27.67" cy="27.67" r="23.8"/><circle class="cls-3" cx="21.32" cy="21.19" r="5.63"/><path class="cls-3" d="M25.18,28.43h-.42a7.82,7.82,0,0,1-6.89,0h-.41a5.79,5.79,0,0,0-5.79,5.79v1.44a2.41,2.41,0,0,0,2.41,2.41H28.55A2.41,2.41,0,0,0,31,35.66V34.22A5.79,5.79,0,0,0,25.18,28.43Z"/><circle class="cls-4" cx="35.79" cy="21.99" r="4.83"/><path class="cls-4" d="M38.2,28.43H38a6.36,6.36,0,0,1-4.44,0h-.19a5.54,5.54,0,0,0-2.8.77,7.33,7.33,0,0,1,2,5v1.93c0,.11,0,.21,0,.32h8.88a2.41,2.41,0,0,0,2.41-2.42A5.61,5.61,0,0,0,38.2,28.43Z"/></svg>