<svg id="visiting" xmlns="http://www.w3.org/2000/svg" viewBox="0 0 53 53"><defs><style>.cls-1,.cls-2{fill:#d67000;}.cls-2{opacity:0.8;}</style></defs><title>visiting</title><circle class="cls-1" cx="18.03" cy="18.55" r="7.7"/><path class="cls-1" d="M23.31,28.45h-.57a10.63,10.63,0,0,1-9.42,0h-.57a7.93,7.93,0,0,0-7.92,7.92v2a3.3,3.3,0,0,0,3.3,3.3h19.8a3.3,3.3,0,0,0,3.3-3.3v-2A7.92,7.92,0,0,0,23.31,28.45Z"/><circle class="cls-2" cx="37.83" cy="19.65" r="6.6"/><path class="cls-2" d="M41.13,28.45h-.26a9.21,9.21,0,0,1-3,.55,9.3,9.3,0,0,1-3-.55h-.26a7.69,7.69,0,0,0-3.83,1.06,10.06,10.06,0,0,1,2.73,6.86V39c0,.15,0,.3,0,.44H45.53a3.3,3.3,0,0,0,3.3-3.3A7.69,7.69,0,0,0,41.13,28.45Z"/></svg>