<svg xmlns="http://www.w3.org/2000/svg" viewBox="0 0 62.4 62.4"><defs><style>.cls-1{fill:#fff;}.cls-2{fill:#eddde9;isolation:isolate;}.cls-3,.cls-4{fill:#933476;}.cls-4{opacity:0.8;}</style></defs><title>workNotUsual</title><g id="glow"><path class="cls-1" d="M30.9,2A24.48,24.48,0,0,0,6.4,26.54C6.4,45.05,30.9,61.2,30.9,61.2S55.4,45.05,55.4,26.42A24.52,24.52,0,0,0,30.9,2Zm0,43.46A19.08,19.08,0,1,1,50,26.42,19.05,19.05,0,0,1,30.9,45.5Z"/></g><g id="workNotUsual"><path class="cls-1" d="M30.9,3.4a23,23,0,0,0-23,23c0,17.4,23,32.57,23,32.57s23-15.17,23-32.68A23.05,23.05,0,0,0,30.9,3.4Zm0,40.85A17.93,17.93,0,1,1,48.83,26.32,17.91,17.91,0,0,1,30.9,44.25Z"/><circle class="cls-2" cx="30.9" cy="26.6" r="16.9"/><path class="cls-3" d="M30.9,5A21.68,21.68,0,0,0,9.2,26.7c0,16.4,21.7,30.7,21.7,30.7S52.6,43.1,52.6,26.6A21.72,21.72,0,0,0,30.9,5Zm0,38.5A16.9,16.9,0,1,1,47.8,26.6,16.88,16.88,0,0,1,30.9,43.5Z"/><path class="cls-4" d="M31.1,25.35a6.17,6.17,0,1,0-6.17-6.17A6.17,6.17,0,0,0,31.1,25.35Zm4.62,1.57-2.3,9.23L31.87,29.6l1.55-2.7H28.79l1.54,2.7-1.54,6.55-2.3-9.23a6.47,6.47,0,0,0-6.18,6.45v2a2.3,2.3,0,0,0,2.31,2.31h17a2.31,2.31,0,0,0,2.31-2.31v-2a6.47,6.47,0,0,0-6.18-6.45Z"/></g></svg>