<svg xmlns="http://www.w3.org/2000/svg" viewBox="0 0 62.4 62.4"><defs><style>.cls-1{fill:#fff;}.cls-2{fill:#f2ecd6;isolation:isolate;}.cls-3{fill:#d49f00;}.cls-4{fill:#eaa200;stroke:#826200;stroke-miterlimit:10;stroke-width:0.25px;opacity:0.8;}</style></defs><title>workOnTheRoad</title><g id="glow"><path class="cls-1" d="M30.9,2A24.48,24.48,0,0,0,6.4,26.54C6.4,45.05,30.9,61.2,30.9,61.2S55.4,45.05,55.4,26.42A24.52,24.52,0,0,0,30.9,2Zm0,43.46A19.08,19.08,0,1,1,50,26.42,19.05,19.05,0,0,1,30.9,45.5Z"/></g><g id="workOnTheRoad"><path class="cls-1" d="M30.9,3.4a23,23,0,0,0-23,23c0,17.4,23,32.57,23,32.57s23-15.17,23-32.68A23.05,23.05,0,0,0,30.9,3.4Zm0,40.85A17.93,17.93,0,1,1,48.83,26.32,17.91,17.91,0,0,1,30.9,44.25Z"/><circle class="cls-2" cx="30.9" cy="26.6" r="16.9"/><path class="cls-3" d="M30.9,5A21.68,21.68,0,0,0,9.2,26.7c0,16.4,21.7,30.7,21.7,30.7S52.6,43.1,52.6,26.6A21.72,21.72,0,0,0,30.9,5Zm0,38.5A16.9,16.9,0,1,1,47.8,26.6,16.88,16.88,0,0,1,30.9,43.5Z"/><path class="cls-4" d="M42.54,31.29h-.6v-4.1a1.82,1.82,0,0,0-.54-1.28l-3.78-3.79a1.83,1.83,0,0,0-1.29-.53H34.66V19.77A1.81,1.81,0,0,0,32.84,18H20.72a1.81,1.81,0,0,0-1.82,1.82V31.89a1.81,1.81,0,0,0,1.82,1.82h.61a3.64,3.64,0,1,0,7.27,0h4.85a3.64,3.64,0,1,0,7.28,0h1.81a.6.6,0,0,0,.61-.6V31.89A.6.6,0,0,0,42.54,31.29ZM25,35.53a1.82,1.82,0,1,1,1.82-1.82A1.82,1.82,0,0,1,25,35.53Zm12.13,0a1.82,1.82,0,1,1,1.82-1.82A1.81,1.81,0,0,1,37.09,35.53Zm3-7.88H34.66V23.41h1.67l3.79,3.78Z"/></g></svg>