<svg xmlns="http://www.w3.org/2000/svg" viewBox="0 0 62.4 62.4"><defs><style>.cls-1{fill:#fff;}.cls-2{fill:#d3e3e1;isolation:isolate;}.cls-3,.cls-4,.cls-5{fill:#175c54;}.cls-4{opacity:0.85;}.cls-5{opacity:0.7;}</style></defs><title>workUsual</title><g id="Layer_4" data-name="Layer 4"><path class="cls-1" d="M30.9,2A24.48,24.48,0,0,0,6.4,26.54C6.4,45.05,30.9,61.2,30.9,61.2S55.4,45.05,55.4,26.42A24.52,24.52,0,0,0,30.9,2Zm0,43.46A19.08,19.08,0,1,1,50,26.42,19.05,19.05,0,0,1,30.9,45.5Z"/></g><g id="work"><circle class="cls-2" cx="30.9" cy="26.6" r="16.9"/><path class="cls-3" d="M30.9,5A21.68,21.68,0,0,0,9.2,26.7c0,16.4,21.7,30.7,21.7,30.7S52.6,43.1,52.6,26.6A21.72,21.72,0,0,0,30.9,5Zm0,38.5A16.9,16.9,0,1,1,47.8,26.6,16.88,16.88,0,0,1,30.9,43.5Z"/><path class="cls-3" d="M41.62,19.35H34.67V16.57a.69.69,0,0,0-.69-.69H28.42a.69.69,0,0,0-.69.69v2.78H20.78a.7.7,0,0,0-.7.7v3.13a3.18,3.18,0,0,0,3.24,3.12h5.8v-1a1.39,1.39,0,0,1,1.39-1.39h1.38a1.39,1.39,0,0,1,1.39,1.39v1h5.8a3.18,3.18,0,0,0,3.24-3.12V20.05A.7.7,0,0,0,41.62,19.35Zm-8.34,0H29.12V17.27h4.16Z"/><path class="cls-4" d="M42.32,25.34v7.91a.7.7,0,0,1-.7.7H20.78a.7.7,0,0,1-.7-.7V25.34A4,4,0,0,0,23.32,27h5.8v1a1.39,1.39,0,0,0,1.39,1.39h1.38A1.39,1.39,0,0,0,33.28,28V27h5.8A4,4,0,0,0,42.32,25.34Z"/><rect class="cls-5" x="29.81" y="24.57" width="2.78" height="4.17" rx="1.31" ry="1.31"/></g></svg>