<svg xmlns="http://www.w3.org/2000/svg" viewBox="0 0 55.67 55.67"><defs><style>.cls-1{fill:#d3e3e1;isolation:isolate;}.cls-2{fill:none;stroke:#175c54;stroke-miterlimit:10;stroke-width:5px;}.cls-3,.cls-4,.cls-5{fill:#175c54;}.cls-4{opacity:0.85;}.cls-5{opacity:0.7;}</style></defs><title>workUsual</title><g id="work"><circle class="cls-1" cx="27.83" cy="27.83" r="21.2"/><circle class="cls-2" cx="27.83" cy="27.83" r="23.8"/><path class="cls-3" d="M40.49,19.89H32.05V16.51a.85.85,0,0,0-.84-.84H24.46a.85.85,0,0,0-.85.84v3.38H15.18a.85.85,0,0,0-.85.84v3.8a3.89,3.89,0,0,0,3.94,3.8h7V27.06A1.69,1.69,0,0,1,27,25.37h1.69a1.69,1.69,0,0,1,1.68,1.69v1.27h7a3.88,3.88,0,0,0,3.93-3.8v-3.8A.84.84,0,0,0,40.49,19.89Zm-10.13,0H25.3V17.36h5.06Z"/><path class="cls-4" d="M41.33,27.16v9.6a.84.84,0,0,1-.84.85H15.18a.85.85,0,0,1-.85-.85v-9.6a4.81,4.81,0,0,0,3.94,2h7v1.27A1.69,1.69,0,0,0,27,32.12h1.69a1.68,1.68,0,0,0,1.68-1.68V29.17h7A4.79,4.79,0,0,0,41.33,27.16Z"/><rect class="cls-5" x="26.15" y="26.22" width="3.37" height="5.06" rx="1.31" ry="1.31"/></g></svg>