<svg xmlns="http://www.w3.org/2000/svg" viewBox="0 0 55.67 55.67"><defs><style>.cls-1{fill:#eddde9;isolation:isolate;}.cls-2{fill:none;stroke:#933476;stroke-miterlimit:10;stroke-width:5px;}.cls-3{fill:#933476;opacity:0.8;}</style></defs><title>workNotUsual</title><g id="workNotUsual"><circle class="cls-1" cx="27.83" cy="27.83" r="21.2"/><circle class="cls-2" cx="27.83" cy="27.83" r="23.8"/><path class="cls-3" d="M28,26.7a7.48,7.48,0,1,0-7.47-7.47A7.47,7.47,0,0,0,28,26.7Zm5.6,1.91L30.76,39.79l-1.87-7.95,1.87-3.27H25.15L27,31.84l-1.87,8L22.36,28.61a7.83,7.83,0,0,0-7.49,7.81v2.43a2.8,2.8,0,0,0,2.8,2.81H38.23A2.81,2.81,0,0,0,41,38.85V36.42a7.84,7.84,0,0,0-7.49-7.81Z"/></g></svg>