<svg xmlns="http://www.w3.org/2000/svg" viewBox="0 0 53 53"><defs><style>.cls-1{fill:#d49f00;}</style></defs><title>workOnTheRoad</title><g id="workOnTheRoad"><path class="cls-1" d="M48.14,34.44H47V27a3.33,3.33,0,0,0-1-2.34l-6.9-6.91a3.35,3.35,0,0,0-2.35-1H33.76V13.42a3.32,3.32,0,0,0-3.32-3.32H8.32A3.32,3.32,0,0,0,5,13.42V35.54a3.32,3.32,0,0,0,3.32,3.32h1.1a6.64,6.64,0,0,0,13.28,0h8.85a6.64,6.64,0,0,0,13.28,0h3.31a1.11,1.11,0,0,0,1.11-1.1V35.54A1.11,1.11,0,0,0,48.14,34.44ZM16.06,42.18a3.32,3.32,0,1,1,3.32-3.32A3.32,3.32,0,0,1,16.06,42.18Zm22.13,0a3.32,3.32,0,1,1,3.32-3.32A3.32,3.32,0,0,1,38.19,42.18ZM43.72,27.8h-10V20.06h3.05L43.72,27Z"/></g></svg>