<svg xmlns="http://www.w3.org/2000/svg" viewBox="0 0 55.67 55.67"><defs><style>.cls-1{fill:#f2ecd6;isolation:isolate;}.cls-2{fill:none;stroke:#d49f00;stroke-width:5px;}.cls-2,.cls-3{stroke-miterlimit:10;}.cls-3{fill:#eaa200;stroke:#826200;stroke-width:0.25px;opacity:0.8;}</style></defs><title>workOnTheRoad</title><g id="workOnTheRoad"><circle class="cls-1" cx="27.83" cy="27.83" r="21.2"/><circle class="cls-2" cx="27.83" cy="27.83" r="23.8"/><path class="cls-3" d="M43.69,33.34h-.8V27.89a2.45,2.45,0,0,0-.71-1.71l-5-5a2.39,2.39,0,0,0-1.71-.71H33.21V18a2.42,2.42,0,0,0-2.42-2.42H14.67A2.42,2.42,0,0,0,12.25,18V34.14a2.42,2.42,0,0,0,2.42,2.42h.8a4.84,4.84,0,0,0,9.68,0H31.6a4.84,4.84,0,0,0,9.68,0h2.41a.8.8,0,0,0,.81-.8V34.14A.8.8,0,0,0,43.69,33.34ZM20.31,39a2.42,2.42,0,1,1,2.42-2.42A2.42,2.42,0,0,1,20.31,39Zm16.13,0a2.42,2.42,0,1,1,2.42-2.42A2.42,2.42,0,0,1,36.44,39Zm4-10.48H33.21V22.86h2.22l5,5Z"/></g></svg>