<svg xmlns="http://www.w3.org/2000/svg" viewBox="0 0 53 53"><defs><style>.cls-1,.cls-2,.cls-3{fill:#175c54;}.cls-2{opacity:0.85;}.cls-3{opacity:0.7;}</style></defs><title>workUsual</title><g id="work"><path class="cls-1" d="M46.2,15.3H33.07V10.05a1.31,1.31,0,0,0-1.31-1.31H21.26A1.31,1.31,0,0,0,20,10.05V15.3H6.82a1.31,1.31,0,0,0-1.31,1.31v5.91a6,6,0,0,0,6.12,5.91H22.57v-2a2.63,2.63,0,0,1,2.63-2.63h2.62a2.63,2.63,0,0,1,2.63,2.63v2H41.39a6,6,0,0,0,6.12-5.91V16.61A1.31,1.31,0,0,0,46.2,15.3Zm-15.75,0H22.57V11.36h7.88Z"/><path class="cls-2" d="M47.51,26.61V41.55a1.31,1.31,0,0,1-1.31,1.31H6.82a1.31,1.31,0,0,1-1.31-1.31V26.61a7.49,7.49,0,0,0,6.12,3.13H22.57v2a2.62,2.62,0,0,0,2.63,2.62h2.62a2.62,2.62,0,0,0,2.63-2.62v-2H41.39A7.52,7.52,0,0,0,47.51,26.61Z"/><rect class="cls-3" x="23.88" y="25.14" width="5.25" height="7.88" rx="1.31" ry="1.31"/></g></svg>