<svg xmlns="http://www.w3.org/2000/svg" viewBox="0 0 55.67 55.67"><defs><style>.cls-1{fill:#ebe9f2;isolation:isolate;}.cls-2{fill:none;stroke:#37245b;stroke-miterlimit:10;stroke-width:5px;}.cls-3{opacity:0.8;}.cls-4{fill:#37245b;}</style></defs><title>worship</title><g id="worship"><circle class="cls-1" cx="27.83" cy="27.83" r="21.2"/><circle class="cls-2" cx="27.83" cy="27.83" r="23.8"/><g class="cls-3"><path class="cls-4" d="M41.13,17.27l-9.83-6a7.54,7.54,0,0,0-7.28,0l-9.82,6a1.3,1.3,0,1,0,1.36,2.22l9.83-6a4.88,4.88,0,0,1,4.55,0l9.82,6a1.33,1.33,0,0,0,.69.19,1.3,1.3,0,0,0,.68-2.41Z"/><path class="cls-4" d="M34.57,42.08H29.78l4.92-5.39h0a1.83,1.83,0,0,0,.55-1.53A33.82,33.82,0,0,0,33,27.31c-.45-1.21-1.73-2.33-2.94-2-.6.15-.89.21-1.48.37a1.64,1.64,0,0,0-.52.23l-4.21,2.32-2.42-2.92A1.34,1.34,0,0,0,19.41,27l3.13,3.76h0a1.32,1.32,0,0,0,1.66.31l3.12-1.72c.67,2.62.74,3.89,1.51,7.41a2.13,2.13,0,0,0,.07.27h0l-3.77,5.6-.05.07-.08.11a.8.8,0,0,0-.08.16.3.3,0,0,0,0,.1.6.6,0,0,0-.06.19.29.29,0,0,0,0,.09,1.5,1.5,0,0,0,0,.22s0,0,0,0v0a1.64,1.64,0,0,0,0,.23s0,.05,0,.08a1.72,1.72,0,0,0,.07.21l0,.07a1.14,1.14,0,0,0,.1.19l.05.07a.88.88,0,0,0,.12.15l.07.08.07.06s.06,0,.08.06l.09.06.18.1.08,0a.73.73,0,0,0,.21.06l.07,0,.23,0h8.3a1.53,1.53,0,1,0,0-3.06Z"/><circle class="cls-4" cx="27.74" cy="21.06" r="3.64"/></g></g></svg>