<svg xmlns="http://www.w3.org/2000/svg" viewBox="0 0 62.4 62.4"><defs><style>.cls-1{fill:#fff;}.cls-2{fill:#ebe9f2;isolation:isolate;}.cls-3{fill:#37245b;}.cls-4{opacity:0.8;}</style></defs><title>worship</title><g id="glow"><path class="cls-1" d="M30.9,2A24.48,24.48,0,0,0,6.4,26.54C6.4,45.05,30.9,61.2,30.9,61.2S55.4,45.05,55.4,26.42A24.52,24.52,0,0,0,30.9,2Zm0,43.46A19.08,19.08,0,1,1,50,26.42,19.05,19.05,0,0,1,30.9,45.5Z"/></g><g id="worship"><path class="cls-1" d="M30.9,3.4a23,23,0,0,0-23,23c0,17.4,23,32.57,23,32.57s23-15.17,23-32.68A23.05,23.05,0,0,0,30.9,3.4Zm0,40.85A17.93,17.93,0,1,1,48.83,26.32,17.91,17.91,0,0,1,30.9,44.25Z"/><circle class="cls-2" cx="30.9" cy="26.6" r="16.9"/><path class="cls-3" d="M30.9,5A21.68,21.68,0,0,0,9.2,26.7c0,16.4,21.7,30.7,21.7,30.7S52.6,43.1,52.6,26.6A21.72,21.72,0,0,0,30.9,5Zm0,38.5A16.9,16.9,0,1,1,47.8,26.6,16.88,16.88,0,0,1,30.9,43.5Z"/><g class="cls-4"><path class="cls-3" d="M41.54,18.34l-7.6-4.67a5.81,5.81,0,0,0-5.63,0l-7.6,4.67a1,1,0,0,0-.34,1.39,1,1,0,0,0,1.39.33l7.6-4.68a3.86,3.86,0,0,1,3.53,0l7.6,4.68a1,1,0,0,0,.52.15,1,1,0,0,0,.53-1.87Z"/><path class="cls-3" d="M36.47,37.54H32.76l3.81-4.17h0A1.47,1.47,0,0,0,37,32.18a26.49,26.49,0,0,0-1.72-6.07C34.94,25.17,34,24.3,33,24.54l-1.15.29a1.32,1.32,0,0,0-.4.18l-3.25,1.8-1.88-2.26a1,1,0,0,0-1.59,1.32l2.42,2.91h0a1,1,0,0,0,1.28.24l2.41-1.34c.52,2,.58,3,1.17,5.74l.06.21h0L29.17,38a.1.1,0,0,1,0,0l-.06.09-.06.12,0,.08a.88.88,0,0,0-.05.15.13.13,0,0,0,0,.06,1.1,1.1,0,0,0,0,.18v.06a1.11,1.11,0,0,0,0,.17.13.13,0,0,0,0,.06.75.75,0,0,0,.05.16.14.14,0,0,0,0,.06.64.64,0,0,0,.08.14l0,.06.1.12.06.06.05.05.07,0,.06,0,.14.07.06,0,.16,0h.06l.18,0h6.42a1.18,1.18,0,0,0,0-2.36Z"/><circle class="cls-3" cx="31.19" cy="21.27" r="2.82"/></g></g></svg>