<svg xmlns="http://www.w3.org/2000/svg" viewBox="0 0 53 53"><defs><style>.cls-1{fill:#37245b;}</style></defs><title>worship</title><g id="worship"><path class="cls-1" d="M41.26,13.73,29.51,6.51a9,9,0,0,0-8.7,0L9.07,13.73a1.56,1.56,0,1,0,1.63,2.65L22.44,9.16a5.88,5.88,0,0,1,5.44,0l11.75,7.22a1.49,1.49,0,0,0,.81.23,1.56,1.56,0,0,0,.82-2.88Z"/><path class="cls-1" d="M33.42,43.39H27.69L33.58,37h0a2.25,2.25,0,0,0,.65-1.84,40.18,40.18,0,0,0-2.65-9.38c-.53-1.45-2.06-2.79-3.51-2.42l-1.77.45a2,2,0,0,0-.62.27l-5,2.78-2.9-3.49a1.6,1.6,0,0,0-2.46,2L19,29.86h0a1.59,1.59,0,0,0,2,.37l3.73-2.06c.81,3.13.88,4.65,1.8,8.86a3,3,0,0,0,.1.32h0L22.14,44a.56.56,0,0,1-.05.08l-.1.14a1.51,1.51,0,0,0-.09.18l-.06.13-.07.22a.43.43,0,0,1,0,.11,2.28,2.28,0,0,0,0,.26.09.09,0,0,0,0,.05v0l0,.28s0,.06,0,.09a1.44,1.44,0,0,0,.08.25l0,.09.12.22.06.09c0,.06.1.12.15.18l.09.09a.46.46,0,0,0,.07.07l.11.08.1.06a1.13,1.13,0,0,0,.21.12l.1,0,.24.08.1,0,.27,0h9.92a1.83,1.83,0,1,0,0-3.65Z"/><circle class="cls-1" cx="25.26" cy="18.26" r="4.35"/></g></svg>