<?xml version="1.0" standalone="no"?>
<!DOCTYPE svg PUBLIC "-//W3C//DTD SVG 20010904//EN"
 "http://www.w3.org/TR/2001/REC-SVG-20010904/DTD/svg10.dtd">
<svg version="1.0" xmlns="http://www.w3.org/2000/svg"
 width="128.000000pt" height="128.000000pt" viewBox="0 0 128.000000 128.000000"
 preserveAspectRatio="xMidYMid meet">
<metadata>
Created by potrace 1.11, written by Peter Selinger 2001-2013
</metadata>
<g transform="translate(0.000000,128.000000) scale(0.100000,-0.100000)"
fill="#000000" stroke="none">
<path d="M543 1225 c-73 -37 -106 -89 -111 -175 -6 -97 31 -161 117 -205 44
-22 138 -22 185 0 70 34 126 119 126 194 0 157 -172 258 -317 186z m167 -55
c19 -19 28 -70 12 -70 -4 0 -13 14 -19 30 -10 28 -15 30 -62 30 -27 0 -52 -4
-55 -9 -3 -4 6 -6 19 -3 16 3 25 0 25 -9 0 -10 3 -10 12 -1 26 26 62 7 51 -25
-5 -15 -39 -17 -48 -3 -4 6 -13 5 -26 -3 -17 -10 -22 -9 -35 7 -12 17 -14 18
-14 3 0 -9 -4 -17 -10 -17 -18 0 -11 49 10 70 15 15 33 20 70 20 37 0 55 -5
70 -20z m58 -89 c9 -5 12 -25 10 -62 l-3 -54 -135 0 -135 0 -3 54 c-2 37 1 57
10 62 7 5 65 9 128 9 63 0 121 -4 128 -9z m-188 -156 c0 -18 -5 -25 -20 -25
-15 0 -20 7 -20 25 0 18 5 25 20 25 15 0 20 -7 20 -25z m160 0 c0 -18 -5 -25
-20 -25 -15 0 -20 7 -20 25 0 18 5 25 20 25 15 0 20 -7 20 -25z"/>
<path d="M543 1034 c-7 -19 11 -39 26 -30 16 10 13 33 -4 40 -9 3 -18 -1 -22
-10z"/>
<path d="M711 1040 c-17 -10 -7 -40 14 -40 8 0 15 9 15 19 0 24 -12 32 -29 21z"/>
<path d="M633 1033 c9 -2 23 -2 30 0 6 3 -1 5 -18 5 -16 0 -22 -2 -12 -5z"/>
<path d="M172 827 c-86 -32 -141 -111 -142 -205 -1 -196 247 -287 378 -137 43
48 52 74 52 141 0 148 -148 251 -288 201z m146 -63 c2 -11 -3 -26 -11 -33 -29
-24 -70 17 -46 46 17 20 53 12 57 -13z m-3 -66 c19 -2 30 -9 30 -18 0 -22 -72
-26 -95 -5 -14 13 -20 13 -26 4 -4 -8 1 -18 14 -27 18 -12 22 -24 22 -63 0
-42 -3 -49 -20 -49 -16 0 -20 7 -20 37 0 26 -8 45 -27 65 l-27 28 34 35 33 34
26 -19 c15 -10 40 -20 56 -22z m-125 -78 c43 -43 11 -120 -50 -120 -38 0 -70
32 -70 70 0 38 32 70 70 70 17 0 39 -9 50 -20z m200 0 c11 -11 20 -33 20 -50
0 -17 -9 -39 -20 -50 -42 -42 -120 -12 -120 47 0 61 78 95 120 53z"/>
<path d="M106 604 c-20 -19 -21 -58 -2 -73 25 -21 69 -9 80 21 17 50 -42 89
-78 52z"/>
<path d="M305 600 c-24 -27 -13 -68 22 -76 33 -9 57 6 61 38 6 50 -49 76 -83
38z"/>
<path d="M925 801 c-134 -77 -140 -271 -11 -358 56 -37 155 -44 212 -15 208
107 136 402 -98 402 -40 0 -65 -7 -103 -29z m203 -53 c8 -8 12 -46 12 -103 0
-79 -3 -94 -20 -110 -14 -12 -18 -25 -14 -41 8 -32 -9 -31 -26 1 -11 20 -21
25 -51 25 -31 0 -38 -4 -43 -25 -4 -14 -13 -25 -21 -25 -18 0 -18 5 -5 30 8
15 6 21 -10 30 -18 10 -20 21 -20 108 0 63 4 102 12 110 7 7 43 12 93 12 50 0
86 -5 93 -12z"/>
<path d="M960 685 l0 -46 73 3 72 3 0 40 0 40 -72 3 -73 3 0 -46z m125 -10 c0
-13 -8 -21 -22 -23 -17 -3 -23 2 -23 16 0 10 3 22 7 26 13 13 38 1 38 -19z"/>
<path d="M962 573 c4 -21 33 -25 33 -3 0 8 -8 16 -18 18 -14 3 -18 -1 -15 -15z"/>
<path d="M1074 579 c-10 -17 13 -36 27 -22 12 12 4 33 -11 33 -5 0 -12 -5 -16
-11z"/>
<path d="M550 439 c-84 -38 -130 -104 -132 -187 -2 -70 18 -115 71 -165 105
-98 264 -75 337 49 104 177 -89 388 -276 303z m115 -79 c0 -20 -6 -26 -26 -28
-17 -2 -29 3 -32 12 -11 28 4 47 32 44 20 -2 26 -8 26 -28z m3 -75 c11 -14 30
-25 42 -25 30 0 23 -34 -8 -38 -35 -5 -92 54 -77 78 10 16 22 12 43 -15z m62
-162 c0 -26 -36 -12 -64 24 l-30 36 -31 -36 c-29 -34 -65 -49 -65 -28 0 4 18
31 40 59 22 27 40 56 40 63 1 17 109 -101 110 -118z"/>
</g>
</svg>
