<svg id="default" xmlns="http://www.w3.org/2000/svg" viewBox="0 0 62.4 62.4"><defs><style>.cls-1{fill:#fff;}.cls-2{fill:#f9ffe9;}.cls-3{fill:#0dce28;}.cls-4{fill:#1ba51e;isolation:isolate;opacity:0.75;}</style></defs><path class="cls-1" d="M30.84,0A25.56,25.56,0,0,0,5.26,25.56v.05c0,19.33,25.58,36.19,25.58,36.19S56.42,44.94,56.42,25.49A25.61,25.61,0,0,0,30.84,0Zm0,45.39A19.93,19.93,0,1,1,50.76,25.49h0A19.89,19.89,0,0,1,30.89,45.41Z"/><path class="cls-1" d="M30.84,3.11a23,23,0,0,0-23,23h0c0,17.4,23,32.58,23,32.58s23-15.18,23-32.68A23,23,0,0,0,30.84,3.11Zm0,40.85a13.57,13.57,0,1,1,.09,0h-.09Z"/><circle class="cls-2" cx="30.84" cy="26.31" r="16.9"/><path class="cls-3" d="M30.84,4.71A21.68,21.68,0,0,0,9.14,26.37v0c0,16.4,21.7,30.7,21.7,30.7s21.7-14.3,21.7-30.8A21.72,21.72,0,0,0,30.84,4.71Zm0,38.5a16.9,16.9,0,1,1,16.9-16.9h0a16.88,16.88,0,0,1-16.86,16.9Z"/><path class="cls-4" d="M41.68,24.24l1.26,1.25a1.36,1.36,0,0,1,0,1.92l-11,11a1.35,1.35,0,0,1-1.91,0h0l-11-11a1.36,1.36,0,0,1,0-1.92l1.25-1.25a1.36,1.36,0,0,1,1.92,0l0,0,6.48,6.81V14.83a1.34,1.34,0,0,1,1.35-1.35h1.82a1.34,1.34,0,0,1,1.35,1.33V31.07l6.49-6.81a1.34,1.34,0,0,1,1.89,0l0,0Z"/></svg>