<svg id="default" xmlns="http://www.w3.org/2000/svg" viewBox="0 0 55.67 55.67"><defs><style>.cls-1{fill:#ffece6;isolation:isolate;}.cls-2{fill:none;stroke:#fc4d00;stroke-miterlimit:10;stroke-width:5px;}.cls-3{fill:#fc4d00;opacity:0.75;}</style></defs><title>default</title><circle class="cls-1" cx="27.77" cy="27.54" r="21.2"/><circle class="cls-2" cx="27.77" cy="27.54" r="23.8"/><path class="cls-3" d="M39.72,25.58,41.15,27a1.53,1.53,0,0,1,0,2.17L28.69,41.64a1.53,1.53,0,0,1-2.17,0L14.06,29.18a1.53,1.53,0,0,1,0-2.17l1.42-1.43a1.55,1.55,0,0,1,2.2,0L25,33.33V14.91a1.54,1.54,0,0,1,1.54-1.54h2.05a1.54,1.54,0,0,1,1.54,1.54V33.33l7.35-7.72a1.53,1.53,0,0,1,2.2,0Z"/></svg>