<svg id="default" xmlns="http://www.w3.org/2000/svg" viewBox="0 0 62.4 62.4"><defs><style>.cls-1{fill:#fff;}.cls-2{fill:#ffece6;isolation:isolate;}.cls-3,.cls-4{fill:#fc4d00;}.cls-4{opacity:0.75;}</style></defs><title>default</title><path class="cls-1" d="M30.84,3.11a23,23,0,0,0-23,23c0,17.4,23,32.58,23,32.58s23-15.18,23-32.68A23,23,0,0,0,30.84,3.11Zm0,40.85A17.93,17.93,0,1,1,48.77,26,17.92,17.92,0,0,1,30.84,44Z"/><circle class="cls-2" cx="30.84" cy="26.31" r="16.9"/><path class="cls-3" d="M30.84,4.71a21.68,21.68,0,0,0-21.7,21.7c0,16.4,21.7,30.7,21.7,30.7s21.7-14.3,21.7-30.8A21.72,21.72,0,0,0,30.84,4.71Zm0,38.5a16.9,16.9,0,1,1,16.9-16.9A16.88,16.88,0,0,1,30.84,43.21Z"/><path class="cls-4" d="M41.68,24.24l1.26,1.25a1.36,1.36,0,0,1,0,1.92l-11,11a1.35,1.35,0,0,1-1.91,0l-11-11a1.36,1.36,0,0,1,0-1.92l1.25-1.25a1.36,1.36,0,0,1,1.94,0l6.48,6.81V14.83a1.35,1.35,0,0,1,1.36-1.35h1.81a1.34,1.34,0,0,1,1.35,1.35V31.07l6.49-6.81a1.34,1.34,0,0,1,1.93,0Z"/></svg>