<?xml version="1.0" encoding="iso-8859-1"?>
<!-- Generator: Adobe Illustrator 17.1.0, SVG Export Plug-In . SVG Version: 6.00 Build 0)  -->
<!DOCTYPE svg PUBLIC "-//W3C//DTD SVG 1.1//EN" "http://www.w3.org/Graphics/SVG/1.1/DTD/svg11.dtd">
<svg version="1.1" id="Capa_1" xmlns="http://www.w3.org/2000/svg" xmlns:xlink="http://www.w3.org/1999/xlink" x="0px" y="0px"
	 viewBox="0 0 202.918 202.918" style="enable-background:new 0 0 202.918 202.918;" xml:space="preserve">
<path d="M185.815,168.463c-0.641,2.686-3.338,4.348-6.023,3.703c-2.687-0.641-4.345-3.338-3.703-6.023
	c2.783-11.662,1.322-21.9-3.907-27.386c-3.482-3.652-8.442-4.899-14.737-3.716c-12.512,2.359-20.484,13.166-29.716,25.68
	c-7.73,10.477-16.491,22.352-29.351,30.305c-12.503,7.732-26.774,11.893-40.589,11.893c-1.304,0-2.602-0.036-3.895-0.111
	c-15.025-0.866-27.414-6.857-33.988-16.438c-8.301-12.096-3.537-24.684,2.934-33.277l-5.057-6.758
	c-3.798-5.074-2.803-12.353,2.218-16.223l32.649-25.162c2.058-1.587,4.518-2.426,7.113-2.426c3.659,0,7.151,1.748,9.342,4.675
	l12.042,16.092c9.594-4.324,20.569-11.658,32.472-23.738c12.029-12.207,19.245-23.423,23.482-33.092l-16.074-12.388
	c-5.022-3.87-6.017-11.148-2.218-16.224l24.825-33.175C145.825,1.748,149.317,0,152.976,0c2.596,0,5.055,0.839,7.114,2.426
	l18.787,14.479c0.024,0.019,0.042,0.043,0.066,0.062c0.145,0.118,0.275,0.249,0.405,0.382c0.117,0.117,0.235,0.23,0.338,0.356
	c0.07,0.086,0.128,0.179,0.191,0.27c0.136,0.191,0.265,0.384,0.371,0.589c0.024,0.048,0.043,0.098,0.066,0.146
	c0.125,0.261,0.229,0.528,0.307,0.804c0.002,0.006,0.005,0.012,0.007,0.018c0.475,1.748,10.961,43.469-45.93,101.204
	c-40.888,41.493-73.748,47.69-89.697,47.69c-0.001,0-0.001,0-0.002,0c-6.224-0.001-9.797-0.948-10.184-1.057
	c-0.011-0.003-0.02-0.009-0.03-0.012c-0.264-0.077-0.515-0.179-0.761-0.298c-0.07-0.033-0.143-0.061-0.211-0.098
	c-0.185-0.1-0.357-0.218-0.528-0.341c-0.109-0.077-0.22-0.15-0.322-0.235c-0.117-0.099-0.223-0.211-0.331-0.321
	c-0.132-0.133-0.261-0.265-0.377-0.411c-0.023-0.03-0.053-0.052-0.075-0.082l-3.043-4.067c-3.37,5.259-5.698,12.339-0.986,19.204
	c9.55,13.914,39.363,17.646,64.967,1.809c11.218-6.937,19.019-17.511,26.564-27.736c10.047-13.618,19.537-26.481,35.909-29.568
	c9.564-1.803,18.026,0.555,23.829,6.643C186.998,139.806,189.389,153.49,185.815,168.463z"/>
<g>
</g>
<g>
</g>
<g>
</g>
<g>
</g>
<g>
</g>
<g>
</g>
<g>
</g>
<g>
</g>
<g>
</g>
<g>
</g>
<g>
</g>
<g>
</g>
<g>
</g>
<g>
</g>
<g>
</g>
</svg>
