<?xml version="1.0" encoding="utf-8"?>
<!-- Generator: Adobe Illustrator 22.0.1, SVG Export Plug-In . SVG Version: 6.00 Build 0)  -->
<svg version="1.1" id="Layer_1" xmlns="http://www.w3.org/2000/svg" xmlns:xlink="http://www.w3.org/1999/xlink" x="0px" y="0px"
	 viewBox="0 0 8.7 498" style="enable-background:new 0 0 8.7 498;" xml:space="preserve">
<style type="text/css">
	.st0{fill:#FFFFFF;}
</style>
<g>
	<g>
		<path class="st0" d="M1,1.3c9.6,0.5,7.2,14.4-0.2,16.3c-0.6,0.2-0.6,1.1,0,1.2c9,1.8,9,14.9,0,16.6c-0.8,0.2-0.5,1.4,0.3,1.2
			c10.2-2,10.2-17.1,0-19.1c0,0.4,0,0.8,0,1.2C10.3,16.4,11.9,0.5,1,0C0.2,0,0.2,1.3,1,1.3L1,1.3z"/>
		<path class="st0" d="M1,36.8c9.6,0.5,7.2,14.4-0.2,16.3c-0.6,0.2-0.6,1.1,0,1.2c9,1.8,9,14.9,0,16.6c-0.8,0.2-0.5,1.4,0.3,1.2
			c10.2-2,10.2-17.1,0-19.1c0,0.4,0,0.8,0,1.2C10.3,51.9,11.9,36,1,35.5C0.2,35.4,0.2,36.7,1,36.8L1,36.8z"/>
		<path class="st0" d="M0.9,72.2c9.6,0.5,7.2,14.4-0.2,16.3c-0.6,0.2-0.6,1.1,0,1.2c9,1.8,9,14.9,0,16.6c-0.8,0.2-0.5,1.4,0.3,1.2
			c10.2-2,10.2-17.1,0-19.1c0,0.4,0,0.8,0,1.2c9.2-2.4,10.7-18.4-0.2-18.9C0.1,70.9,0.1,72.2,0.9,72.2L0.9,72.2z"/>
		<path class="st0" d="M0.9,107.7c9.6,0.5,7.2,14.4-0.2,16.3c-0.6,0.2-0.6,1.1,0,1.2c9,1.8,9,14.9,0,16.6c-0.8,0.2-0.5,1.4,0.3,1.2
			c10.2-2,10.2-17.1,0-19.1c0,0.4,0,0.8,0,1.2c9.2-2.4,10.7-18.4-0.2-18.9C0.1,106.4,0.1,107.7,0.9,107.7L0.9,107.7z"/>
		<path class="st0" d="M0.9,143.2c9.6,0.5,7.2,14.4-0.2,16.3c-0.6,0.2-0.6,1.1,0,1.2c9,1.8,9,14.9,0,16.6c-0.8,0.2-0.5,1.4,0.3,1.2
			c10.2-2,10.2-17.1,0-19.1c0,0.4,0,0.8,0,1.2c9.2-2.4,10.7-18.4-0.2-18.9C0.1,141.8,0.1,143.1,0.9,143.2L0.9,143.2z"/>
		<path class="st0" d="M0.9,178.6c9.6,0.5,7.2,14.4-0.2,16.3c-0.6,0.2-0.6,1.1,0,1.2c9,1.8,9,14.9,0,16.6c-0.8,0.2-0.5,1.4,0.3,1.2
			c10.2-2,10.2-17.1,0-19.1c0,0.4,0,0.8,0,1.2c9.2-2.4,10.7-18.4-0.2-18.9C0.1,177.3,0.1,178.6,0.9,178.6L0.9,178.6z"/>
		<path class="st0" d="M0.8,214.1c9.6,0.5,7.2,14.4-0.2,16.3c-0.6,0.2-0.6,1.1,0,1.2c9,1.8,9,14.9,0,16.6c-0.8,0.2-0.5,1.4,0.3,1.2
			c10.2-2,10.2-17.1,0-19.1c0,0.4,0,0.8,0,1.2c9.2-2.4,10.7-18.4-0.2-18.9C0,212.8,0,214.1,0.8,214.1L0.8,214.1z"/>
		<path class="st0" d="M0.8,249.6C10.4,250,8,264,0.7,265.9c-0.6,0.2-0.6,1.1,0,1.2c9,1.8,9,14.9,0,16.6c-0.8,0.2-0.5,1.4,0.3,1.2
			c10.2-2,10.2-17.1,0-19.1c0,0.4,0,0.8,0,1.2c9.2-2.4,10.7-18.4-0.2-18.9C0,248.3,0,249.5,0.8,249.6L0.8,249.6z"/>
		<path class="st0" d="M0.7,285.1c9.6,0.5,7.2,14.4-0.2,16.3c-0.6,0.2-0.6,1.1,0,1.2c9,1.8,9,14.9,0,16.6c-0.8,0.2-0.5,1.4,0.3,1.2
			c10.2-2,10.2-17.1,0-19.1c0,0.4,0,0.8,0,1.2c9.2-2.4,10.7-18.4-0.2-18.9C-0.2,283.7-0.2,285,0.7,285.1L0.7,285.1z"/>
		<path class="st0" d="M0.7,320.5c9.6,0.5,7.2,14.4-0.2,16.3c-0.6,0.2-0.6,1.1,0,1.2c9,1.8,9,14.9,0,16.6c-0.8,0.2-0.5,1.4,0.3,1.2
			c10.2-2,10.2-17.1,0-19.1c0,0.4,0,0.8,0,1.2c9.2-2.4,10.7-18.4-0.2-18.9C-0.2,319.2-0.2,320.5,0.7,320.5L0.7,320.5z"/>
		<path class="st0" d="M0.7,356c9.6,0.5,7.2,14.4-0.2,16.3c-0.6,0.2-0.6,1.1,0,1.2c9,1.8,9,14.9,0,16.6c-0.8,0.2-0.5,1.4,0.3,1.2
			c10.2-2,10.2-17.1,0-19.1c0,0.4,0,0.8,0,1.2c9.2-2.4,10.7-18.4-0.2-18.9C-0.2,354.7-0.2,356,0.7,356L0.7,356z"/>
		<path class="st0" d="M0.7,391.5c9.6,0.5,7.2,14.4-0.2,16.3c-0.6,0.2-0.6,1.1,0,1.2c9,1.8,9,14.9,0,16.6c-0.8,0.2-0.5,1.4,0.3,1.2
			c10.2-2,10.2-17.1,0-19.1c0,0.4,0,0.8,0,1.2c9.2-2.4,10.7-18.4-0.2-18.9C-0.2,390.1-0.2,391.4,0.7,391.5L0.7,391.5z"/>
		<path class="st0" d="M0.7,426.9c9.6,0.5,7.2,14.4-0.2,16.3c-0.6,0.2-0.6,1.1,0,1.2c9,1.8,9,14.9,0,16.6c-0.8,0.2-0.5,1.4,0.3,1.2
			c10.2-2,10.2-17.1,0-19.1c0,0.4,0,0.8,0,1.2c9.2-2.4,10.7-18.4-0.2-18.9C-0.2,425.6-0.2,426.9,0.7,426.9L0.7,426.9z"/>
		<path class="st0" d="M0.7,462.4c9.6,0.5,7.2,14.4-0.2,16.3c-0.6,0.2-0.6,1.1,0,1.2c9,1.8,9,14.9,0,16.6c-0.8,0.2-0.5,1.4,0.3,1.2
			c10.2-2,10.2-17.1,0-19.1c0,0.4,0,0.8,0,1.2c9.2-2.4,10.7-18.4-0.2-18.9C-0.2,461.1-0.2,462.4,0.7,462.4L0.7,462.4z"/>
	</g>
</g>
</svg>
