<?xml version="1.0" encoding="utf-8"?>
<!-- Generator: Adobe Illustrator 22.0.1, SVG Export Plug-In . SVG Version: 6.00 Build 0)  -->
<svg version="1.1" id="Layer_1" xmlns="http://www.w3.org/2000/svg" xmlns:xlink="http://www.w3.org/1999/xlink" x="0px" y="0px"
	 viewBox="0 0 8.7 17.5" style="enable-background:new 0 0 8.7 17.5;" xml:space="preserve">
<style type="text/css">
	.st0{opacity:0.15;}
</style>
<g class="st0">
	<g>
		<path d="M0.9,0.5C10.5,1,8.1,14.9,0.7,16.8c-0.6,0.2-0.6,1.1,0,1.2c9,1.8,9,14.9,0,16.6c-0.8,0.2-0.5,1.4,0.3,1.2
			c10.2-2,10.2-17.1,0-19.1c0,0.4,0,0.8,0,1.2c9.2-2.4,10.7-18.4-0.2-18.9C0.1-0.8,0.1,0.5,0.9,0.5L0.9,0.5z"/>
		<path d="M0.9,36c9.6,0.5,7.2,14.4-0.2,16.3c-0.6,0.2-0.6,1.1,0,1.2c9,1.8,9,14.9,0,16.6c-0.8,0.2-0.5,1.4,0.3,1.2
			c10.2-2,10.2-17.1,0-19.1c0,0.4,0,0.8,0,1.2c9.2-2.4,10.7-18.4-0.2-18.9C0.1,34.6,0.1,35.9,0.9,36L0.9,36z"/>
		<path d="M0.8,71.4c9.6,0.5,7.2,14.4-0.2,16.3C0,87.9,0,88.9,0.6,89c9,1.8,9,14.9,0,16.6c-0.8,0.2-0.5,1.4,0.3,1.2
			c10.2-2,10.2-17.1,0-19.1c0,0.4,0,0.8,0,1.2c9.2-2.4,10.7-18.4-0.2-18.9C0,70.1,0,71.4,0.8,71.4L0.8,71.4z"/>
		<path d="M0.8,106.9c9.6,0.5,7.2,14.4-0.2,16.3c-0.6,0.2-0.6,1.1,0,1.2c9,1.8,9,14.9,0,16.6c-0.8,0.2-0.5,1.4,0.3,1.2
			c10.2-2,10.2-17.1,0-19.1c0,0.4,0,0.8,0,1.2c9.2-2.4,10.7-18.4-0.2-18.9C0,105.6,0,106.9,0.8,106.9L0.8,106.9z"/>
		<path d="M0.8,142.4c9.6,0.5,7.2,14.4-0.2,16.3c-0.6,0.2-0.6,1.1,0,1.2c9,1.8,9,14.9,0,16.6c-0.8,0.2-0.5,1.4,0.3,1.2
			c10.2-2,10.2-17.1,0-19.1c0,0.4,0,0.8,0,1.2c9.2-2.4,10.7-18.4-0.2-18.9C0,141.1,0,142.3,0.8,142.4L0.8,142.4z"/>
		<path d="M0.8,177.9c9.6,0.5,7.2,14.4-0.2,16.3c-0.6,0.2-0.6,1.1,0,1.2c9,1.8,9,14.9,0,16.6c-0.8,0.2-0.5,1.4,0.3,1.2
			c10.2-2,10.2-17.1,0-19.1c0,0.4,0,0.8,0,1.2c9.2-2.4,10.7-18.4-0.2-18.9C0,176.5,0,177.8,0.8,177.9L0.8,177.9z"/>
		<path d="M0.7,213.3c9.6,0.5,7.2,14.4-0.2,16.3c-0.6,0.2-0.6,1.1,0,1.2c9,1.8,9,14.9,0,16.6c-0.8,0.2-0.5,1.4,0.3,1.2
			c10.2-2,10.2-17.1,0-19.1c0,0.4,0,0.8,0,1.2c9.2-2.4,10.7-18.4-0.2-18.9C-0.1,212-0.1,213.3,0.7,213.3L0.7,213.3z"/>
		<path d="M0.7,248.8c9.6,0.5,7.2,14.4-0.2,16.3c-0.6,0.2-0.6,1.1,0,1.2c9,1.8,9,14.9,0,16.6c-0.8,0.2-0.5,1.4,0.3,1.2
			c10.2-2,10.2-17.1,0-19.1c0,0.4,0,0.8,0,1.2c9.2-2.4,10.7-18.4-0.2-18.9C-0.1,247.5-0.1,248.8,0.7,248.8L0.7,248.8z"/>
		<path d="M0.5,284.3c9.6,0.5,7.2,14.4-0.2,16.3c-0.6,0.2-0.6,1.1,0,1.2c9,1.8,9,14.9,0,16.6c-0.8,0.2-0.5,1.4,0.3,1.2
			c10.2-2,10.2-17.1,0-19.1c0,0.4,0,0.8,0,1.2c9.2-2.4,10.7-18.4-0.2-18.9C-0.3,282.9-0.3,284.2,0.5,284.3L0.5,284.3z"/>
		<path d="M0.5,319.7c9.6,0.5,7.2,14.4-0.2,16.3c-0.6,0.2-0.6,1.1,0,1.2c9,1.8,9,14.9,0,16.6c-0.8,0.2-0.5,1.4,0.3,1.2
			c10.2-2,10.2-17.1,0-19.1c0,0.4,0,0.8,0,1.2c9.2-2.4,10.7-18.4-0.2-18.9C-0.3,318.4-0.3,319.7,0.5,319.7L0.5,319.7z"/>
		<path d="M0.5,355.2c9.6,0.5,7.2,14.4-0.2,16.3c-0.6,0.2-0.6,1.1,0,1.2c9,1.8,9,14.9,0,16.6c-0.8,0.2-0.5,1.4,0.3,1.2
			c10.2-2,10.2-17.1,0-19.1c0,0.4,0,0.8,0,1.2c9.2-2.4,10.7-18.4-0.2-18.9C-0.3,353.9-0.3,355.2,0.5,355.2L0.5,355.2z"/>
		<path d="M0.5,390.7c9.6,0.5,7.2,14.4-0.2,16.3c-0.6,0.2-0.6,1.1,0,1.2c9,1.8,9,14.9,0,16.6c-0.8,0.2-0.5,1.4,0.3,1.2
			c10.2-2,10.2-17.1,0-19.1c0,0.4,0,0.8,0,1.2c9.2-2.4,10.7-18.4-0.2-18.9C-0.3,389.3-0.3,390.6,0.5,390.7L0.5,390.7z"/>
		<path d="M0.5,426.1c9.6,0.5,7.2,14.4-0.2,16.3c-0.6,0.2-0.6,1.1,0,1.2c9,1.8,9,14.9,0,16.6c-0.8,0.2-0.5,1.4,0.3,1.2
			c10.2-2,10.2-17.1,0-19.1c0,0.4,0,0.8,0,1.2c9.2-2.4,10.7-18.4-0.2-18.9C-0.3,424.8-0.3,426.1,0.5,426.1L0.5,426.1z"/>
		<path d="M0.5,461.6c9.6,0.5,7.2,14.4-0.2,16.3c-0.6,0.2-0.6,1.1,0,1.2c9,1.8,9,14.9,0,16.6c-0.8,0.2-0.5,1.4,0.3,1.2
			c10.2-2,10.2-17.1,0-19.1c0,0.4,0,0.8,0,1.2c9.2-2.4,10.7-18.4-0.2-18.9C-0.3,460.3-0.3,461.6,0.5,461.6L0.5,461.6z"/>
	</g>
</g>
</svg>
