<?xml version="1.0" encoding="utf-8"?>
<!-- Generator: Adobe Illustrator 22.0.1, SVG Export Plug-In . SVG Version: 6.00 Build 0)  -->
<svg version="1.1" id="Layer_1" xmlns="http://www.w3.org/2000/svg" xmlns:xlink="http://www.w3.org/1999/xlink" x="0px" y="0px"
	 viewBox="0 0 192.5 37.4" style="enable-background:new 0 0 192.5 37.4;" xml:space="preserve">
<style type="text/css">
	.st0{opacity:0.15;}
</style>
<g class="st0">
	<path d="M91.2,1.3c-5.7,3.3-5.2,13.8-3.8,19.1c0.7,2.8,5.8,15.6,9.2,13.3c2.1-1.4,3.9-4.7,5.2-6.8c1.6-2.5,2.8-5.3,3.5-8.2
		c1.3-6.1,0.1-12.4-3.1-17.7c-0.4-0.6,0.6-1.2,0.9-0.5c3.2,5.4,4.5,11.7,3.4,17.9c-1.3,7-5.9,12.5-10.5,17.8c-0.2,0.2-0.6,0.2-0.8,0
		c-4.8-5.5-8.7-11.8-9.6-19.2c-0.7-5.2-0.2-13.7,5-16.6C91.3,0,91.9,1,91.2,1.3L91.2,1.3z"/>
	<path d="M95.5,35.5C90,24.6,89,12.8,92.7,1.2c0.2-0.7,1.3-0.4,1,0.3c-3.6,11.3-2.7,22.8,2.6,33.4C96.7,35.5,95.8,36.1,95.5,35.5
		L95.5,35.5z"/>
	<path d="M94.7,34.4c0.7-11,1.4-22,2.1-33c0-0.7,1.1-0.7,1.1,0c-0.7,11-1.4,22-2.1,33C95.8,35.1,94.7,35.1,94.7,34.4L94.7,34.4z"/>
	<path d="M94.7,34.1c6-9.8,7.5-21.4,4.3-32.5c-0.2-0.7,0.9-1,1-0.3c3.3,11.3,1.7,23.3-4.4,33.3C95.3,35.2,94.3,34.7,94.7,34.1
		L94.7,34.1z"/>
	<g>
		<path d="M80.6,1.1c-7.2,3.3-10.2,12-11.2,19.3c-0.1,1-1.2,5.6-0.5,6.3c1.2,1.3,3.3-0.1,4.7-0.6c4.6-1.6,9.5-3.6,12.3-7.7
			c0.4-0.6,1.3,0,0.9,0.5c-3.9,5.8-11.9,8.2-18.4,9.8c-0.3,0.1-0.7-0.2-0.7-0.5c0.3-9.8,2.1-23.4,12.4-28
			C80.7-0.1,81.3,0.8,80.6,1.1L80.6,1.1z"/>
		<path d="M68.1,27.3c4.1-9.9,9.8-18.9,17.1-26.8C85.7,0,86.4,0.8,86,1.3c-7.1,7.8-12.7,16.6-16.8,26.3C68.9,28.2,67.8,28,68.1,27.3
			L68.1,27.3z"/>
		<path d="M68.5,27.2c5.1-6.1,12-10.4,17.1-16.6c0.4-0.5,1.2,0.2,0.8,0.8c-5.1,6.2-12,10.5-17.1,16.6C68.8,28.5,68,27.7,68.5,27.2
			L68.5,27.2z"/>
		<path d="M61.6,1.4c-5.4,4.1-6.9,9.8-8.3,16.1c-0.2-0.2-0.3-0.5-0.5-0.7c5.2,0.6,12.3,1.5,16.6-2.1c0.5-0.4,1.3,0.3,0.8,0.8
			c-4.7,3.8-11.8,3-17.4,2.4c-0.4,0-0.6-0.3-0.5-0.7c1.5-6.7,3.1-12.4,8.8-16.8C61.6,0,62.1,0.9,61.6,1.4L61.6,1.4z"/>
		<path d="M53.5,16.4C58.6,7.5,66.8,1.9,76.9,0.2c0.7-0.1,1,0.9,0.3,1c-9.8,1.7-17.8,7-22.8,15.7C54,17.5,53.1,17,53.5,16.4
			L53.5,16.4z"/>
		<path d="M53.8,16.1c7-1.2,13.3-4.9,19-9.1c0.6-0.4,1.1,0.5,0.5,0.9c-5.7,4.2-12.2,7.9-19.3,9.2C53.4,17.3,53.1,16.3,53.8,16.1
			L53.8,16.1z"/>
	</g>
	<g>
		<path d="M112.4,0.2c10.2,4.7,12,18.2,12.4,28.1c0,0.4-0.4,0.6-0.7,0.5c-6.5-1.7-14.4-4-18.4-9.8c-0.4-0.6,0.5-1.1,0.9-0.5
			c2.7,4,7.2,5.9,11.5,7.5c1.5,0.5,4.2,2.2,5.5,0.8c0.7-0.7-0.4-5.3-0.5-6.3c-1-7.3-4-16-11.2-19.3C111.2,0.8,111.8-0.1,112.4,0.2
			L112.4,0.2z"/>
		<path d="M123.4,27.6c-4.1-9.7-9.7-18.5-16.8-26.3c-0.5-0.5,0.3-1.3,0.8-0.8c7.2,7.9,12.9,16.9,17.1,26.8
			C124.7,28,123.6,28.2,123.4,27.6L123.4,27.6z"/>
		<path d="M123.3,27.9c-5.1-6.1-12-10.4-17.1-16.6c-0.4-0.5,0.3-1.3,0.8-0.8c5.1,6.2,12,10.5,17.1,16.6
			C124.5,27.7,123.7,28.5,123.3,27.9L123.3,27.9z"/>
		<path d="M131.4,0.4c5.6,4.3,7.3,10.1,8.8,16.8c0.1,0.4-0.2,0.6-0.5,0.7c-5.6,0.6-12.7,1.5-17.4-2.4c-0.5-0.4,0.2-1.2,0.8-0.8
			c4.4,3.6,11.4,2.6,16.6,2.1c-0.2,0.2-0.3,0.5-0.5,0.7c-1.4-6.3-2.9-12-8.3-16.1C130.3,0.9,130.9,0,131.4,0.4L131.4,0.4z"/>
		<path d="M138.1,16.9c-5.1-8.7-13.6-14-23.5-15.8c-0.7-0.1-0.4-1.2,0.3-1C125,1.9,133.8,7.4,139,16.4
			C139.4,17,138.4,17.5,138.1,16.9L138.1,16.9z"/>
		<path d="M138.4,17.2c-7-1.2-13.6-4.3-19-8.9c-0.5-0.5,0.2-1.2,0.8-0.8c5.3,4.5,11.7,7.4,18.5,8.6
			C139.4,16.2,139.1,17.3,138.4,17.2L138.4,17.2z"/>
	</g>
	<g>
		<path d="M60.9,1.4c-5.1,4.2-10.4,10-16.9,12c-6.4,2-14.3,1.9-20.3-1.3c-2.8-1.5-5.1-3.8-7.5-5.9c-1.9-1.7-3.8-3.3-6.2-4.1
			C7,1,2.9,1.5,1.5,4.8C0.4,7.6,2,10.3,4.7,11.3c1.2,0.5,2.5,0.6,3.7-0.1c2.8-1.7,0.1-7-2.4-4.7C5.5,6.9,4.7,6.2,5.2,5.7
			c4-3.6,8.4,3.3,3.9,6.4C5.3,14.7-0.2,10.6,0,6.4c0.2-2.9,2.5-5.4,5.3-6c4.8-0.9,9,2.5,12.3,5.5c6.8,6.2,14,8.9,23.3,7.1
			c7.7-1.4,13.5-7.7,19.3-12.5C60.7,0.1,61.5,0.9,60.9,1.4L60.9,1.4z"/>
		<path d="M31.1,14.4c-4.7-0.9-8-6.4-5.3-10.8c2.6-4.2,9.9-4.2,12.6-0.2c1.2,1.8,1.4,4.1,0,5.9c-1.1,1.3-3,2.4-4.6,1.6
			c-2.9-1.3-3.3-5.3,0.2-6c0.7-0.1,1,0.9,0.3,1c-3.1,0.6-1.2,4.4,1.2,4c2.5-0.4,3.4-3.8,2.2-5.7c-1.1-1.9-3.6-2.8-5.7-2.7
			c-3.1,0.1-5.9,2-5.9,5.3c0,3.4,1.9,5.9,5.3,6.6C32,13.5,31.7,14.6,31.1,14.4L31.1,14.4z"/>
		<path d="M40.9,14.2c-1.5,0.8-2.3,2.6-1.8,4.2c-0.3-0.1-0.5-0.2-0.8-0.3c1.5-0.7,2.3-2.4,1.9-4.1c-0.2-0.7,0.9-1,1-0.3
			c0.6,2.1-0.4,4.3-2.3,5.3c-0.3,0.2-0.7,0-0.8-0.3c-0.6-2.1,0.4-4.4,2.3-5.4C41,12.9,41.5,13.8,40.9,14.2L40.9,14.2z"/>
		<path d="M49,10.6c-2.1-0.2-3.6-1.3-4.3-3.3c-0.1-0.3,0.2-0.7,0.5-0.7c2.3-0.1,4,1.1,4.7,3.3c0.2,0.7-0.8,1-1,0.3
			c-0.5-1.7-1.9-2.5-3.6-2.5c0.2-0.2,0.3-0.5,0.5-0.7c0.6,1.5,1.7,2.3,3.3,2.5C49.7,9.6,49.7,10.7,49,10.6L49,10.6z"/>
		<path d="M21.6,10.9c-1-0.3-2.2-0.5-3.1,0.2c-0.5,0.4-0.6,0.8-0.8,1.3v0.2c0-0.1,0-0.1,0,0c0,0.2-0.1,0.1-0.3-0.5
			c0.1-0.1,0.8,0.1,1,0.1c1.4,0,2.4-0.3,2.8-1.7c0.2-0.7,1.3-0.4,1,0.3c-0.5,1.7-1.7,2.4-3.5,2.5c-0.7,0-2.2,0.2-2.1-0.9
			c0.1-0.8,0.6-1.6,1.2-2.1c1.2-1,2.8-0.8,4.1-0.4C22.6,10.1,22.3,11.1,21.6,10.9L21.6,10.9z"/>
	</g>
	<g>
		<path d="M132.3,0.6c5.9,4.8,11.6,11.1,19.3,12.5c9.3,1.7,16.5-1,23.3-7.1c3.3-3,7.5-6.4,12.3-5.5c2.8,0.6,5.1,3,5.3,5.9
			c0.2,4.2-5.3,8.3-9.1,5.8c-4.6-3.1-0.1-10.1,3.9-6.4c0.5,0.5-0.3,1.2-0.8,0.8c-2.3-2.1-5,2.5-2.9,4.4c1,0.9,2.5,1,3.7,0.6
			c2.6-0.7,4.6-3.3,4-6.1c-0.8-3.2-4.7-4.5-7.6-3.9c-2.7,0.6-4.9,2.4-6.9,4.1c-2.6,2.3-4.9,4.7-8,6.4c-5.8,3.1-13.3,3.3-19.6,1.5
			c-6.8-1.9-12.3-7.9-17.6-12.2C131,0.9,131.7,0.1,132.3,0.6L132.3,0.6z"/>
		<path d="M161.1,13.4c3.2-0.6,5.2-2.9,5.3-6.2c0.1-3.4-2.6-5.6-5.9-5.6c-2,0-4,0.6-5.3,2.1c-1.6,2-1.2,4.9,1.2,6
			c2.7,1.3,5.1-3.1,1.8-3.7c-0.7-0.1-0.4-1.2,0.3-1c3.4,0.6,3.1,4.6,0.2,5.9c-1.7,0.8-3.6-0.3-4.7-1.6c-1.4-1.7-1.2-4.1,0-5.9
			c2.7-3.9,9.7-3.9,12.4,0c3.1,4.4-0.3,10.2-5.1,11.1C160.7,14.6,160.4,13.5,161.1,13.4L161.1,13.4z"/>
		<path d="M152.1,13.2c1.9,1,2.9,3.3,2.3,5.4c-0.1,0.4-0.5,0.5-0.8,0.3c-1.9-1-2.9-3.2-2.3-5.3c0.2-0.7,1.2-0.4,1,0.3
			c-0.4,1.6,0.3,3.3,1.9,4.1c-0.3,0.1-0.5,0.2-0.8,0.3c0.5-1.7-0.3-3.4-1.8-4.2C150.9,13.8,151.5,12.9,152.1,13.2L152.1,13.2z"/>
		<path d="M143.4,9.5c1.6-0.1,2.7-1,3.3-2.5c0.2,0.2,0.3,0.5,0.5,0.7c-1.8-0.1-3.1,0.7-3.6,2.5c-0.2,0.7-1.3,0.4-1-0.3
			c0.7-2.2,2.4-3.4,4.7-3.3c0.3,0,0.7,0.3,0.5,0.7c-0.7,2-2.2,3.1-4.3,3.3C142.7,10.7,142.7,9.6,143.4,9.5L143.4,9.5z"/>
		<path d="M170.5,9.9c1.4-0.4,3-0.5,4.1,0.4c0.6,0.5,1.1,1.3,1.2,2.1c0.1,1.1-1.3,0.9-2.1,0.9c-1.8-0.1-2.9-0.7-3.5-2.5
			c-0.2-0.7,0.8-1,1-0.3c0.5,1.4,1.4,1.7,2.8,1.7c0.1,0,0.9-0.1,1-0.1c-0.2,0.5-0.3,0.7-0.3,0.5c0-0.1,0,0,0,0v-0.2
			c-0.2-0.5-0.3-0.9-0.8-1.3c-0.9-0.7-2.1-0.4-3.1-0.2C170.2,11.1,169.9,10.1,170.5,9.9L170.5,9.9z"/>
	</g>
</g>
</svg>
