<?xml version="1.0" encoding="utf-8"?>
<!-- Generator: Adobe Illustrator 22.0.1, SVG Export Plug-In . SVG Version: 6.00 Build 0)  -->
<svg version="1.1" id="Layer_1" xmlns="http://www.w3.org/2000/svg" xmlns:xlink="http://www.w3.org/1999/xlink" x="0px" y="0px"
	 viewBox="0 0 71.7 1000" style="enable-background:new 0 0 71.7 1000;" xml:space="preserve">
<style type="text/css">
	.st0{opacity:0.1;}
	.st1{opacity:0.15;}
	.st2{fill:none;stroke:#000000;stroke-width:4;stroke-miterlimit:10;}
	.st3{fill:none;stroke:#000000;stroke-width:4;stroke-miterlimit:10;stroke-dasharray:19.0918,14.3188;}
</style>
<path class="st0" d="M10.2,549.2c-11.2-23.2-7.3-41.1-1.8-52.5c10.1-20.7,26.6-28.8,30.2-54.5c1.5-10.8-1.6-22.8-6.1-29.9
	c27,8.1,42.5,47.3,33.4,80.8c-7.7,28.7-35,34.6-44,60.3c-3.6,10.2-4.5,19,8.1,28.7c-0.6,7.3-6.6,6.1-6.6,6.1
	c-7.4-13.2-8.5-20.2-8.5-29.6c0-57,32-55,30.2-91.2C40.5,498.3,8,510.4,10.2,549.2z"/>
<g class="st1">
	<g>
		<line class="st2" x1="35.8" y1="368.4" x2="35.8" y2="358.4"/>
		<line class="st3" x1="35.8" y1="344.1" x2="35.8" y2="17.2"/>
		<line class="st2" x1="35.8" y1="10" x2="35.8" y2="0"/>
	</g>
</g>
<g class="st1">
	<g>
		<line class="st2" x1="35.8" y1="1000" x2="35.8" y2="990"/>
		<line class="st3" x1="35.8" y1="975.7" x2="35.8" y2="648.7"/>
		<line class="st2" x1="35.8" y1="641.6" x2="35.8" y2="631.6"/>
	</g>
</g>
</svg>
