<?xml version="1.0" encoding="utf-8"?>
<!-- Generator: Adobe Illustrator 22.0.1, SVG Export Plug-In . SVG Version: 6.00 Build 0)  -->
<svg version="1.1" id="Layer_1" xmlns="http://www.w3.org/2000/svg" xmlns:xlink="http://www.w3.org/1999/xlink" x="0px" y="0px"
	 viewBox="0 0 95.4 128" style="enable-background:new 0 0 95.4 128;" xml:space="preserve">
<style type="text/css">
	.st0{opacity:0.1;}
</style>
<g class="st0">
	<path d="M31.9,83.7C32,83.7,32,83.7,31.9,83.7C32,83.7,32,83.7,31.9,83.7C32,83.7,32,83.7,31.9,83.7z"/>
	<path d="M71.1,84.5c0,0,0.1,0.1,0.1,0.1c0,0,0,0,0,0C71.2,84.5,71.1,84.5,71.1,84.5z"/>
	<path d="M67.4,82.9c0,0,0.1,0,0.1,0C67.5,82.9,67.5,82.9,67.4,82.9C67.5,82.9,67.4,82.9,67.4,82.9z"/>
	<path d="M85.9,43.8c-3.3,1.3-5,5-3.7,8.3c0.3,0.9,0.9,1.6,1.5,2.2c-0.1,0.2-0.3,0.3-0.4,0.5c-1,1.2-2.2,2.3-3.3,3.5
		c-1,1-2.1,2.1-3.1,3.2c0.1,0,0.1-0.1,0.2-0.2c-1.2,1.2-2.5,2.4-3.7,3.6C72.2,66,71,67,69.8,68c0-0.1,0.1-0.2,0.1-0.3
		c0.6-1.4,1.1-2.8,1.6-4.2c0.2-0.5,0.4-1.1,0.5-1.6c0.2-0.6,0.4-1.1,0.6-1.7c0.4-1.1,0.8-2.2,1.2-3.3c0.1-0.2,0.2-0.5,0.2-0.7
		c0.5-0.1,1-0.2,1.5-0.3c3.3-1.3,5-5,3.7-8.3c-1.3-3.3-5-5-8.3-3.7s-5,5-3.7,8.3c0.8,2.2,2.8,3.7,5,4c-0.3,0.7-0.6,1.5-0.9,2.2
		c-0.2,0.5-0.3,1-0.5,1.4c-0.2,0.6-0.4,1.2-0.6,1.7c-0.3,0.9-0.6,1.8-0.9,2.7c-0.3,0.7-0.5,1.3-0.8,2c-0.2,0.6-0.5,1.1-0.7,1.7
		c-0.3,0.6-0.6,1.2-0.9,1.8c0,0,0,0,0,0c0,0-0.1,0.1-0.1,0.1c0,0,0-0.1,0-0.1c0,0-0.1,0.1-0.1,0.1c0,0,0,0,0,0
		c-0.2,0.3-0.3,0.5-0.5,0.8c-0.1,0.2-0.3,0.4-0.4,0.5c-0.1,0.1-0.2,0.3-0.3,0.5c-1.1,1-2.1,2-3.1,3.1c-1,1-2,2-2.9,3.1
		c-1,1-1.9,2.2-2.8,3.2c-0.5,0.6-1.1,1.3-1.6,1.9c-0.5,0.6-0.9,1.2-1.3,1.8c0.1-0.7,0.3-1.4,0.4-2.1c0.2-1.5,0.5-3,0.6-4.5
		c0.1-1.1,0.2-2.2,0.2-3.2c0.1-0.5,0.2-0.9,0.2-1.4c0-0.2,0-0.4,0-0.6c0.2-0.8,0.3-1.5,0.5-2.3c0-0.2,0.1-0.4,0.1-0.7
		c0.1-0.2,0.1-0.4,0.2-0.6c0.2-0.5,0.4-1,0.5-1.5c0.1-0.5,0.3-0.9,0.4-1.4c0.2-0.7,0.3-1.3,0.5-2c0.2-0.9,0.4-1.8,0.6-2.7
		c0.3-1.1,0.6-2.2,0.8-3.3c0.3-1.3,0.7-2.6,0.9-4c0.3-1.3,0.4-2.5,0.6-3.8c0.2-1.4,0.1-2.7,0.2-4.1c0,0.1,0,0.1,0,0.2
		c0-0.4,0.1-0.8,0.1-1.2c0,0,0.1,0,0.1,0c3.3-1.3,5-5,3.7-8.3c-1.2-3.1-4.7-4.8-7.9-3.8c0.3-2.2,0.5-4.3,0.7-6.5
		c0-0.6,0.1-1.1,0.2-1.7c0.1-0.5,0.2-1,0.2-1.5c0.1-0.9,0.3-1.8,0.4-2.7c0.1-0.9,0.4-1.9,0.5-2.9c0.2-1.1,0.5-2.1,0.8-3.1
		c0-0.1,0-0.1,0-0.2c0.1-0.4,0.2-0.8,0.4-1.1c0.8,0,1.7-0.1,2.5-0.4c3.3-1.3,5-5,3.7-8.3c-1.3-3.3-5-5-8.3-3.7c-3.3,1.3-5,5-3.7,8.3
		c0.7,1.9,2.3,3.2,4.1,3.8c0,0.1,0,0.1-0.1,0.2c-0.3,1-0.6,2-0.9,3.1c-0.3,1-0.5,2.1-0.7,3.1c-0.2,0.9-0.3,1.8-0.4,2.7
		c-0.1,0.4-0.1,0.9-0.2,1.3c-0.1,0.5-0.2,1-0.2,1.5c-0.1,0.6-0.1,1.2-0.2,1.8c-0.1,0.8-0.1,1.5-0.2,2.3c-0.2,1.6-0.3,3.2-0.5,4.8
		c0,0.1,0,0.2,0,0.3c-2.3,1.7-3.3,4.8-2.3,7.5c0.3,0.7,0.7,1.3,1.2,1.9c0,0.1,0,0.2,0,0.3c-0.1,1.7-0.2,3.5-0.1,5.2c0,0.7,0,1.3,0,2
		c0,0.8,0,1.5,0,2.2c0,0.8,0,1.5,0.1,2.3c-1.2-2.1-2.3-4.3-3.2-6.5c-0.4-1.1-0.8-2.2-1.1-3.2c-0.4-1.1-0.8-2.3-1.2-3.4
		c-0.4-1.1-0.7-2.1-0.9-3.2c-0.3-1.2-0.6-2.4-0.9-3.6c0,0,0,0,0,0.1c-0.3-1.2-0.5-2.4-0.7-3.5c-0.2-1.1-0.4-2.2-0.5-3.4
		c-0.1-0.8-0.2-1.7-0.3-2.6c0.5-0.1,1-0.2,1.5-0.3c3.3-1.3,5-5,3.7-8.3s-5-5-8.3-3.7c-3.3,1.3-5,5-3.7,8.3c0.8,2.2,2.8,3.7,5,4
		c0.1,0.7,0.2,1.5,0.3,2.2c0.1,0.8,0.2,1.6,0.3,2.3c0.2,1.4,0.5,2.9,0.8,4.3c0.3,1.6,0.7,3.2,1.1,4.8c0.2,0.7,0.4,1.4,0.6,2.1
		c0.2,0.8,0.5,1.5,0.8,2.3c0.3,0.7,0.5,1.4,0.8,2.2c0.3,0.8,0.6,1.7,0.9,2.5c0.4,1,0.8,2,1.3,3c0.4,0.8,0.8,1.7,1.2,2.5
		c0.5,0.8,0.9,1.7,1.4,2.5c0-0.1-0.1-0.1-0.1-0.2c0.3,0.5,0.5,1,0.7,1.5c0.1,0.2,0.2,0.4,0.3,0.6c0.1,0.4,0.2,0.8,0.2,1.2
		c0.1,0.7,0.1,1.4,0.2,2c0,0.2,0,0.4,0,0.6c0,1.6,0,3.3,0,4.9c0,1.5-0.1,2.9-0.1,4.4c-0.4-0.4-0.7-0.8-1.1-1.3
		c-0.5-0.6-1.1-1.2-1.6-1.8c-0.7-0.8-1.4-1.6-2.1-2.4c-0.7-0.9-1.5-1.8-2.2-2.7c-0.8-1-1.5-2.1-2.3-3.2c-0.8-1.1-1.6-2.2-2.3-3.4
		c-0.4-0.6-0.7-1.2-1.1-1.8c-0.4-0.7-0.8-1.3-1.2-2c-0.3-0.5-0.5-1-0.8-1.4c2.3-1.7,3.3-4.7,2.3-7.5c-1.3-3.3-5-5-8.3-3.7
		s-5,5-3.7,8.3c1.2,3.3,5,5,8.3,3.7c0.6,1.1,1.2,2.1,1.8,3.2c0.4,0.6,0.8,1.2,1.1,1.9c0.4,0.6,0.8,1.2,1.2,1.8
		c0.4,0.6,0.8,1.1,1.2,1.6c0.4,0.6,0.8,1.1,1.2,1.7c0.7,1,1.4,2,2.1,2.9c0.7,0.9,1.4,1.8,2.1,2.7c0.6,0.8,1.3,1.5,2,2.2
		c0.5,0.5,1,1.1,1.5,1.6c0.3,0.4,0.7,0.8,0.9,1.2c0.1,0.2,0.2,0.3,0.3,0.5c0.2,0.4,0.4,0.9,0.5,1.3c0,0.6-0.1,1.1-0.1,1.7
		c-0.1,1.5-0.4,2.9-0.6,4.4c-0.1,0.7-0.2,1.4-0.3,2.1c-0.1,0.9-0.3,1.7-0.5,2.6c-0.3,1.5-0.5,3-0.7,4.5c-0.2,1.6-0.3,3.1-0.4,4.7
		c-0.1,1.8-0.1,3.5,0,5.3c0.1,1.9,0.3,3.8,0.6,5.7c-0.2-0.4-0.4-0.8-0.6-1.2c-0.9-1.5-1.8-3-2.7-4.4c-1.2-1.9-2.4-3.8-3.7-5.7
		c-0.7-1-1.5-2-2.3-3c-0.9-1-1.7-2-2.6-3c-0.9-1-1.9-2.1-2.8-3.1c-0.8-0.9-1.7-1.8-2.5-2.7c-0.1-0.1-0.1-0.2-0.2-0.3
		c0,0-0.1,0-0.1-0.1c-0.1-0.1-0.1-0.1-0.2-0.2c-1-1.1-1.9-2.1-2.8-3.2c-0.5-0.7-1-1.3-1.5-2c-0.5-0.6-0.9-1.2-1.3-1.8
		c-0.4-0.6-0.8-1.2-1.1-1.7c0,0,0,0,0-0.1c1.2-1.7,1.5-3.9,0.7-5.9c-1.3-3.3-5-5-8.3-3.7c-3,1.1-4.6,4.3-4,7.4
		c-0.1-0.1-0.3-0.2-0.5-0.3c-0.8-0.6-1.5-1.1-2.3-1.7c-0.4-0.3-0.8-0.6-1.1-0.9c1.4-1.7,1.9-4.1,1-6.3c-1.3-3.3-5-5-8.3-3.7
		s-5,5-3.7,8.3s5,5,8.3,3.7c0.5-0.2,1-0.5,1.4-0.8c0.4,0.4,0.9,0.7,1.3,1.1c0.9,0.7,1.8,1.3,2.7,2c0.4,0.3,0.8,0.6,1.2,0.9
		c0.5,0.3,0.9,0.6,1.4,0.8c-0.1,0-0.1-0.1-0.2-0.1c0.3,0.2,0.5,0.4,0.8,0.5c0.5,0.4,1,0.8,1.5,1c0.1,0.1,0.2,0.2,0.4,0.2
		c0.7,0.5,1.5,1,2.3,1.4c0.9,0.6,1.9,1.2,2.8,1.7c0.8,0.5,1.6,0.9,2.4,1.3c1,0.5,2,1.1,3.1,1.6c0.6,0.3,1.1,0.6,1.7,0.9
		c0.1,0,0.1,0.1,0.2,0.1c0,0,0,0,0,0c0,0,0,0,0.1,0c0,0,0.1,0,0.1,0.1c0,0-0.1,0-0.1,0c0.2,0.1,0.3,0.2,0.4,0.3
		c0.1,0.1,0.1,0.1,0.2,0.2c0.1,0.1,0.2,0.3,0.3,0.4c1,1.1,2.1,2.2,3.1,3.4c1,1.1,2,2.1,2.9,3.2c1,1.1,1.9,2.2,2.8,3.3
		c0.8,1,1.6,2.1,2.3,3.2c0.1,0.1,0.1,0.2,0.2,0.3c-0.2-0.1-0.3-0.3-0.5-0.4c-0.6-0.5-1.3-0.9-1.9-1.3c-0.4-0.3-0.8-0.5-1.2-0.8
		c-0.4-0.3-0.9-0.5-1.3-0.8c-0.7-0.4-1.5-0.8-2.2-1.3c-0.8-0.5-1.5-0.9-2.3-1.3c-0.7-0.4-1.5-0.7-2.2-1c-0.8-0.4-1.5-0.8-2.3-1.2
		c-0.5-0.2-1-0.4-1.5-0.6c0.1-1,0-2-0.3-3c-1.3-3.3-5-5-8.3-3.7c-3.3,1.3-5,5-3.7,8.3c1.3,3.3,5,5,8.3,3.7c1.7-0.6,2.9-2,3.6-3.5
		c0.8,0.3,1.5,0.6,2.2,0.9c0.5,0.3,1.1,0.6,1.6,0.9c0.6,0.3,1.1,0.5,1.7,0.8c1,0.5,2,1,2.9,1.6c0.9,0.6,1.8,1.1,2.8,1.6
		c0.7,0.5,1.4,1,2.2,1.5c0.6,0.4,1.3,0.9,1.9,1.4c1.1,0.8,2.1,1.7,3,2.6c0.3,0.4,0.7,0.8,1,1.2c0.2,0.2,0.3,0.3,0.5,0.5
		c0.1,0.1,0.1,0.2,0.2,0.2c0.1,0.1,0.1,0.2,0.2,0.3c0.2,0.3,0.3,0.6,0.5,0.9c0.3,0.5,0.6,1.1,0.9,1.6l0,0c0.6,1.2,1.2,2.3,1.7,3.5
		c0.2,0.5,0.5,1,0.7,1.5c0.1,0.3,0.2,0.6,0.3,0.9c0.1,0.7,0.3,1.4,0.4,2.1c0.3,1.9,0.6,3.8,0.8,5.7c0,0.1,0.1,0.2,0.1,0.3
		c0,1.2,0.2,2.5,0.4,3.7c0.1,0.3,0.4,1.4,0.9,2.1c0.3,0.7,0.8,1.1,1.5,0.8c0.4-0.2,0.6-0.6,0.7-1c0.3-1.3-0.2-2.9-0.5-4.1
		c0,0,0,0,0,0c-0.5-2.2-1.1-4.4-1.7-6.6c-0.4-1.3-0.7-2.7-1-4c-0.4-1.8-0.7-3.6-1-5.5c-0.3-1.7-0.5-3.4-0.6-5.2
		c-0.1-1.7-0.2-3.4-0.1-5.1c0.1-2.3,0.4-4.7,0.7-7c0,0,0,0,0,0c0.3-0.7,0.7-1.4,1-2c0,0,0,0,0,0c0.3-0.5,0.6-0.9,0.9-1.4
		c0.5-0.8,1.2-1.6,1.8-2.3c0.1-0.1,0.2-0.3,0.3-0.4c0.5-0.4,1-0.7,1.6-1.1c0,0,0,0,0,0c0.1-0.1,0.2-0.1,0.3-0.1
		c0.5-0.2,0.9-0.4,1.4-0.5c0.3,0,0.7,0.1,1,0.1c0.3,0,0.6,0.1,0.9,0.1c0.3,0,0.5,0.1,0.8,0.1c0.6,0.1,1.1,0.2,1.6,0.4
		c0.8,0.2,1.6,0.4,2.4,0.6c0,0,0,0,0,0c0,0,0.1,0,0.1,0c0,0,0.1,0,0.1,0c0,0,0,0,0,0c0.7,0.2,1.4,0.5,2.1,0.8c0.5,0.2,1,0.5,1.5,0.8
		c0,0,0,0,0,0c0.1,0,0.1,0.1,0.2,0.1c0,0,0,0,0,0c0,0,0,0,0,0c0.2,0.1,0.4,0.3,0.6,0.4l0,0c0,0,0,0,0.1,0c0,0,0.1,0.1,0.1,0.1
		c0,0,0,0,0,0c0.6,0.4,1.2,0.8,1.8,1.2c0.2,0.2,0.4,0.3,0.6,0.5c-1.3,1.7-1.7,4-0.9,6.2c1.3,3.3,5,5,8.3,3.7c3.3-1.3,5-5,3.7-8.3
		c-1.3-3.3-5-5-8.3-3.7c-0.6,0.2-1.1,0.5-1.5,0.9c-0.3-0.2-0.6-0.4-0.8-0.6c-0.8-0.6-1.7-1.1-2.5-1.6c0,0,0.1,0,0.1,0
		c0.7-0.3,1.3-0.7,2-1.1c1.3-0.8,2.6-1.6,3.8-2.5c0.2-0.1,0.3-0.3,0.5-0.4c1.7,1.5,4.2,2,6.4,1.2c3.3-1.3,5-5,3.7-8.3
		c-1.3-3.3-5-5-8.3-3.7s-5,5-3.7,8.3c0.2,0.5,0.4,0.9,0.7,1.3c-0.7,0.6-1.5,1.1-2.3,1.7c-0.8,0.5-1.5,1-2.4,1.4c0,0,0,0,0,0
		c-0.7,0.4-1.4,0.7-2.1,0.9c-0.1,0-0.2,0.1-0.4,0.1c-0.1,0-0.2,0-0.2,0.1c-0.5-0.2-0.9-0.4-1.4-0.6c-1.3-0.5-2.7-0.7-4.1-1.1
		c-0.4-0.1-0.8-0.2-1.2-0.2c-0.5-0.1-1-0.1-1.5-0.2c-0.5-0.1-1-0.1-1.5-0.2c-0.1,0-0.2,0-0.3,0c1-1.1,2-2.2,3.1-3.3
		c1.1-1.2,2.3-2.3,3.4-3.5c-0.1,0-0.1,0.1-0.2,0.2c1-0.9,2-1.9,3-2.7c1.2-1,2.3-2.1,3.5-3.1c1.1-1,2.1-2,3.2-3
		c1.1-1,2.2-2.1,3.3-3.1c0.4-0.4,0.8-0.8,1.2-1.3c0.5-0.6,1.1-1.1,1.7-1.7c0.9-1,1.8-2,2.7-3c1.6,0.9,3.6,1.1,5.4,0.4
		c3.3-1.3,5-5,3.7-8.3C93,44.2,89.2,42.5,85.9,43.8z M55.4,55.6c0-1,0-2,0-3.1c0-0.9,0-1.8,0-2.6c0-1.2,0-2.4,0-3.5c0,0,0,0,0,0.1
		c0-0.5,0.1-1,0.1-1.5c1.1,0.6,2.3,0.9,3.6,0.8c0,0.3-0.1,0.7-0.1,1c0,0.8,0,1.6-0.1,2.4c0-0.1,0-0.1,0-0.2
		c-0.1,2.1-0.5,4.2-0.9,6.2c-0.4,2-0.9,3.9-1.4,5.8c-0.4,1.5-0.7,3.1-1.1,4.6c0-0.8,0-1.5,0-2.3c0-1.6,0.1-3.1,0.1-4.7
		C55.5,57.6,55.5,56.6,55.4,55.6z M53.4,74.8C53.4,74.8,53.4,74.8,53.4,74.8c0.1,0.1,0.1,0.1,0,0.1C53.4,74.9,53.4,74.9,53.4,74.8z
		 M29,80.1c-0.9-0.5-1.8-0.9-2.6-1.4c-0.7-0.4-1.3-0.8-2-1.2c-0.5-0.3-0.9-0.6-1.4-0.9c0.3-0.1,0.6-0.1,1-0.3
		c0.7-0.3,1.2-0.6,1.8-1.1c0.4,0.7,0.9,1.3,1.3,2c0.4,0.6,0.9,1.2,1.4,1.8c0.3,0.4,0.6,0.7,0.9,1.1C29.2,80.2,29.1,80.1,29,80.1z
		 M55.2,123C55.2,123,55.2,123,55.2,123c0,0,0,0.1,0,0.1C55.2,123.1,55.2,123.1,55.2,123z"/>
</g>
</svg>
