<?xml version="1.0" encoding="utf-8"?>
<!-- Generator: Adobe Illustrator 22.0.1, SVG Export Plug-In . SVG Version: 6.00 Build 0)  -->
<svg version="1.1" id="Layer_1" xmlns="http://www.w3.org/2000/svg" xmlns:xlink="http://www.w3.org/1999/xlink" x="0px" y="0px"
	 viewBox="0 0 85.3 111" style="enable-background:new 0 0 85.3 111;" xml:space="preserve">
<style type="text/css">
	.st0{opacity:0.15;}
</style>
<path class="st0" d="M44.7,106.4c-16.8-0.8-21.4-21.6-14.9-33.8c3.5-6.7,8.7-11,15.9-12.9c3.5-0.9,3.8-7,0-7.7
	c-26-5.2-26.1-42.5,0-47.5c4.9-0.9,2.8-8.6-2.1-7.7c-33.6,6.4-33.5,56.3,0,63c0-2.6,0-5.1,0-7.7c-30.6,8.1-34.9,60.7,1,62.4
	C49.7,114.6,49.7,106.6,44.7,106.4L44.7,106.4z"/>
<circle class="st0" cx="60.3" cy="55.5" r="6.4"/>
</svg>
