<?xml version="1.0" encoding="utf-8"?>
<!-- Generator: Adobe Illustrator 22.0.1, SVG Export Plug-In . SVG Version: 6.00 Build 0)  -->
<svg version="1.1" id="Layer_1" xmlns="http://www.w3.org/2000/svg" xmlns:xlink="http://www.w3.org/1999/xlink" x="0px" y="0px"
	 viewBox="0 0 562 240.5" style="enable-background:new 0 0 562 240.5;" xml:space="preserve">
<style type="text/css">
	.st0{fill:#63AEAB;}
	.st1{fill:#636569;}
	.st2{fill:url(#SVGID_1_);}
	.st3{fill:#508D84;}
	.st4{fill:#FFFFFF;}
	.st5{fill:url(#SVGID_2_);}
	.st6{fill:url(#SVGID_3_);}
	.st7{fill:url(#SVGID_4_);}
	.st8{fill:url(#SVGID_5_);}
	.st9{fill:url(#SVGID_6_);}
</style>
<g>
	<g>
		<path class="st0" d="M26.3,213.3l10-8.2c4.4-3.6,6.1-5.5,6.1-8.5c0-3-2-4.6-4.7-4.6c-2.2,0-3.8,1-5.7,3.1
			c-0.5,0.6-1.4,1.1-2.6,1.1c-2,0-3.5-1.6-3.5-3.5c0-0.9,0.4-1.8,0.9-2.4c2.8-3.3,6.1-5.2,11.5-5.2c7.3,0,12.1,4.3,12.1,10.9v0.1
			c0,5.9-3,8.8-9.3,13.7l-5.7,4.4h12.3c1.9,0,3.4,1.5,3.4,3.4c0,1.9-1.5,3.3-3.4,3.3H28.5c-2.4,0-4.2-1.4-4.2-3.7
			C24.3,215.6,25,214.3,26.3,213.3z"/>
		<path class="st0" d="M56.3,203.3v-0.1c0-10.2,6.3-18.2,15.7-18.2c9.3,0,15.6,7.9,15.6,18.1v0.1c0,10.2-6.3,18.2-15.7,18.2
			S56.3,213.5,56.3,203.3z M79.6,203.3v-0.1c0-6.4-3.1-11.2-7.8-11.2s-7.7,4.7-7.7,11.1v0.1c0,6.4,3.1,11.2,7.8,11.2
			C76.7,214.4,79.6,209.7,79.6,203.3z"/>
		<path class="st0" d="M99.1,192.7l-2.7,0.7c-0.4,0.1-1,0.2-1.4,0.2c-1.8,0-3.4-1.5-3.4-3.3c0-1.6,1-2.9,2.6-3.3l5-1.5
			c1.5-0.4,2.6-0.7,3.6-0.7h0.1c2.1,0,3.8,1.7,3.8,3.8V217c0,2.1-1.7,3.8-3.8,3.8c-2.1,0-3.8-1.7-3.8-3.8V192.7z"/>
		<path class="st0" d="M113.7,210.9v-0.1c0-4.3,2-6.8,5.7-8.5c-2.7-1.7-4.5-3.9-4.5-7.7v-0.1c0-5.4,4.9-9.7,12.4-9.7
			c7.5,0,12.4,4.2,12.4,9.7v0.1c0,3.8-1.8,6-4.5,7.7c3.6,1.9,5.7,4.1,5.7,8.3v0.1c0,6.6-5.8,10.4-13.6,10.4S113.7,217,113.7,210.9z
			 M133.4,210.3v-0.1c0-2.7-2.6-4.3-6.1-4.3c-3.5,0-6.1,1.6-6.1,4.3v0.1c0,2.4,2.3,4.4,6.1,4.4C131.1,214.7,133.4,212.8,133.4,210.3
			z M132.3,195.4v-0.1c0-2.2-1.9-4.1-5-4.1c-3.2,0-5,1.9-5,4.1v0.1c0,2.5,2,4.3,5,4.3C130.4,199.7,132.3,197.9,132.3,195.4z"/>
	</g>
	<g>
		<path class="st1" d="M24.3,146.8L24.3,146.8c0-8.7,6.8-15.7,16.1-15.7s16,6.9,16,15.5v0.1c0,8.6-6.8,15.6-16.1,15.6
			S24.3,155.4,24.3,146.8z M49.4,146.8L49.4,146.8c0-5.3-3.8-9.6-9.1-9.6c-5.3,0-9,4.2-9,9.4v0.1c0,5.2,3.8,9.5,9.1,9.5
			C45.7,156.2,49.4,152,49.4,146.8z"/>
		<path class="st1" d="M62.3,135c0-1.9,1.5-3.3,3.3-3.3H76c3.8,0,6.8,1.1,8.8,3.1c1.7,1.7,2.6,4,2.6,6.9v0.1c0,4.7-2.4,7.7-6,9.2
			l4.6,5.6c0.6,0.8,1.1,1.5,1.1,2.5c0,1.9-1.6,3.1-3.1,3.1c-1.5,0-2.5-0.7-3.3-1.7l-6.5-8.2h-5.3v6.6c0,1.9-1.5,3.3-3.3,3.3
			c-1.9,0-3.3-1.5-3.3-3.3V135z M75.6,146.3c3.2,0,5.1-1.7,5.1-4.3v-0.1c0-2.8-2-4.3-5.2-4.3h-6.6v8.7H75.6z"/>
		<path class="st1" d="M93.7,134.7c0-1.9,1.5-3.3,3.3-3.3c1.9,0,3.3,1.5,3.3,3.3v24c0,1.9-1.5,3.3-3.3,3.3c-1.9,0-3.3-1.5-3.3-3.3
			V134.7z"/>
		<path class="st1" d="M106.5,146.8L106.5,146.8c0-8.7,6.7-15.7,15.8-15.7c4.6,0,7.6,1,10.3,2.9c0.6,0.5,1.4,1.4,1.4,2.7
			c0,1.8-1.5,3.3-3.3,3.3c-0.9,0-1.5-0.3-2-0.7c-1.8-1.3-3.7-2.1-6.6-2.1c-4.8,0-8.7,4.3-8.7,9.4v0.1c0,5.5,3.8,9.6,9.1,9.6
			c2.4,0,4.6-0.6,6.2-1.8v-4.3h-4.5c-1.6,0-2.9-1.2-2.9-2.8s1.3-2.9,2.9-2.9h7.6c1.9,0,3.3,1.5,3.3,3.3v7.3c0,1.9-0.7,3.3-2.3,4.2
			c-2.5,1.5-6,3-10.5,3C113,162.3,106.5,155.7,106.5,146.8z"/>
		<path class="st1" d="M141.9,134.7c0-1.9,1.5-3.3,3.3-3.3s3.3,1.5,3.3,3.3v24c0,1.9-1.5,3.3-3.3,3.3s-3.3-1.5-3.3-3.3V134.7z"/>
		<path class="st1" d="M156.1,134.8c0-1.9,1.5-3.3,3.3-3.3h0.7c1.6,0,2.5,0.8,3.4,1.9l12.8,16.8v-15.5c0-1.8,1.5-3.3,3.3-3.3
			c1.8,0,3.3,1.5,3.3,3.3v24c0,1.9-1.5,3.3-3.3,3.3h-0.2c-1.6,0-2.5-0.8-3.4-1.9l-13.3-17.4v16.1c0,1.8-1.5,3.3-3.3,3.3
			c-1.8,0-3.3-1.5-3.3-3.3V134.8z"/>
		<path class="st1" d="M190.1,158.5V135c0-1.9,1.5-3.3,3.3-3.3h16.7c1.6,0,3,1.3,3,3c0,1.6-1.3,2.9-3,2.9h-13.4v6.1h11.5
			c1.6,0,3,1.3,3,3c0,1.6-1.3,2.9-3,2.9h-11.5v6.3h13.7c1.6,0,3,1.3,3,3c0,1.6-1.3,2.9-3,2.9h-16.9
			C191.6,161.8,190.1,160.3,190.1,158.5z"/>
		<path class="st1" d="M217.2,148.5c0-1.7,1.4-3.1,3.1-3.1h7.5c1.7,0,3.1,1.4,3.1,3.1c0,1.7-1.4,3.1-3.1,3.1h-7.5
			C218.6,151.6,217.2,150.2,217.2,148.5z"/>
		<path class="st1" d="M236.5,135c0-1.9,1.5-3.3,3.3-3.3h8.4c9.5,0,16,6.5,16,15v0.1c0,8.5-6.5,15.1-16,15.1h-8.4
			c-1.9,0-3.3-1.5-3.3-3.3V135z M248.3,155.8c5.4,0,9.1-3.7,9.1-9v-0.1c0-5.3-3.7-9.1-9.1-9.1h-5.1v18.2H248.3z"/>
		<path class="st1" d="M270.2,158.5V135c0-1.9,1.5-3.3,3.3-3.3h16.7c1.6,0,3,1.3,3,3c0,1.6-1.3,2.9-3,2.9h-13.4v6.1h11.5
			c1.6,0,3,1.3,3,3c0,1.6-1.3,2.9-3,2.9h-11.5v6.3h13.6c1.6,0,3,1.3,3,3c0,1.6-1.3,2.9-3,2.9h-16.9
			C271.6,161.8,270.2,160.3,270.2,158.5z"/>
		<path class="st1" d="M298.4,158.6c-0.7-0.5-1.2-1.5-1.2-2.5c0-1.7,1.4-3.1,3.1-3.1c0.9,0,1.5,0.3,1.9,0.6c2.3,1.7,4.8,2.7,7.7,2.7
			c2.7,0,4.3-1.1,4.3-2.8v-0.1c0-1.7-1-2.5-6.1-3.8c-6.1-1.6-10-3.2-10-9.2v-0.1c0-5.5,4.4-9.1,10.5-9.1c3.7,0,6.8,0.9,9.6,2.7
			c0.7,0.4,1.5,1.3,1.5,2.6c0,1.7-1.4,3.1-3.1,3.1c-0.6,0-1.2-0.2-1.7-0.5c-2.2-1.3-4.3-2-6.3-2c-2.5,0-3.9,1.2-3.9,2.6v0.1
			c0,2,1.3,2.6,6.5,4c6.1,1.6,9.6,3.8,9.6,9v0.1c0,6-4.6,9.3-11.1,9.3C305.8,162.2,301.8,161,298.4,158.6z"/>
		<path class="st1" d="M333,137.8h-6.4c-1.7,0-3.1-1.4-3.1-3.1s1.4-3.1,3.1-3.1H346c1.7,0,3.1,1.4,3.1,3.1s-1.4,3.1-3.1,3.1h-6.4v21
			c0,1.9-1.5,3.3-3.3,3.3c-1.8,0-3.3-1.5-3.3-3.3V137.8z"/>
		<path class="st1" d="M354.1,134.7c0-1.9,1.5-3.3,3.3-3.3s3.3,1.5,3.3,3.3v24c0,1.9-1.5,3.3-3.3,3.3s-3.3-1.5-3.3-3.3V134.7z"/>
		<path class="st1" d="M368.3,134.8c0-1.9,1.5-3.3,3.3-3.3h0.7c1.6,0,2.5,0.8,3.4,1.9l12.8,16.8v-15.5c0-1.8,1.5-3.3,3.3-3.3
			c1.8,0,3.3,1.5,3.3,3.3v24c0,1.9-1.5,3.3-3.3,3.3h-0.2c-1.6,0-2.5-0.8-3.4-1.9l-13.3-17.4v16.1c0,1.8-1.5,3.3-3.3,3.3
			s-3.3-1.5-3.3-3.3V134.8z"/>
		<path class="st1" d="M400.7,157.5l10.5-23.7c0.7-1.6,2.1-2.6,3.9-2.6h0.4c1.8,0,3.1,1,3.8,2.6l10.5,23.7c0.2,0.5,0.3,0.9,0.3,1.3
			c0,1.8-1.4,3.2-3.1,3.2c-1.5,0-2.6-0.9-3.2-2.3l-2-4.7h-13.3l-2.1,5c-0.6,1.3-1.7,2.1-3.1,2.1c-1.7,0-3.1-1.4-3.1-3.1
			C400.3,158.5,400.4,158,400.7,157.5z M419.3,149.2l-4.2-9.9l-4.2,9.9H419.3z"/>
		<path class="st1" d="M439.1,137.8h-6.4c-1.7,0-3.1-1.4-3.1-3.1s1.4-3.1,3.1-3.1h19.4c1.7,0,3.1,1.4,3.1,3.1s-1.4,3.1-3.1,3.1h-6.4
			v21c0,1.9-1.5,3.3-3.3,3.3c-1.9,0-3.3-1.5-3.3-3.3V137.8z"/>
		<path class="st1" d="M460.3,134.7c0-1.9,1.5-3.3,3.3-3.3s3.3,1.5,3.3,3.3v24c0,1.9-1.5,3.3-3.3,3.3s-3.3-1.5-3.3-3.3V134.7z"/>
		<path class="st1" d="M473.1,146.8L473.1,146.8c0-8.7,6.8-15.7,16.1-15.7c9.3,0,16,6.9,16,15.5v0.1c0,8.6-6.8,15.6-16.1,15.6
			C479.8,162.3,473.1,155.4,473.1,146.8z M498.2,146.8L498.2,146.8c0-5.3-3.8-9.6-9.1-9.6s-9,4.2-9,9.4v0.1c0,5.2,3.8,9.5,9.1,9.5
			C494.5,156.2,498.2,152,498.2,146.8z"/>
		<path class="st1" d="M511.1,134.8c0-1.9,1.5-3.3,3.3-3.3h0.7c1.6,0,2.5,0.8,3.4,1.9l12.8,16.8v-15.5c0-1.8,1.5-3.3,3.3-3.3
			s3.3,1.5,3.3,3.3v24c0,1.9-1.5,3.3-3.3,3.3h-0.2c-1.6,0-2.5-0.8-3.4-1.9l-13.3-17.4v16.1c0,1.8-1.5,3.3-3.3,3.3s-3.3-1.5-3.3-3.3
			V134.8z"/>
	</g>
	<g>
		<path class="st0" d="M24.3,101.2V41.1c0-3.7,2.8-6.5,6.5-6.5h42.5c3.1,0,5.7,2.6,5.7,5.7c0,3.2-2.6,5.7-5.7,5.7H37.2v19h31.5
			c3.1,0,5.7,2.6,5.7,5.9c0,3.1-2.6,5.6-5.7,5.6H37.2v19.6h36.7c3.1,0,5.7,2.6,5.7,5.7c0,3.2-2.6,5.7-5.7,5.7H30.8
			C27.1,107.7,24.3,104.9,24.3,101.2z"/>
		<path class="st0" d="M94.3,40.6c0-3.6,2.8-6.5,6.5-6.5h1.4c3.1,0,4.9,1.6,6.7,3.8l36.6,47.3V40.3c0-3.4,2.8-6.3,6.3-6.3
			c3.6,0,6.4,2.8,6.4,6.3v61.4c0,3.6-2.7,6.4-6.3,6.4h-0.5c-3,0-4.9-1.6-6.7-3.9L107,55.6V102c0,3.4-2.8,6.3-6.3,6.3
			c-3.6,0-6.4-2.8-6.4-6.3V40.6z"/>
		<path class="st0" d="M173.7,71.4v-0.2c0-20.6,15.9-37.8,38.4-37.8s38.1,17,38.1,37.6v0.2c0,8.3-2.7,16.1-7.4,22.5l4.7,3.9
			c1.5,1.3,2.4,2.8,2.4,5c0,3.3-2.7,6.2-6.1,6.2c-1.9,0-3.3-0.7-4.5-1.9l-5.2-4.7c-6.2,4.4-13.8,6.9-22.3,6.9
			C189.3,109,173.7,91.9,173.7,71.4z M213.2,81c0-3.3,2.7-6.2,6.1-6.2c1.9,0,3,0.6,4.5,1.9l9.4,8.6c2.3-4,3.6-8.7,3.6-13.9v-0.2
			c0-14.2-10.3-26-24.9-26s-24.7,11.6-24.7,25.8v0.2c0,14.2,10.3,25.9,24.9,25.9c4.8,0,9.1-1.3,12.6-3.3l-9.1-7.7
			C214.1,84.7,213.2,83.2,213.2,81z"/>
		<path class="st0" d="M264.6,76.7V40.4c0-3.6,2.8-6.4,6.5-6.4c3.6,0,6.4,2.8,6.4,6.4v35.7c0,13.6,7,20.8,18.5,20.8
			c11.4,0,18.4-6.8,18.4-20.3V40.4c0-3.6,2.8-6.4,6.5-6.4c3.6,0,6.4,2.8,6.4,6.4v35.6c0,21.8-12.3,32.8-31.5,32.8
			C276.7,108.9,264.6,97.9,264.6,76.7z"/>
		<path class="st0" d="M344.8,101.2V41.1c0-3.7,2.8-6.5,6.5-6.5h42.5c3.1,0,5.7,2.6,5.7,5.7c0,3.2-2.6,5.7-5.7,5.7h-36.2v19h31.5
			c3.1,0,5.7,2.6,5.7,5.9c0,3.1-2.6,5.6-5.7,5.6h-31.5v19.6h36.7c3.1,0,5.7,2.6,5.7,5.7c0,3.2-2.6,5.7-5.7,5.7h-43.1
			C347.6,107.7,344.8,104.9,344.8,101.2z M366.6,26.2c-2.7,2.3-4.8,2.8-7.7,2.8c-1.6,0-2.8-0.7-2.8-2.1c0-0.7,0.6-1.7,1.3-2.5
			l6.9-8.7c1.6-1.9,3.1-3,6.1-3h3.8c2.9,0,4.6,1.1,6.1,3l6.9,8.7c0.6,0.8,1.3,1.8,1.3,2.5c0,1.4-1.4,2.1-3,2.1
			c-2.9,0-4.9-0.5-7.7-2.8l-5.4-4.7L366.6,26.2z"/>
		<path class="st0" d="M432.8,46.5h-17.8c-3.3,0-6-2.7-6-6c0-3.2,2.6-6,6-6h48.6c3.2,0,5.9,2.7,5.9,6c0,3.2-2.6,6-5.9,6h-17.9v55.4
			c0,3.6-2.9,6.4-6.5,6.4c-3.6,0-6.5-2.8-6.5-6.4V46.5z"/>
		<path class="st0" d="M482.6,101.2V41.1c0-3.7,2.8-6.5,6.5-6.5h42.5c3.1,0,5.7,2.6,5.7,5.7c0,3.2-2.6,5.7-5.7,5.7h-36.2v19h31.5
			c3.1,0,5.7,2.6,5.7,5.9c0,3.1-2.6,5.6-5.7,5.6h-31.5v19.6h36.7c3.1,0,5.7,2.6,5.7,5.7c0,3.2-2.6,5.7-5.7,5.7H489
			C485.4,107.7,482.6,104.9,482.6,101.2z"/>
	</g>
	<g>
		<g>
			<radialGradient id="SVGID_1_" cx="381.1689" cy="201.7069" r="36.2269" gradientUnits="userSpaceOnUse">
				<stop  offset="8.673878e-03" style="stop-color:#63AFAA"/>
				<stop  offset="0.2912" style="stop-color:#5FA8A2"/>
				<stop  offset="0.7473" style="stop-color:#56978F"/>
				<stop  offset="1" style="stop-color:#508D84"/>
			</radialGradient>
			<path class="st2" d="M404.2,188.1v27.2c0,5.2-4.2,9.4-9.4,9.4h-27.2c-5.2,0-9.4-4.2-9.4-9.4v-27.2c0-5.2,4.2-9.4,9.4-9.4h27.2
				C400,178.7,404.2,182.9,404.2,188.1z"/>
			<path class="st3" d="M404.2,201.8v13.5c0,5.2-4.2,9.4-9.4,9.4l-13.6-0.2l-12.8-12.9l12.8,4.6v-6.6v-20.5l10.8,0.5l1.7,1.7
				L404.2,201.8z"/>
			<path class="st4" d="M397.5,202.3c0-2.2-0.4-4.3-1.3-6.3c-0.8-1.9-2-3.7-3.5-5.2c-1.5-1.5-3.2-2.7-5.2-3.5
				c-2-0.8-4.1-1.3-6.3-1.3c-2.2,0-4.3,0.4-6.3,1.3c-1.9,0.8-3.7,2-5.2,3.5c-1.5,1.5-2.7,3.2-3.5,5.2c-0.8,2-1.3,4.1-1.3,6.3
				c0,2.2,0.4,4.3,1.3,6.3c0.8,1.9,2,3.7,3.5,5.2c1.5,1.5,3.2,2.7,5.2,3.5c2,0.8,4.1,1.3,6.3,1.3c2.2,0,4.3-0.4,6.3-1.3
				c1.9-0.8,3.7-2,5.2-3.5c1.5-1.5,2.7-3.2,3.5-5.2C397,206.6,397.5,204.5,397.5,202.3 M392.6,207.1c-0.6,1.5-1.5,2.8-2.7,3.9
				c-1.1,1.1-2.5,2-3.9,2.7c-1.5,0.6-3.2,1-4.8,1c-1.7,0-3.3-0.3-4.8-1c-1.5-0.6-2.8-1.5-3.9-2.7c-1.1-1.1-2-2.5-2.7-3.9
				c-0.6-1.5-1-3.2-1-4.8c0-1.5,0.3-2.9,0.8-4.3c0.5-1.3,1.2-2.6,2.1-3.7c1.9-2.2,4.5-3.7,7.3-4.2c0,0,0,0,0,0c0,0,0,0,0.1,0
				c0,0,0,0,0,0.1v14.8c0,0,0,0.1-0.1,0.1c0,0,0,0,0,0c0,0-0.1,0-0.1,0l-5.7-5.7c-0.1-0.1-0.1-0.1-0.2-0.1c-0.1,0-0.2,0-0.2,0.1
				l-2.7,2.7c-0.1,0.1-0.1,0.2-0.1,0.2c0,0.1,0,0.2,0.1,0.2l9.8,9.8l1.4,1.4l0.2-0.2c0,0,0,0,0,0l10.9-10.9c0.1-0.1,0.1-0.3,0-0.5
				l-2.7-2.7c-0.1-0.1-0.1-0.1-0.2-0.1c-0.1,0-0.2,0-0.2,0.1l-5.7,5.7c0,0,0,0-0.1,0c0,0,0,0,0,0c0,0-0.1-0.1-0.1-0.1v-14.8
				c0,0,0-0.1,0-0.1c0,0,0,0,0.1,0c0,0,0,0,0,0c2.8,0.5,5.4,2,7.3,4.2c0.9,1.1,1.6,2.3,2.1,3.7c0.5,1.4,0.8,2.8,0.8,4.3
				C393.6,204,393.2,205.6,392.6,207.1"/>
		</g>
		<g>
			<radialGradient id="SVGID_2_" cx="245.9919" cy="201.7069" r="36.2269" gradientUnits="userSpaceOnUse">
				<stop  offset="8.673878e-03" style="stop-color:#63AFAA"/>
				<stop  offset="0.2912" style="stop-color:#5FA8A2"/>
				<stop  offset="0.7473" style="stop-color:#56978F"/>
				<stop  offset="1" style="stop-color:#508D84"/>
			</radialGradient>
			<path class="st5" d="M269,188.1v27.2c0,5.2-4.2,9.4-9.4,9.4h-27.2c-5.2,0-9.4-4.2-9.4-9.4v-27.2c0-5.2,4.2-9.4,9.4-9.4h27.2
				C264.8,178.7,269,182.9,269,188.1z"/>
			<path class="st3" d="M269,206.1v9.2c0,5.2-4.2,9.4-9.4,9.4H241l-11.7-11.8l-0.5-2.5v-4l1.9-2.6l4.2-1.2l4,0.3l0.9-3.5l-2.3-4.2
				L252,193L269,206.1z"/>
			<path class="st4" d="M258.4,201.6c-0.7,0-1.3,0.1-1.9,0.2c-0.3-0.9-0.7-1.7-1-2.6c0-0.1,0-0.1-0.1-0.2c0,0,0-0.1-0.1-0.1
				c-0.7-1.7-1.3-3.2-1.7-4.2c-0.5-1.3-1.4-1.9-2.5-1.9c-1.5,0-2.4,0-2.4,0h0c-0.5,0-0.8,0.4-0.8,0.8c0,0.5,0.4,0.8,0.8,0.8
				c0,0,0.9,0,2.4,0c0.4,0,0.7,0.2,1,0.9c0.3,0.8,0.8,1.9,1.3,3.2h-12.2l-1-1.8h1.7c0.5,0,0.8-0.4,0.8-0.8c0-0.5-0.4-0.8-0.8-0.8
				h-4.5c-0.5,0-0.8,0.4-0.8,0.8c0,0.5,0.4,0.8,0.8,0.8h0.9l1.4,2.6l-1.7,2.8c-0.9-0.4-1.9-0.6-2.9-0.6c-4,0-7.3,3.3-7.3,7.3
				c0,4,3.3,7.3,7.3,7.3c3.7,0,6.8-2.8,7.2-6.4h2c0.3,0.4,0.7,0.7,1.3,0.7c0.8,0,1.5-0.7,1.5-1.5c0-0.1,0-0.2,0-0.4l7.2-7.6
				c0.2,0.5,0.4,1,0.6,1.5c-2.3,1.2-3.8,3.6-3.8,6.4c0,4,3.3,7.3,7.3,7.3c4,0,7.3-3.3,7.3-7.3C265.6,204.9,262.4,201.6,258.4,201.6
				 M240.7,201.2l3.6,6.9h-1.9c-0.2-2-1.3-3.8-2.9-5L240.7,201.2z M240.8,208.1h-4.1l2.1-3.6C239.8,205.4,240.6,206.7,240.8,208.1
				 M235.2,214.5c-3.1,0-5.6-2.5-5.6-5.6c0-3.1,2.5-5.6,5.6-5.6c0.7,0,1.5,0.1,2.1,0.4l-2.8,4.8c-0.1,0.3-0.2,0.6,0,0.8
				c0.1,0.3,0.4,0.4,0.7,0.4h5.6C240.4,212.4,238,214.5,235.2,214.5 M246,207.4c0,0-0.1,0-0.1,0l-3.7-7.1h10.6L246,207.4z
				 M258.4,214.5c-3.1,0-5.6-2.5-5.6-5.6c0-2.1,1.1-3.9,2.8-4.9c1.1,2.8,2,5.1,2,5.2c0.1,0.3,0.4,0.5,0.8,0.5c0.1,0,0.2,0,0.3-0.1
				c0.4-0.2,0.6-0.6,0.5-1.1c0,0-0.9-2.4-2-5.2c0.4-0.1,0.8-0.1,1.3-0.1c3.1,0,5.6,2.5,5.6,5.6C264,212,261.5,214.5,258.4,214.5"/>
		</g>
		<g>
			<radialGradient id="SVGID_3_" cx="313.5804" cy="201.707" r="36.2266" gradientUnits="userSpaceOnUse">
				<stop  offset="8.673878e-03" style="stop-color:#63AFAA"/>
				<stop  offset="0.2912" style="stop-color:#5FA8A2"/>
				<stop  offset="0.7473" style="stop-color:#56978F"/>
				<stop  offset="1" style="stop-color:#508D84"/>
			</radialGradient>
			<path class="st6" d="M336.6,188.1v27.2c0,5.2-4.2,9.4-9.4,9.4H300c-5.2,0-9.4-4.2-9.4-9.4v-27.2c0-5.2,4.2-9.4,9.4-9.4h27.2
				C332.4,178.7,336.6,182.9,336.6,188.1z"/>
			<path class="st3" d="M336.6,206.1v9.2c0,5.2-4.2,9.4-9.4,9.4h-16l-9.5-9.5l0.4-1l0.3-1.8l-1-1.4l-1.4-3.7l2.1-3l1.4-4.4l1.6-7.3
				l9.4-0.4l8.7,0.3L336.6,206.1z"/>
			<g>
				<path class="st4" d="M328.1,201.5c-0.4-0.2-0.8-0.2-0.9-0.8h0l-1.1-5c-0.2-1.2-0.7-2.3-1.4-3c-0.8-0.9-1.9-1.4-3.2-1.4h-7.2
					h-1.4h-5.8c-1.2,0-2.3,0.5-3.2,1.4c-0.7,0.8-1.2,1.8-1.4,3l-1.1,5h0c-0.1,0.6-0.5,0.6-0.9,0.8c-1.1,0.5-1.6,1.7-1.6,3v5
					c0,0.9,0.5,2.2,2.4,2.2v3.2c0,0.5,0.4,0.9,0.9,0.9h2.8c0.5,0,0.9-0.4,0.9-0.9v-3.2h7.2h1.4h8.6v3.2c0,0.5,0.4,0.9,0.9,0.9h2.8
					c0.5,0,0.9-0.4,0.9-0.9v-3.2c1.9,0,2.4-1.3,2.4-2.2v-5C329.8,203.2,329.2,202,328.1,201.5 M303.9,208.6c-1.1,0-1.9-0.9-1.9-1.9
					c0-1.1,0.9-1.9,1.9-1.9c1.1,0,1.9,0.9,1.9,1.9C305.9,207.7,305,208.6,303.9,208.6 M312.9,201.4h-7.8v0c0,0,0,0,0,0H305
					c-0.5,0-1-0.5-1-1c0-0.1,0-0.1,0-0.2l0.9-4.2c0.1-0.7,0.9-2.5,2.9-2.5h5.1h1.4h6.5c2.1,0,2.8,1.8,2.9,2.5l0.9,4.2
					c0,0.1,0,0.1,0,0.2c0,0.6-0.4,1-1,1h-0.1c0,0,0,0,0,0v0h-9.2H312.9z M324.7,208.6c-1.1,0-1.9-0.9-1.9-1.9c0-1.1,0.9-1.9,1.9-1.9
					c1.1,0,1.9,0.9,1.9,1.9C326.6,207.7,325.8,208.6,324.7,208.6"/>
				<path class="st4" d="M309.9,198.2L309.9,198.2L309.9,198.2L309.9,198.2c1.1,0,1.8-0.9,1.8-1.8c0-1-0.8-1.8-1.8-1.8h0h0h0
					c-1,0-1.8,0.9-1.8,1.8C308.1,197.3,308.9,198.2,309.9,198.2"/>
				<path class="st4" d="M312.2,198.7h-4.6c-0.8,0-1.6,0.7-1.6,1.6v0.3c0,0.1,0.1,0.2,0.2,0.2h7.3c0.1,0,0.2-0.1,0.2-0.2v-0.3
					C313.8,199.4,313,198.7,312.2,198.7"/>
				<path class="st4" d="M318.7,198.2L318.7,198.2L318.7,198.2L318.7,198.2c1.1,0,1.8-0.9,1.8-1.8c0-1-0.8-1.8-1.8-1.8h0h0h0
					c-1,0-1.8,0.9-1.8,1.8C316.9,197.3,317.7,198.2,318.7,198.2"/>
				<path class="st4" d="M321,198.7h-4.6c-0.8,0-1.6,0.7-1.6,1.6v0.3c0,0.1,0.1,0.2,0.2,0.2h7.3c0.1,0,0.2-0.1,0.2-0.2v-0.3
					C322.6,199.4,321.8,198.7,321,198.7"/>
			</g>
		</g>
		<g>
			<radialGradient id="SVGID_4_" cx="448.7574" cy="201.707" r="36.2266" gradientUnits="userSpaceOnUse">
				<stop  offset="8.673878e-03" style="stop-color:#63AFAA"/>
				<stop  offset="0.2912" style="stop-color:#5FA8A2"/>
				<stop  offset="0.7473" style="stop-color:#56978F"/>
				<stop  offset="1" style="stop-color:#508D84"/>
			</radialGradient>
			<path class="st7" d="M471.8,188.1v27.2c0,5.2-4.2,9.4-9.4,9.4h-27.2c-5.2,0-9.4-4.2-9.4-9.4v-27.2c0-5.2,4.2-9.4,9.4-9.4h27.2
				C467.5,178.7,471.8,182.9,471.8,188.1z"/>
			<path class="st3" d="M471.8,199.4v15.9c0,5.2-4.2,9.4-9.4,9.4h-19.8l-9.2-5.2l2.4-1.9l3-7l-0.6-8.8l0.8-14.2l4-3.3l14.6,0.8
				L471.8,199.4z"/>
			<g>
				<path class="st4" d="M464.1,219.4l-4.9-8.6c-0.1-0.1-0.2-0.2-0.4-0.2h-20.1c-0.2,0-0.3,0.1-0.4,0.2l-4.9,8.7
					c-0.1,0.1-0.1,0.3,0,0.4c0.1,0.1,0.2,0.2,0.4,0.2h3.4c0.2,0,0.3-0.1,0.4-0.3l0.9-2.1h20.6l0.9,2.1c0.1,0.2,0.2,0.3,0.4,0.3h3.4
					h0c0.2,0,0.4-0.2,0.4-0.4C464.2,219.6,464.1,219.5,464.1,219.4 M458,215.3h-18.5l0.9-2.2h16.6L458,215.3z"/>
				<path class="st4" d="M460.3,194.8c-0.2-2.8-0.3-5.5-1-8.3c-0.3-1.2-1.5-1.7-2.6-2.1c-2.2-0.7-5.6-1.2-8-1.2h0
					c-2.3,0-5.7,0.5-8,1.2c-1,0.3-2.2,0.9-2.6,2.1c-0.7,2.8-0.8,5.5-1,8.3c-0.3,3.4-0.2,8-0.2,8l1,4.9c0.1,0.6,0.5,1.2,1.2,1.2h19.2
					c0.6,0,1-0.5,1.2-1.2l1-4.9C460.5,202.8,460.7,198.2,460.3,194.8 M458.2,197.4h-5.5h-7.9h-5.5c-0.4,0-0.7-0.3-0.7-0.7l0.6-8.2
					c0-0.4,0.3-0.7,0.7-0.7l17.6,0c0.4,0,0.7,0.3,0.7,0.7l0.6,8.2C458.9,197.1,458.6,197.4,458.2,197.4 M455.4,206.5
					c-1,0-1.8-0.8-1.8-1.8c0-1,0.8-1.9,1.8-1.9c1,0,1.8,0.8,1.8,1.9C457.3,205.7,456.5,206.5,455.4,206.5 M442.2,206.5
					c-1,0-1.8-0.8-1.8-1.8c0-1,0.8-1.9,1.8-1.9c1,0,1.8,0.8,1.8,1.9C444,205.7,443.2,206.5,442.2,206.5 M450.6,186.6h-3.6
					c-0.5,0-0.9-0.4-0.9-0.9c0-0.5,0.4-0.9,0.9-0.9h3.6c0.5,0,0.9,0.4,0.9,0.9C451.5,186.2,451.1,186.6,450.6,186.6"/>
			</g>
		</g>
		<g>
			<radialGradient id="SVGID_5_" cx="516.3459" cy="201.707" r="36.2266" gradientUnits="userSpaceOnUse">
				<stop  offset="8.673878e-03" style="stop-color:#63AFAA"/>
				<stop  offset="0.2912" style="stop-color:#5FA8A2"/>
				<stop  offset="0.7473" style="stop-color:#56978F"/>
				<stop  offset="1" style="stop-color:#508D84"/>
			</radialGradient>
			<path class="st8" d="M539.4,188.1v27.2c0,5.2-4.2,9.4-9.4,9.4h-27.2c-5.2,0-9.4-4.2-9.4-9.4v-27.2c0-5.2,4.2-9.4,9.4-9.4h27.2
				C535.1,178.7,539.4,182.9,539.4,188.1z"/>
			<path class="st3" d="M539.4,200.4v14.9c0,5.2-4.2,9.4-9.4,9.4h-15.5l-9.2-8.4l-2.4-4.9l0.9-10.2l1.1-10.9l2-2l20.4-0.2
				L539.4,200.4z"/>
			<path class="st4" d="M529.8,204.4l-1-13c-0.1-1.4-0.6-2.6-1.5-3.3c-0.9-0.8-2-1.2-3.2-1.2h-7.8h-0.3h-7.5c-1.2,0-2.3,0.4-3.2,1.2
				c-0.9,0.8-1.4,2-1.5,3.3l-1,13l-0.1,5.6c0,1.2,0,2.5,2.1,2.5v3.2c0,1,1.3,1,2.3,1c1,0,2.1,0,2.1-1v-3.2h6.8h0.3h7v3.2
				c0,1,1.1,1,2.1,1c1,0,2.3,0,2.3-1v-3.2c2,0,2.1-1.3,2.1-2.5L529.8,204.4z M507.5,209.8c-1,0-1.9-0.8-1.9-1.9s0.8-1.9,1.9-1.9
				c1,0,1.9,0.8,1.9,1.9S508.5,209.8,507.5,209.8 M525.2,209.8c-1,0-1.9-0.8-1.9-1.9s0.8-1.9,1.9-1.9c1,0,1.9,0.8,1.9,1.9
				S526.3,209.8,525.2,209.8 M524.8,203.6h-16.9c-1.4,0-2.8-1.2-2.6-2.6l0.7-6.7c0.1-1.5,1-2.9,2.5-2.9h7.7h0.3h7.9
				c1.4,0,2.4,1.4,2.5,2.9l0.7,6.7C527.6,202.4,526.3,203.6,524.8,203.6"/>
		</g>
		<g>
			<radialGradient id="SVGID_6_" cx="178.4034" cy="201.707" r="36.2266" gradientUnits="userSpaceOnUse">
				<stop  offset="8.673878e-03" style="stop-color:#63AFAA"/>
				<stop  offset="0.2912" style="stop-color:#5FA8A2"/>
				<stop  offset="0.7473" style="stop-color:#56978F"/>
				<stop  offset="1" style="stop-color:#508D84"/>
			</radialGradient>
			<path class="st9" d="M201.4,188.1v27.2c0,5.2-4.2,9.4-9.4,9.4h-27.2c-5.2,0-9.4-4.2-9.4-9.4v-27.2c0-5.2,4.2-9.4,9.4-9.4H192
				C197.2,178.7,201.4,182.9,201.4,188.1z"/>
			<path class="st3" d="M201.4,209.7v5.6c0,5.2-4.2,9.4-9.4,9.4h-13.2l-8.3-8.3l4.6-8.8l-3.4-3.4l0.6-2.5l2.2-3.4l4.2-3.8l-0.1-2.4
				l2.3-3.1L201.4,209.7z"/>
			<g>
				<path class="st4" d="M187.9,201.9l-3.7-0.8l-2.6-5.2c0-0.1-0.1-0.1-0.1-0.2c-0.3-0.5-0.8-0.9-1.5-1.1c-0.6-0.1-1.1-0.1-1.6,0.2
					c0,0-0.1,0-0.1,0.1l-4.8,2.8c-0.2,0.1-0.4,0.3-0.5,0.5l-2.2,4.2c-0.3,0.6-0.1,1.3,0.5,1.6c0.2,0.1,0.4,0.1,0.5,0.1
					c0.4,0,0.8-0.2,1.1-0.6l2-3.9l1.5-0.9l-1.4,4.7c0,0,0,0,0,0c0,0.1,0,0.1,0,0.2c0,0-1,6.7-1,6.9l-4.1,4.9c-0.5,0.6-0.4,1.5,0.2,2
					c0.3,0.2,0.6,0.3,0.9,0.3c0.4,0,0.8-0.2,1.1-0.5l4.9-5.8v0c0,0,0.1-0.1,0.1-0.1c0,0,0,0,0,0c0,0,0-0.1,0.1-0.1c0,0,0,0,0,0
					c0,0,0,0,0-0.1c0,0,0,0,0-0.1c0,0,0,0,0-0.1c0,0,0,0,0-0.1c0,0,0,0,0-0.1c0,0,0,0,0-0.1c0,0,0,0,0,0l0.7-4.3l3.7,3.8v6.6
					c0,0.8,0.6,1.4,1.4,1.4c0.8,0,1.4-0.6,1.4-1.4v-7.4c0-0.4-0.2-0.8-0.4-1l0,0l-3.6-4l0.8-3.8l1.2,2.4c0.2,0.3,0.5,0.5,0.8,0.6
					l4.2,0.9c0.1,0,0.2,0,0.3,0c0.5,0,1-0.4,1.2-0.9C188.9,202.6,188.5,202,187.9,201.9"/>
				<path class="st4" d="M182.6,191.5c0-1.3-1.1-2.4-2.4-2.4c-1.3,0-2.4,1.1-2.4,2.4c0,1.3,1.1,2.4,2.4,2.4
					C181.5,193.9,182.6,192.8,182.6,191.5"/>
			</g>
		</g>
	</g>
</g>
</svg>
