<?xml version="1.0" encoding="utf-8"?>
<!-- Generator: Adobe Illustrator 22.0.1, SVG Export Plug-In . SVG Version: 6.00 Build 0)  -->
<svg version="1.1" id="Layer_1" xmlns="http://www.w3.org/2000/svg" xmlns:xlink="http://www.w3.org/1999/xlink" x="0px" y="0px"
	 viewBox="0 0 562 240.5" style="enable-background:new 0 0 562 240.5;" xml:space="preserve">
<style type="text/css">
	.st0{fill:#62AEAA;}
	.st1{fill:#636569;}
	.st2{fill:#63AEAB;}
	.st3{fill:url(#SVGID_1_);}
	.st4{fill:#508D84;}
	.st5{fill:#FFFFFF;}
	.st6{fill:url(#SVGID_2_);}
	.st7{fill:url(#SVGID_3_);}
	.st8{fill:url(#SVGID_4_);}
	.st9{fill:url(#SVGID_5_);}
	.st10{fill:url(#SVGID_6_);}
</style>
<g>
	<g>
		<g>
			<path class="st0" d="M27,149.5c-1.7-1.2-3-3.4-3-5.9c0-4,3.2-7.1,7.2-7.1c2.1,0,3.5,0.6,4.5,1.4c7.2,5.7,14.9,9,24.4,9
				s15.4-4.5,15.4-11v-0.2c0-6.2-3.5-9.6-19.7-13.3c-18.5-4.5-29-10-29-26v-0.2c0-14.9,12.4-25.3,29.8-25.3c11,0,19.8,2.9,27.6,8.1
				c1.7,1,3.4,3.1,3.4,6.1c0,4-3.2,7.1-7.2,7.1c-1.5,0-2.7-0.4-4-1.1c-6.7-4.4-13.2-6.6-20-6.6c-9,0-14.2,4.6-14.2,10.3v0.2
				c0,6.7,4,9.7,20.8,13.7c18.4,4.5,27.9,11.1,27.9,25.5v0.2c0,16.3-12.8,26-31.1,26C47.9,160.4,36.7,156.7,27,149.5z"/>
			<path class="st0" d="M107.5,122.2V79c0-4.2,3.4-7.6,7.7-7.6c4.2,0,7.6,3.4,7.6,7.6v42.6c0,16.2,8.3,24.8,22,24.8
				c13.6,0,21.9-8.1,21.9-24.2V79c0-4.2,3.4-7.6,7.7-7.6c4.2,0,7.6,3.4,7.6,7.6v42.5c0,26-14.7,39.1-37.5,39.1
				C122,160.5,107.5,147.5,107.5,122.2z"/>
			<path class="st0" d="M203.1,79.7c0-4.4,3.4-7.7,7.7-7.7H242c11,0,19.5,3.2,25.1,8.7c4.6,4.7,7.2,11.2,7.2,18.8v0.2
				c0,13.9-8.1,22.4-19.8,26l16.7,21c1.5,1.9,2.5,3.5,2.5,5.9c0,4.2-3.6,7.1-7.3,7.1c-3.5,0-5.7-1.6-7.5-4l-21.2-27h-19.3v23.4
				c0,4.2-3.4,7.6-7.6,7.6c-4.4,0-7.7-3.4-7.7-7.6V79.7z M240.8,115.2c11,0,17.9-5.7,17.9-14.6v-0.2c0-9.3-6.7-14.4-18.1-14.4h-22.3
				v29.3H240.8z"/>
			<path class="st0" d="M316.8,154.2l-30.5-71.7c-0.5-1.1-0.9-2.2-0.9-3.6c0-4.1,3.4-7.5,7.7-7.5c4,0,6.6,2.2,7.8,5.5l25.1,62.9
				l25.5-63.4c1-2.6,3.7-5,7.3-5c4.2,0,7.6,3.2,7.6,7.3c0,1.1-0.4,2.4-0.7,3.2l-30.6,72.2c-1.6,3.9-4.5,6.2-8.8,6.2h-0.9
				C321.2,160.4,318.4,158,316.8,154.2z"/>
			<path class="st0" d="M382.7,151.4V79.7c0-4.4,3.4-7.7,7.7-7.7h50.7c3.7,0,6.8,3.1,6.8,6.8c0,3.9-3.1,6.8-6.8,6.8H398v22.7h37.5
				c3.7,0,6.8,3.1,6.8,7c0,3.7-3.1,6.7-6.8,6.7H398v23.4h43.7c3.7,0,6.8,3.1,6.8,6.8c0,3.9-3.1,6.8-6.8,6.8h-51.3
				C386.1,159.2,382.7,155.8,382.7,151.4z"/>
			<path class="st0" d="M490.7,125.3l-30-41.2c-1-1.5-1.7-3.2-1.7-5.4c0-4.1,3.4-7.3,7.7-7.3c3.4,0,5.6,1.9,7.5,4.6l24.3,35
				L523,75.9c1.9-2.7,4.1-4.6,7.3-4.6c4.5,0,7.5,3.4,7.5,7.5c0,2.1-1,4-2.1,5.5L506,124.9v27.3c0,4.2-3.4,7.6-7.7,7.6
				c-4.2,0-7.6-3.4-7.6-7.6V125.3z"/>
		</g>
	</g>
	<g>
		<path class="st1" d="M25.6,37.5L25.6,37.5c0-9.1,7.1-16.5,17-16.5s16.9,7.3,16.9,16.4v0.1c0,9-7.1,16.5-17,16.5
			S25.6,46.6,25.6,37.5z M52.1,37.5L52.1,37.5c0-5.5-4-10.1-9.6-10.1s-9.5,4.5-9.5,9.9v0.1c0,5.5,4,10,9.6,10
			C48.2,47.4,52.1,43,52.1,37.5z"/>
		<path class="st1" d="M65.7,25c0-2,1.5-3.5,3.5-3.5h11c4,0,7.2,1.1,9.3,3.2c1.8,1.8,2.7,4.3,2.7,7.3v0.1c0,5-2.5,8.1-6.4,9.7
			l4.9,5.9c0.7,0.9,1.1,1.6,1.1,2.7c0,2-1.6,3.2-3.3,3.2c-1.6,0-2.6-0.8-3.5-1.8l-6.8-8.6h-5.6v7c0,2-1.5,3.5-3.5,3.5
			c-2,0-3.5-1.5-3.5-3.5V25z M79.7,37c3.4,0,5.4-1.8,5.4-4.5v-0.1c0-3-2.1-4.5-5.5-4.5h-7V37H79.7z"/>
		<path class="st1" d="M98.8,24.8c0-2,1.5-3.5,3.5-3.5s3.5,1.5,3.5,3.5v25.4c0,2-1.5,3.5-3.5,3.5s-3.5-1.5-3.5-3.5V24.8z"/>
		<path class="st1" d="M112.4,37.5L112.4,37.5c0-9.1,7-16.5,16.7-16.5c4.8,0,8,1.1,10.9,3.1c0.7,0.5,1.5,1.5,1.5,2.8
			c0,1.9-1.5,3.5-3.5,3.5c-1,0-1.6-0.4-2.1-0.7c-1.9-1.4-4-2.2-7-2.2c-5.1,0-9.1,4.5-9.1,9.9v0.1c0,5.8,4,10.1,9.6,10.1
			c2.5,0,4.8-0.6,6.6-1.9v-4.5h-4.7c-1.7,0-3-1.3-3-3s1.4-3,3-3h8c2,0,3.5,1.5,3.5,3.5v7.7c0,2-0.8,3.5-2.5,4.5
			c-2.6,1.6-6.4,3.2-11.1,3.2C119.2,53.9,112.4,46.9,112.4,37.5z"/>
		<path class="st1" d="M149.7,24.8c0-2,1.5-3.5,3.5-3.5c2,0,3.5,1.5,3.5,3.5v25.4c0,2-1.5,3.5-3.5,3.5c-2,0-3.5-1.5-3.5-3.5V24.8z"
			/>
		<path class="st1" d="M164.7,24.8c0-2,1.5-3.5,3.5-3.5h0.7c1.7,0,2.7,0.8,3.6,2L186,41.1V24.7c0-1.9,1.5-3.5,3.5-3.5
			c1.9,0,3.5,1.5,3.5,3.5V50c0,2-1.5,3.5-3.5,3.5h-0.2c-1.7,0-2.7-0.8-3.6-2l-14-18.4v17c0,1.9-1.5,3.5-3.5,3.5
			c-1.9,0-3.5-1.5-3.5-3.5V24.8z"/>
		<path class="st1" d="M198.8,39.3c0-1.8,1.5-3.3,3.3-3.3h7.9c1.8,0,3.3,1.5,3.3,3.3c0,1.8-1.5,3.3-3.3,3.3h-7.9
			C200.3,42.6,198.8,41.1,198.8,39.3z"/>
		<path class="st1" d="M219.1,25c0-2,1.5-3.5,3.5-3.5h8.9c10,0,16.9,6.9,16.9,15.8v0.1c0,9-6.9,15.9-16.9,15.9h-8.9
			c-2,0-3.5-1.5-3.5-3.5V25z M231.5,47c5.7,0,9.6-3.9,9.6-9.5v-0.1c0-5.6-3.9-9.6-9.6-9.6h-5.4V47H231.5z"/>
		<path class="st1" d="M254.6,49.8V25c0-2,1.5-3.5,3.5-3.5h17.6c1.7,0,3.1,1.4,3.1,3.1s-1.4,3.1-3.1,3.1h-14.2v6.5h12.1
			c1.7,0,3.1,1.4,3.1,3.1c0,1.7-1.4,3.1-3.1,3.1h-12.1v6.7H276c1.7,0,3.1,1.4,3.1,3.1c0,1.7-1.4,3.1-3.1,3.1h-17.9
			C256.2,53.3,254.6,51.8,254.6,49.8z"/>
		<path class="st1" d="M284.5,50c-0.8-0.5-1.3-1.5-1.3-2.6c0-1.8,1.5-3.2,3.3-3.2c0.9,0,1.5,0.3,2,0.6c2.4,1.8,5,2.9,8.1,2.9
			c2.9,0,4.6-1.1,4.6-3v-0.1c0-1.8-1.1-2.7-6.4-4c-6.4-1.6-10.5-3.4-10.5-9.7v-0.1c0-5.8,4.6-9.6,11.1-9.6c3.9,0,7.2,1,10.1,2.8
			c0.8,0.5,1.5,1.4,1.5,2.8c0,1.8-1.5,3.2-3.3,3.2c-0.7,0-1.2-0.2-1.8-0.5c-2.3-1.4-4.5-2.1-6.7-2.1c-2.7,0-4.1,1.2-4.1,2.8v0.1
			c0,2.1,1.4,2.8,6.9,4.2c6.5,1.7,10.1,4,10.1,9.5v0.1c0,6.3-4.8,9.9-11.7,9.9C292.2,53.8,288,52.5,284.5,50z"/>
		<path class="st1" d="M320.9,28h-6.7c-1.8,0-3.2-1.5-3.2-3.2s1.5-3.2,3.2-3.2h20.5c1.8,0,3.2,1.5,3.2,3.2s-1.5,3.2-3.2,3.2h-6.7
			v22.1c0,2-1.5,3.5-3.5,3.5c-2,0-3.5-1.5-3.5-3.5V28z"/>
		<path class="st1" d="M343.3,24.8c0-2,1.5-3.5,3.5-3.5s3.5,1.5,3.5,3.5v25.4c0,2-1.5,3.5-3.5,3.5s-3.5-1.5-3.5-3.5V24.8z"/>
		<path class="st1" d="M358.2,24.8c0-2,1.5-3.5,3.5-3.5h0.7c1.7,0,2.7,0.8,3.6,2l13.5,17.7V24.7c0-1.9,1.5-3.5,3.5-3.5
			c1.9,0,3.5,1.5,3.5,3.5V50c0,2-1.5,3.5-3.5,3.5h-0.2c-1.7,0-2.7-0.8-3.6-2l-14-18.4v17c0,1.9-1.5,3.5-3.5,3.5s-3.5-1.5-3.5-3.5
			V24.8z"/>
		<path class="st1" d="M392.3,48.9l11.1-25c0.8-1.7,2.2-2.8,4.1-2.8h0.4c1.9,0,3.3,1,4,2.8l11.1,25c0.2,0.5,0.4,1,0.4,1.4
			c0,1.9-1.5,3.4-3.3,3.4c-1.6,0-2.7-1-3.4-2.4l-2.1-5h-14l-2.2,5.2c-0.6,1.4-1.8,2.2-3.2,2.2c-1.8,0-3.2-1.5-3.2-3.3
			C391.9,49.8,392.1,49.4,392.3,48.9z M412,40l-4.4-10.5L403.2,40H412z"/>
		<path class="st1" d="M432.9,28h-6.7c-1.8,0-3.2-1.5-3.2-3.2s1.5-3.2,3.2-3.2h20.5c1.8,0,3.2,1.5,3.2,3.2s-1.5,3.2-3.2,3.2h-6.7
			v22.1c0,2-1.5,3.5-3.5,3.5c-2,0-3.5-1.5-3.5-3.5V28z"/>
		<path class="st1" d="M455.3,24.8c0-2,1.5-3.5,3.5-3.5s3.5,1.5,3.5,3.5v25.4c0,2-1.5,3.5-3.5,3.5s-3.5-1.5-3.5-3.5V24.8z"/>
		<path class="st1" d="M468.8,37.5L468.8,37.5c0-9.1,7.1-16.5,17-16.5s16.9,7.3,16.9,16.4v0.1c0,9-7.1,16.5-17,16.5
			S468.8,46.6,468.8,37.5z M495.3,37.5L495.3,37.5c0-5.5-4-10.1-9.6-10.1s-9.5,4.5-9.5,9.9v0.1c0,5.5,4,10,9.6,10
			C491.4,47.4,495.3,43,495.3,37.5z"/>
		<path class="st1" d="M508.9,24.8c0-2,1.5-3.5,3.5-3.5h0.7c1.7,0,2.7,0.8,3.6,2l13.5,17.7V24.7c0-1.9,1.5-3.5,3.5-3.5
			c1.9,0,3.5,1.5,3.5,3.5V50c0,2-1.5,3.5-3.5,3.5h-0.2c-1.7,0-2.7-0.8-3.6-2l-14-18.4v17c0,1.9-1.5,3.5-3.5,3.5s-3.5-1.5-3.5-3.5
			V24.8z"/>
	</g>
</g>
<g>
	<path class="st2" d="M26.3,209.8l10-8.2c4.4-3.6,6.1-5.5,6.1-8.5c0-3-2-4.6-4.7-4.6c-2.2,0-3.8,1-5.7,3.1c-0.5,0.6-1.4,1.1-2.6,1.1
		c-2,0-3.5-1.6-3.5-3.5c0-0.9,0.4-1.8,0.9-2.4c2.8-3.3,6.1-5.2,11.5-5.2c7.3,0,12.1,4.3,12.1,10.9v0.1c0,5.9-3,8.8-9.3,13.7
		l-5.7,4.4h12.3c1.9,0,3.4,1.5,3.4,3.4c0,1.9-1.5,3.3-3.4,3.3H28.5c-2.4,0-4.2-1.4-4.2-3.7C24.3,212.2,25,210.9,26.3,209.8z"/>
	<path class="st2" d="M56.3,199.8v-0.1c0-10.2,6.3-18.2,15.7-18.2c9.3,0,15.6,7.9,15.6,18.1v0.1c0,10.2-6.3,18.2-15.7,18.2
		S56.3,210.1,56.3,199.8z M79.6,199.8v-0.1c0-6.4-3.1-11.2-7.8-11.2s-7.7,4.7-7.7,11.1v0.1c0,6.4,3.1,11.2,7.8,11.2
		C76.7,211,79.6,206.2,79.6,199.8z"/>
	<path class="st2" d="M99.1,189.2l-2.7,0.7c-0.4,0.1-1,0.2-1.4,0.2c-1.8,0-3.4-1.5-3.4-3.3c0-1.6,1-2.9,2.6-3.3l5-1.5
		c1.5-0.4,2.6-0.7,3.6-0.7h0.1c2.1,0,3.8,1.7,3.8,3.8v28.4c0,2.1-1.7,3.8-3.8,3.8c-2.1,0-3.8-1.7-3.8-3.8V189.2z"/>
	<path class="st2" d="M113.7,207.4v-0.1c0-4.3,2-6.8,5.7-8.5c-2.7-1.7-4.5-3.9-4.5-7.7V191c0-5.4,4.9-9.7,12.4-9.7
		c7.5,0,12.4,4.2,12.4,9.7v0.1c0,3.8-1.8,6-4.5,7.7c3.6,1.9,5.7,4.1,5.7,8.3v0.1c0,6.6-5.8,10.4-13.6,10.4S113.7,213.6,113.7,207.4z
		 M133.4,206.8v-0.1c0-2.7-2.6-4.3-6.1-4.3c-3.5,0-6.1,1.6-6.1,4.3v0.1c0,2.4,2.3,4.4,6.1,4.4C131.1,211.2,133.4,209.3,133.4,206.8z
		 M132.3,192v-0.1c0-2.2-1.9-4.1-5-4.1c-3.2,0-5,1.9-5,4.1v0.1c0,2.5,2,4.3,5,4.3C130.4,196.3,132.3,194.4,132.3,192z"/>
</g>
<g>
	<g>
		<radialGradient id="SVGID_1_" cx="381.1689" cy="198.2524" r="36.2269" gradientUnits="userSpaceOnUse">
			<stop  offset="8.673878e-03" style="stop-color:#63AFAA"/>
			<stop  offset="0.2912" style="stop-color:#5FA8A2"/>
			<stop  offset="0.7473" style="stop-color:#56978F"/>
			<stop  offset="1" style="stop-color:#508D84"/>
		</radialGradient>
		<path class="st3" d="M404.2,184.7v27.2c0,5.2-4.2,9.4-9.4,9.4h-27.2c-5.2,0-9.4-4.2-9.4-9.4v-27.2c0-5.2,4.2-9.4,9.4-9.4h27.2
			C400,175.2,404.2,179.5,404.2,184.7z"/>
		<path class="st4" d="M404.2,198.4v13.5c0,5.2-4.2,9.4-9.4,9.4l-13.6-0.2l-12.8-12.9l12.8,4.6v-6.6v-20.5l10.8,0.5l1.7,1.7
			L404.2,198.4z"/>
		<path class="st5" d="M397.5,198.9c0-2.2-0.4-4.3-1.3-6.3c-0.8-1.9-2-3.7-3.5-5.2c-1.5-1.5-3.2-2.7-5.2-3.5c-2-0.8-4.1-1.3-6.3-1.3
			c-2.2,0-4.3,0.4-6.3,1.3c-1.9,0.8-3.7,2-5.2,3.5c-1.5,1.5-2.7,3.2-3.5,5.2c-0.8,2-1.3,4.1-1.3,6.3c0,2.2,0.4,4.3,1.3,6.3
			c0.8,1.9,2,3.7,3.5,5.2c1.5,1.5,3.2,2.7,5.2,3.5c2,0.8,4.1,1.3,6.3,1.3c2.2,0,4.3-0.4,6.3-1.3c1.9-0.8,3.7-2,5.2-3.5
			c1.5-1.5,2.7-3.2,3.5-5.2C397,203.2,397.5,201.1,397.5,198.9 M392.6,203.7c-0.6,1.5-1.5,2.8-2.7,3.9c-1.1,1.1-2.5,2-3.9,2.7
			c-1.5,0.6-3.2,1-4.8,1c-1.7,0-3.3-0.3-4.8-1c-1.5-0.6-2.8-1.5-3.9-2.7c-1.1-1.1-2-2.5-2.7-3.9c-0.6-1.5-1-3.2-1-4.8
			c0-1.5,0.3-2.9,0.8-4.3c0.5-1.3,1.2-2.6,2.1-3.7c1.9-2.2,4.5-3.7,7.3-4.2c0,0,0,0,0,0c0,0,0,0,0.1,0c0,0,0,0,0,0.1v14.8
			c0,0,0,0.1-0.1,0.1c0,0,0,0,0,0c0,0-0.1,0-0.1,0l-5.7-5.7c-0.1-0.1-0.1-0.1-0.2-0.1c-0.1,0-0.2,0-0.2,0.1l-2.7,2.7
			c-0.1,0.1-0.1,0.2-0.1,0.2c0,0.1,0,0.2,0.1,0.2l9.8,9.8l1.4,1.4l0.2-0.2c0,0,0,0,0,0l10.9-10.9c0.1-0.1,0.1-0.3,0-0.5l-2.7-2.7
			c-0.1-0.1-0.1-0.1-0.2-0.1c-0.1,0-0.2,0-0.2,0.1l-5.7,5.7c0,0,0,0-0.1,0c0,0,0,0,0,0c0,0-0.1-0.1-0.1-0.1v-14.8c0,0,0-0.1,0-0.1
			c0,0,0,0,0.1,0c0,0,0,0,0,0c2.8,0.5,5.4,2,7.3,4.2c0.9,1.1,1.6,2.3,2.1,3.7c0.5,1.4,0.8,2.8,0.8,4.3
			C393.6,200.5,393.2,202.2,392.6,203.7"/>
	</g>
	<g>
		<radialGradient id="SVGID_2_" cx="245.9919" cy="198.2524" r="36.2269" gradientUnits="userSpaceOnUse">
			<stop  offset="8.673878e-03" style="stop-color:#63AFAA"/>
			<stop  offset="0.2912" style="stop-color:#5FA8A2"/>
			<stop  offset="0.7473" style="stop-color:#56978F"/>
			<stop  offset="1" style="stop-color:#508D84"/>
		</radialGradient>
		<path class="st6" d="M269,184.7v27.2c0,5.2-4.2,9.4-9.4,9.4h-27.2c-5.2,0-9.4-4.2-9.4-9.4v-27.2c0-5.2,4.2-9.4,9.4-9.4h27.2
			C264.8,175.2,269,179.5,269,184.7z"/>
		<path class="st4" d="M269,202.6v9.2c0,5.2-4.2,9.4-9.4,9.4H241l-11.7-11.8l-0.5-2.5v-4l1.9-2.6l4.2-1.2l4,0.3l0.9-3.5l-2.3-4.2
			l14.5-2.2L269,202.6z"/>
		<path class="st5" d="M258.4,198.2c-0.7,0-1.3,0.1-1.9,0.2c-0.3-0.9-0.7-1.7-1-2.6c0-0.1,0-0.1-0.1-0.2c0,0,0-0.1-0.1-0.1
			c-0.7-1.7-1.3-3.2-1.7-4.2c-0.5-1.3-1.4-1.9-2.5-1.9c-1.5,0-2.4,0-2.4,0h0c-0.5,0-0.8,0.4-0.8,0.8c0,0.5,0.4,0.8,0.8,0.8
			c0,0,0.9,0,2.4,0c0.4,0,0.7,0.2,1,0.9c0.3,0.8,0.8,1.9,1.3,3.2h-12.2l-1-1.8h1.7c0.5,0,0.8-0.4,0.8-0.8s-0.4-0.8-0.8-0.8h-4.5
			c-0.5,0-0.8,0.4-0.8,0.8s0.4,0.8,0.8,0.8h0.9l1.4,2.6l-1.7,2.8c-0.9-0.4-1.9-0.6-2.9-0.6c-4,0-7.3,3.3-7.3,7.3
			c0,4,3.3,7.3,7.3,7.3c3.7,0,6.8-2.8,7.2-6.4h2c0.3,0.4,0.7,0.7,1.3,0.7c0.8,0,1.5-0.7,1.5-1.5c0-0.1,0-0.2,0-0.4l7.2-7.6
			c0.2,0.5,0.4,1,0.6,1.5c-2.3,1.2-3.8,3.6-3.8,6.4c0,4,3.3,7.3,7.3,7.3c4,0,7.3-3.3,7.3-7.3C265.6,201.4,262.4,198.2,258.4,198.2
			 M240.7,197.7l3.6,6.9h-1.9c-0.2-2-1.3-3.8-2.9-5L240.7,197.7z M240.8,204.6h-4.1l2.1-3.6C239.8,201.9,240.6,203.2,240.8,204.6
			 M235.2,211.1c-3.1,0-5.6-2.5-5.6-5.6c0-3.1,2.5-5.6,5.6-5.6c0.7,0,1.5,0.1,2.1,0.4l-2.8,4.8c-0.1,0.3-0.2,0.6,0,0.8
			c0.1,0.3,0.4,0.4,0.7,0.4h5.6C240.4,209,238,211.1,235.2,211.1 M246,204c0,0-0.1,0-0.1,0l-3.7-7.1h10.6L246,204z M258.4,211.1
			c-3.1,0-5.6-2.5-5.6-5.6c0-2.1,1.1-3.9,2.8-4.9c1.1,2.8,2,5.1,2,5.2c0.1,0.3,0.4,0.5,0.8,0.5c0.1,0,0.2,0,0.3-0.1
			c0.4-0.2,0.6-0.6,0.5-1.1c0,0-0.9-2.4-2-5.2c0.4-0.1,0.8-0.1,1.3-0.1c3.1,0,5.6,2.5,5.6,5.6C264,208.6,261.5,211.1,258.4,211.1"/>
	</g>
	<g>
		<radialGradient id="SVGID_3_" cx="313.5804" cy="198.2525" r="36.2266" gradientUnits="userSpaceOnUse">
			<stop  offset="8.673878e-03" style="stop-color:#63AFAA"/>
			<stop  offset="0.2912" style="stop-color:#5FA8A2"/>
			<stop  offset="0.7473" style="stop-color:#56978F"/>
			<stop  offset="1" style="stop-color:#508D84"/>
		</radialGradient>
		<path class="st7" d="M336.6,184.7v27.2c0,5.2-4.2,9.4-9.4,9.4H300c-5.2,0-9.4-4.2-9.4-9.4v-27.2c0-5.2,4.2-9.4,9.4-9.4h27.2
			C332.4,175.2,336.6,179.5,336.6,184.7z"/>
		<path class="st4" d="M336.6,202.7v9.2c0,5.2-4.2,9.4-9.4,9.4h-16l-9.5-9.5l0.4-1l0.3-1.8l-1-1.4l-1.4-3.7l2.1-3l1.4-4.4l1.6-7.3
			l9.4-0.4l8.7,0.3L336.6,202.7z"/>
		<g>
			<path class="st5" d="M328.1,198c-0.4-0.2-0.8-0.2-0.9-0.8h0l-1.1-5c-0.2-1.2-0.7-2.3-1.4-3c-0.8-0.9-1.9-1.4-3.2-1.4h-7.2h-1.4
				h-5.8c-1.2,0-2.3,0.5-3.2,1.4c-0.7,0.8-1.2,1.8-1.4,3l-1.1,5h0c-0.1,0.6-0.5,0.6-0.9,0.8c-1.1,0.5-1.6,1.7-1.6,3v5
				c0,0.9,0.5,2.2,2.4,2.2v3.2c0,0.5,0.4,0.9,0.9,0.9h2.8c0.5,0,0.9-0.4,0.9-0.9v-3.2h7.2h1.4h8.6v3.2c0,0.5,0.4,0.9,0.9,0.9h2.8
				c0.5,0,0.9-0.4,0.9-0.9v-3.2c1.9,0,2.4-1.3,2.4-2.2v-5C329.8,199.7,329.2,198.5,328.1,198 M303.9,205.1c-1.1,0-1.9-0.9-1.9-1.9
				c0-1.1,0.9-1.9,1.9-1.9c1.1,0,1.9,0.9,1.9,1.9C305.9,204.3,305,205.1,303.9,205.1 M312.9,198h-7.8v0c0,0,0,0,0,0H305
				c-0.5,0-1-0.5-1-1c0-0.1,0-0.1,0-0.2l0.9-4.2c0.1-0.7,0.9-2.5,2.9-2.5h5.1h1.4h6.5c2.1,0,2.8,1.8,2.9,2.5l0.9,4.2
				c0,0.1,0,0.1,0,0.2c0,0.6-0.4,1-1,1h-0.1c0,0,0,0,0,0v0h-9.2H312.9z M324.7,205.1c-1.1,0-1.9-0.9-1.9-1.9c0-1.1,0.9-1.9,1.9-1.9
				c1.1,0,1.9,0.9,1.9,1.9C326.6,204.3,325.8,205.1,324.7,205.1"/>
			<path class="st5" d="M309.9,194.7L309.9,194.7L309.9,194.7L309.9,194.7c1.1,0,1.8-0.9,1.8-1.8c0-1-0.8-1.8-1.8-1.8h0h0h0
				c-1,0-1.8,0.9-1.8,1.8C308.1,193.9,308.9,194.7,309.9,194.7"/>
			<path class="st5" d="M312.2,195.2h-4.6c-0.8,0-1.6,0.7-1.6,1.6v0.3c0,0.1,0.1,0.2,0.2,0.2h7.3c0.1,0,0.2-0.1,0.2-0.2v-0.3
				C313.8,196,313,195.2,312.2,195.2"/>
			<path class="st5" d="M318.7,194.7L318.7,194.7L318.7,194.7L318.7,194.7c1.1,0,1.8-0.9,1.8-1.8c0-1-0.8-1.8-1.8-1.8h0h0h0
				c-1,0-1.8,0.9-1.8,1.8C316.9,193.9,317.7,194.7,318.7,194.7"/>
			<path class="st5" d="M321,195.2h-4.6c-0.8,0-1.6,0.7-1.6,1.6v0.3c0,0.1,0.1,0.2,0.2,0.2h7.3c0.1,0,0.2-0.1,0.2-0.2v-0.3
				C322.6,196,321.8,195.2,321,195.2"/>
		</g>
	</g>
	<g>
		<radialGradient id="SVGID_4_" cx="448.7574" cy="198.2525" r="36.2266" gradientUnits="userSpaceOnUse">
			<stop  offset="8.673878e-03" style="stop-color:#63AFAA"/>
			<stop  offset="0.2912" style="stop-color:#5FA8A2"/>
			<stop  offset="0.7473" style="stop-color:#56978F"/>
			<stop  offset="1" style="stop-color:#508D84"/>
		</radialGradient>
		<path class="st8" d="M471.8,184.7v27.2c0,5.2-4.2,9.4-9.4,9.4h-27.2c-5.2,0-9.4-4.2-9.4-9.4v-27.2c0-5.2,4.2-9.4,9.4-9.4h27.2
			C467.5,175.2,471.8,179.5,471.8,184.7z"/>
		<path class="st4" d="M471.8,196v15.9c0,5.2-4.2,9.4-9.4,9.4h-19.8l-9.2-5.2l2.4-1.9l3-7l-0.6-8.8l0.8-14.2l4-3.3l14.6,0.8
			L471.8,196z"/>
		<g>
			<path class="st5" d="M464.1,215.9l-4.9-8.6c-0.1-0.1-0.2-0.2-0.4-0.2h-20.1c-0.2,0-0.3,0.1-0.4,0.2l-4.9,8.7
				c-0.1,0.1-0.1,0.3,0,0.4c0.1,0.1,0.2,0.2,0.4,0.2h3.4c0.2,0,0.3-0.1,0.4-0.3l0.9-2.1h20.6l0.9,2.1c0.1,0.2,0.2,0.3,0.4,0.3h3.4h0
				c0.2,0,0.4-0.2,0.4-0.4C464.2,216.2,464.1,216.1,464.1,215.9 M458,211.8h-18.5l0.9-2.2h16.6L458,211.8z"/>
			<path class="st5" d="M460.3,191.4c-0.2-2.8-0.3-5.5-1-8.3c-0.3-1.2-1.5-1.7-2.6-2.1c-2.2-0.7-5.6-1.2-8-1.2h0
				c-2.3,0-5.7,0.5-8,1.2c-1,0.3-2.2,0.9-2.6,2.1c-0.7,2.8-0.8,5.5-1,8.3c-0.3,3.4-0.2,8-0.2,8l1,4.9c0.1,0.6,0.5,1.2,1.2,1.2h19.2
				c0.6,0,1-0.5,1.2-1.2l1-4.9C460.5,199.3,460.7,194.7,460.3,191.4 M458.2,194h-5.5h-7.9h-5.5c-0.4,0-0.7-0.3-0.7-0.7l0.6-8.2
				c0-0.4,0.3-0.7,0.7-0.7l17.6,0c0.4,0,0.7,0.3,0.7,0.7l0.6,8.2C458.9,193.6,458.6,194,458.2,194 M455.4,203c-1,0-1.8-0.8-1.8-1.8
				c0-1,0.8-1.9,1.8-1.9c1,0,1.8,0.8,1.8,1.9C457.3,202.2,456.5,203,455.4,203 M442.2,203c-1,0-1.8-0.8-1.8-1.8c0-1,0.8-1.9,1.8-1.9
				c1,0,1.8,0.8,1.8,1.9C444,202.2,443.2,203,442.2,203 M450.6,183.2h-3.6c-0.5,0-0.9-0.4-0.9-0.9c0-0.5,0.4-0.9,0.9-0.9h3.6
				c0.5,0,0.9,0.4,0.9,0.9C451.5,182.7,451.1,183.2,450.6,183.2"/>
		</g>
	</g>
	<g>
		<radialGradient id="SVGID_5_" cx="516.3459" cy="198.2525" r="36.2266" gradientUnits="userSpaceOnUse">
			<stop  offset="8.673878e-03" style="stop-color:#63AFAA"/>
			<stop  offset="0.2912" style="stop-color:#5FA8A2"/>
			<stop  offset="0.7473" style="stop-color:#56978F"/>
			<stop  offset="1" style="stop-color:#508D84"/>
		</radialGradient>
		<path class="st9" d="M539.4,184.7v27.2c0,5.2-4.2,9.4-9.4,9.4h-27.2c-5.2,0-9.4-4.2-9.4-9.4v-27.2c0-5.2,4.2-9.4,9.4-9.4h27.2
			C535.1,175.2,539.4,179.5,539.4,184.7z"/>
		<path class="st4" d="M539.4,197v14.9c0,5.2-4.2,9.4-9.4,9.4h-15.5l-9.2-8.4l-2.4-4.9l0.9-10.2l1.1-10.9l2-2l20.4-0.2L539.4,197z"
			/>
		<path class="st5" d="M529.8,200.9l-1-13c-0.1-1.4-0.6-2.6-1.5-3.3c-0.9-0.8-2-1.2-3.2-1.2h-7.8h-0.3h-7.5c-1.2,0-2.3,0.4-3.2,1.2
			c-0.9,0.8-1.4,2-1.5,3.3l-1,13l-0.1,5.6c0,1.2,0,2.5,2.1,2.5v3.2c0,1,1.3,1,2.3,1c1,0,2.1,0,2.1-1V209h6.8h0.3h7v3.2
			c0,1,1.1,1,2.1,1c1,0,2.3,0,2.3-1V209c2,0,2.1-1.3,2.1-2.5L529.8,200.9z M507.5,206.3c-1,0-1.9-0.8-1.9-1.9s0.8-1.9,1.9-1.9
			c1,0,1.9,0.8,1.9,1.9S508.5,206.3,507.5,206.3 M525.2,206.3c-1,0-1.9-0.8-1.9-1.9s0.8-1.9,1.9-1.9c1,0,1.9,0.8,1.9,1.9
			S526.3,206.3,525.2,206.3 M524.8,200.2h-16.9c-1.4,0-2.8-1.2-2.6-2.6l0.7-6.7c0.1-1.5,1-2.9,2.5-2.9h7.7h0.3h7.9
			c1.4,0,2.4,1.4,2.5,2.9l0.7,6.7C527.6,199,526.3,200.2,524.8,200.2"/>
	</g>
	<g>
		<radialGradient id="SVGID_6_" cx="178.4034" cy="198.2525" r="36.2266" gradientUnits="userSpaceOnUse">
			<stop  offset="8.673878e-03" style="stop-color:#63AFAA"/>
			<stop  offset="0.2912" style="stop-color:#5FA8A2"/>
			<stop  offset="0.7473" style="stop-color:#56978F"/>
			<stop  offset="1" style="stop-color:#508D84"/>
		</radialGradient>
		<path class="st10" d="M201.4,184.7v27.2c0,5.2-4.2,9.4-9.4,9.4h-27.2c-5.2,0-9.4-4.2-9.4-9.4v-27.2c0-5.2,4.2-9.4,9.4-9.4H192
			C197.2,175.2,201.4,179.5,201.4,184.7z"/>
		<path class="st4" d="M201.4,206.2v5.6c0,5.2-4.2,9.4-9.4,9.4h-13.2l-8.3-8.3l4.6-8.8l-3.4-3.4l0.6-2.5l2.2-3.4l4.2-3.8l-0.1-2.4
			l2.3-3.1L201.4,206.2z"/>
		<g>
			<path class="st5" d="M187.9,198.4l-3.7-0.8l-2.6-5.2c0-0.1-0.1-0.1-0.1-0.2c-0.3-0.5-0.8-0.9-1.5-1.1c-0.6-0.1-1.1-0.1-1.6,0.2
				c0,0-0.1,0-0.1,0.1l-4.8,2.8c-0.2,0.1-0.4,0.3-0.5,0.5l-2.2,4.2c-0.3,0.6-0.1,1.3,0.5,1.6c0.2,0.1,0.4,0.1,0.5,0.1
				c0.4,0,0.8-0.2,1.1-0.6l2-3.9l1.5-0.9l-1.4,4.7c0,0,0,0,0,0c0,0.1,0,0.1,0,0.2c0,0-1,6.7-1,6.9l-4.1,4.9c-0.5,0.6-0.4,1.5,0.2,2
				c0.3,0.2,0.6,0.3,0.9,0.3c0.4,0,0.8-0.2,1.1-0.5l4.9-5.8v0c0,0,0.1-0.1,0.1-0.1c0,0,0,0,0,0c0,0,0-0.1,0.1-0.1c0,0,0,0,0,0
				c0,0,0,0,0-0.1c0,0,0,0,0-0.1c0,0,0,0,0-0.1c0,0,0,0,0-0.1c0,0,0,0,0-0.1c0,0,0,0,0-0.1c0,0,0,0,0,0l0.7-4.3l3.7,3.8v6.6
				c0,0.8,0.6,1.4,1.4,1.4c0.8,0,1.4-0.6,1.4-1.4v-7.4c0-0.4-0.2-0.8-0.4-1l0,0l-3.6-4l0.8-3.8l1.2,2.4c0.2,0.3,0.5,0.5,0.8,0.6
				l4.2,0.9c0.1,0,0.2,0,0.3,0c0.5,0,1-0.4,1.2-0.9C188.9,199.2,188.5,198.6,187.9,198.4"/>
			<path class="st5" d="M182.6,188c0-1.3-1.1-2.4-2.4-2.4c-1.3,0-2.4,1.1-2.4,2.4c0,1.3,1.1,2.4,2.4,2.4
				C181.5,190.5,182.6,189.4,182.6,188"/>
		</g>
	</g>
</g>
</svg>
