<?xml version="1.0" encoding="utf-8"?>
<!-- Generator: Adobe Illustrator 22.0.1, SVG Export Plug-In . SVG Version: 6.00 Build 0)  -->
<svg version="1.1" id="Layer_1" xmlns:sketch="http://www.bohemiancoding.com/sketch/ns"
	 xmlns="http://www.w3.org/2000/svg" xmlns:xlink="http://www.w3.org/1999/xlink" x="0px" y="0px" viewBox="0 0 18 18.5"
	 style="enable-background:new 0 0 18 18.5;" xml:space="preserve">
<style type="text/css">
	.st0{fill:#4285F4;}
	.st1{fill:#34A853;}
	.st2{fill:#FBBC05;}
	.st3{fill:#EA4335;}
	.st4{fill:none;}
</style>
<title>btn_google_light_normal_ios</title>
<desc>Created with Sketch.</desc>
<g id="_x39_-PATCH" transform="translate(-608.000000, -160.000000)" sketch:type="MSArtboardGroup">
</g>
<g id="logo_googleg_48dp" transform="translate(15.000000, 15.000000)" sketch:type="MSLayerGroup">
	<path id="Shape" sketch:type="MSShapeGroup" class="st0" d="M2.7-5.6c0-0.6-0.1-1.3-0.2-1.8h-8.5v3.5h4.8c-0.2,1.1-0.8,2.1-1.8,2.7
		V1h2.9C1.8-0.5,2.7-2.8,2.7-5.6L2.7-5.6z"/>
	<path id="Shape_1_" sketch:type="MSShapeGroup" class="st1" d="M-5.9,3.2c2.4,0,4.5-0.8,6-2.2l-2.9-2.3c-0.8,0.5-1.8,0.9-3,0.9
		c-2.3,0-4.3-1.6-5-3.7h-3v2.3C-12.5,1.2-9.4,3.2-5.9,3.2L-5.9,3.2z"/>
	<path id="Shape_2_" sketch:type="MSShapeGroup" class="st2" d="M-10.9-4.1c-0.2-0.5-0.3-1.1-0.3-1.7s0.1-1.2,0.3-1.7v-2.3h-3
		c-0.6,1.2-1,2.6-1,4s0.3,2.8,1,4L-10.9-4.1L-10.9-4.1z"/>
	<path id="Shape_3_" sketch:type="MSShapeGroup" class="st3" d="M-5.9-11.2c1.3,0,2.5,0.5,3.4,1.3l2.6-2.6c-1.6-1.5-3.6-2.3-6-2.3
		c-3.5,0-6.6,2-8,5l3,2.3C-10.2-9.6-8.2-11.2-5.9-11.2L-5.9-11.2z"/>
	<path id="Shape_4_" sketch:type="MSShapeGroup" class="st4" d="M-14.9-14.8h18v18h-18V-14.8z"/>
</g>
<g id="handles_square" sketch:type="MSLayerGroup">
</g>
</svg>
