<?xml version="1.0" encoding="utf-8"?>
<!-- Generator: Adobe Illustrator 22.0.1, SVG Export Plug-In . SVG Version: 6.00 Build 0)  -->
<svg version="1.1" id="Layer_1" xmlns="http://www.w3.org/2000/svg" xmlns:xlink="http://www.w3.org/1999/xlink" x="0px" y="0px"
	 viewBox="0 0 512 512" style="enable-background:new 0 0 512 512;" xml:space="preserve">
<style type="text/css">
	.st0{fill:#FFFFFF;}
</style>
<path class="st0" d="M504,256c0,137-111,248-248,248S8,393,8,256C8,119.1,119,8,256,8S504,119.1,504,256z M262.7,90
	c-54.5,0-89.3,23-116.5,63.8c-3.5,5.3-2.4,12.4,2.7,16.3l34.7,26.3c5.2,3.9,12.6,3,16.7-2.1c17.9-22.7,30.1-35.8,57.3-35.8
	c20.4,0,45.7,13.1,45.7,33c0,15-12.4,22.7-32.5,34C247.1,238.5,216,254.9,216,296v4c0,6.6,5.4,12,12,12h56c6.6,0,12-5.4,12-12v-1.3
	c0-28.5,83.2-29.6,83.2-106.7C379.2,134,319,90,262.7,90z M256,338c-25.4,0-46,20.6-46,46c0,25.4,20.6,46,46,46s46-20.6,46-46
	C302,358.6,281.4,338,256,338z"/>
</svg>
